<?xml version="1.0" encoding="utf-8"?>
<!-- Generator: Adobe Illustrator 16.0.0, SVG Export Plug-In . SVG Version: 6.00 Build 0)  -->
<!DOCTYPE svg PUBLIC "-//W3C//DTD SVG 1.1//EN" "http://www.w3.org/Graphics/SVG/1.1/DTD/svg11.dtd">
<svg version="1.1" xmlns="http://www.w3.org/2000/svg" xmlns:xlink="http://www.w3.org/1999/xlink" x="0px" y="0px" width="1026px"
	 height="631px" viewBox="0 0 1026 631" enable-background="new 0 0 1026 631" xml:space="preserve">
<g id="Rounded_Rectangle_81_copy_1_" opacity="0.502" enable-background="new    ">
	<g id="Rounded_Rectangle_81_copy">
		<g>
			<path d="M98.839,40.052H66.802c-4.423,0-8.009,3.589-8.009,8.016v32.064c0,4.427,3.586,8.016,8.009,8.016h32.037
				c4.424,0,8.009-3.589,8.009-8.016V48.067C106.848,43.641,103.263,40.052,98.839,40.052z M257.013,48.667
				c0-4.427-3.586-8.016-8.009-8.016h-128.95c-4.424,0-8.009,3.589-8.009,8.016v32.064c0,4.427,3.585,8.016,8.009,8.016h128.95
				c4.423,0,8.009-3.589,8.009-8.016V48.667z M390.063,511.043h-17.196l-7.852-22.194l-8.426,22.194h-94.729
				c-3.309,0-5.991,2.684-5.991,5.995v35.968c0,3.311,2.683,5.994,5.991,5.994h128.545c1.317,0,2.515-0.507,3.417-1.331
				c1.359-1.099,2.23-2.778,2.23-4.663v-35.968C396.054,513.727,393.372,511.043,390.063,511.043z M724.01,421.693h-79.351
				l-9.313-21.58c0,0-2.92,13.6-4.717,21.58h-27.033c-3.309,0-5.991,2.684-5.991,5.995v39.564c0,3.311,2.683,5.994,5.991,5.994
				H724.01c3.309,0,5.99-2.684,5.99-5.994v-39.564C730,424.377,727.318,421.693,724.01,421.693z M993.254,332.239H889.015
				c-3.309,0-5.991,2.684-5.991,5.995v4.479l-24.504,8.315l24.504,7.612v6.568c0,3.311,2.683,5.994,5.991,5.994h104.239
				c3.309,0,5.99-2.684,5.99-5.994v-26.976C999.244,334.923,996.562,332.239,993.254,332.239z M789.573,61.992H589.494
				c-2.805,0-5.078,2.275-5.078,5.083v6.979l-24.375,8.271l24.375,7.572v8.186c0,2.808,2.273,5.084,5.078,5.084h200.079
				c2.805,0,5.078-2.276,5.078-5.084V67.075C794.651,64.268,792.378,61.992,789.573,61.992z"/>
		</g>
	</g>
</g>
<g id="Rounded_Rectangle_82_copy_1_" enable-background="new    ">
	<path fill-rule="evenodd" clip-rule="evenodd" fill="#8DC63F" stroke="#FFFFFF" stroke-width="2" stroke-miterlimit="10" d="
		M62.009,31.659h32.037c4.423,0,8.009,3.589,8.009,8.016v32.064c0,4.427-3.586,8.017-8.009,8.017H62.009
		c-4.423,0-8.009-3.59-8.009-8.017V39.675C54,35.248,57.586,31.659,62.009,31.659z"/>
</g>
<g id="Rounded_Rectangle_84_1_" enable-background="new    ">
	<g id="Rounded_Rectangle_84">
		<g>
			<path fill="#A0DE4C" d="M88.44,36.469H67.616c-4.423,0-8.009,2.871-8.009,6.413v9.619h36.843v-9.619
				C96.449,39.34,92.863,36.469,88.44,36.469z"/>
		</g>
	</g>
</g>
<g id="Shape_1_copy_1_" enable-background="new    ">
	<g id="Shape_1_copy">
		<g>
			<polygon fill="#FFFFFF" points="77.627,44.484 65.213,55.707 70.019,55.707 70.019,66.93 74.824,66.93 74.824,60.517 
				81.231,60.517 81.231,66.93 86.037,66.93 86.037,55.707 90.042,55.707 			"/>
		</g>
	</g>
</g>
<g id="Rounded_Rectangle_81_copy_2_1_" enable-background="new    ">
	<path fill-rule="evenodd" clip-rule="evenodd" fill="#ED1C24" stroke="#FFFFFF" stroke-width="2" stroke-miterlimit="10" d="
		M717.622,465.256H597.208c-3.309,0-5.99-2.685-5.99-5.995v-39.564c0-3.311,2.682-5.995,5.99-5.995h27.033
		c1.798-7.98,4.718-21.58,4.718-21.58l9.313,21.58h79.35c3.309,0,5.991,2.685,5.991,5.995v39.564
		C723.613,462.571,720.931,465.256,717.622,465.256z M986.866,364.212H882.628c-3.309,0-5.991-2.684-5.991-5.994v-6.568
		l-24.504-7.612l24.504-8.315v-4.479c0-3.311,2.683-5.995,5.991-5.995h104.238c3.309,0,5.991,2.685,5.991,5.995v26.976
		C992.857,361.528,990.175,364.212,986.866,364.212z M783.186,96.176H583.107c-2.805,0-5.078-2.275-5.078-5.083v-8.187
		l-24.375-7.572l24.375-8.271v-6.979c0-2.807,2.273-5.083,5.078-5.083h200.078c2.805,0,5.078,2.276,5.078,5.083v31.01
		C788.264,93.9,785.99,96.176,783.186,96.176z M385.019,551.008H277.87l0,0h-21.396c-3.309,0-5.991-2.684-5.991-5.994v-35.968
		c0-3.311,2.683-5.995,5.991-5.995h94.729l8.425-22.194l7.853,22.194h17.195c3.309,0,5.991,2.685,5.991,5.995v35.968
		c0,1.885-0.871,3.564-2.23,4.663C387.533,550.501,386.337,551.008,385.019,551.008z M240.616,79.756H111.667
		c-4.423,0-8.009-3.59-8.009-8.017V39.675c0-4.427,3.586-8.016,8.009-8.016h128.949c4.424,0,8.01,3.589,8.01,8.016v32.064
		C248.626,76.166,245.04,79.756,240.616,79.756z"/>
</g>
<g id="Rounded_Rectangle_83_copy_4_1_" enable-background="new    ">
	<g id="Rounded_Rectangle_83_copy_4">
		<g>
			<path fill="#F5464D" d="M234.209,37.271H118.875c-4.424,0-8.009,3.589-8.009,8.016v0.802c0,4.427,0,8.016,0,8.016h131.353
				c0,0,0-3.589,0-8.016v-0.802C242.219,40.859,238.632,37.271,234.209,37.271z M711.577,419.298H601.811
				c-5.266,0-5.597,3.061-5.597,6.846v0.686c0,3.785,0,6.854,0,6.854h122.211c0,0,0-3.069,0-6.854v-0.686
				C718.425,422.358,716.843,419.298,711.577,419.298z M379.416,507.982H261.282c-3.749,0-6.789,3.043-6.789,6.797v0.68
				c0,3.755,0,6.798,0,6.798h131.712c0,0,0-3.043,0-6.798v-0.68C386.205,511.025,383.165,507.982,379.416,507.982z M982.396,330.262
				h-96.161c-4.395,0-4.672,3.029-4.672,6.775v0.678c0,3.746,0,6.782,0,6.782h106.549c0,0,0-3.036,0-6.782v-0.678
				C988.111,333.291,986.791,330.262,982.396,330.262z M774.857,60.559H589.296c-6.789,0-7.216,3.029-7.216,6.775v0.678
				c0,3.746,0,6.782,0,6.782h201.606c0,0,0-3.036,0-6.782v-0.678C783.687,63.588,781.646,60.559,774.857,60.559z"/>
		</g>
	</g>
</g>
<g id="私達について_1_" enable-background="new    ">
	<g id="私達について">
		<g>
			<path fill="#FFFFFF" d="M165.59,67.648c0.272,0.729,0.533,1.539,0.746,2.326c-0.651,0.069-1.291,0.127-1.907,0.196
				c0.604-2.268,1.173-5.183,1.469-7.647c0.225-0.034,0.391-0.15,0.438-0.289l-2.322-0.428c-0.225,2.776-0.77,6.132-1.398,8.538
				c-0.379,0.034-0.734,0.058-1.054,0.081l0.604,1.932c0.106-0.023,0.213-0.093,0.237-0.22c1.102-0.139,2.689-0.37,4.289-0.602
				c0.071,0.358,0.119,0.706,0.142,1.007l1.836-0.544c-0.154-1.308-0.77-3.263-1.422-4.802L165.59,67.648z M162.747,68.262
				c-0.261-0.277-1.339-1.388-1.753-1.746v-0.012h1.635v-1.597h-1.635v-1.492c0.581-0.186,1.102-0.382,1.552-0.591
				c0.178,0,0.272,0,0.344-0.069l-1.386-1.226c-1.019,0.566-2.666,1.099-4.217,1.411c0.201,0.324,0.438,0.902,0.521,1.249
				c0.486-0.092,0.995-0.196,1.493-0.312v1.03h-1.848v1.597h1.504c-0.45,1.018-1.102,2.151-1.753,2.869
				c0.261,0.439,0.652,1.156,0.806,1.643c0.462-0.578,0.9-1.365,1.291-2.21v3.714h1.694v-4.107c0.284,0.394,0.569,0.799,0.747,1.111
				L162.747,68.262z M170.991,64.688l1.422-1.053c-0.379-0.544-1.197-1.296-1.848-1.805l-1.315,0.948
				C169.89,63.346,170.671,64.144,170.991,64.688z M172.129,69.708v-3.702h-2.879v1.551h1.232v2.268
				c-0.462,0.335-0.948,0.659-1.386,0.914l0.817,1.77c0.13-0.058,0.178-0.115,0.178-0.266c0.402-0.324,0.865-0.729,1.315-1.157
				c1.007,1.261,2.25,1.284,5.141,1.284c1.185,0,2.453-0.035,3.376-0.081c0.083-0.475,0.344-1.249,0.533-1.631
				c-1.185,0.104-2.867,0.15-4.289,0.15C173.882,70.808,172.733,70.808,172.129,69.708z M173.834,65
				c0.107,0.254,0.225,0.555,0.285,0.821h-1.505v1.134h2.855v0.301h-2.381v1.099h2.381v0.312h-2.82v1.157h2.82v0.683h1.706v-0.683
				h2.891v-1.157h-2.891v-0.312h2.476v-1.099h-2.476v-0.301h2.915v-1.134h-1.647c0.143-0.22,0.285-0.451,0.391-0.648
				c0.178,0.012,0.284-0.034,0.332-0.139L179,64.988h1.196v-1.157h-3.021v-0.347h2.322v-1.146h-2.322v-0.451
				c0.237-0.047,0.344-0.127,0.355-0.255l-2.061-0.104v0.81h-2.216v1.146h2.216v0.347h-3.009v1.157h1.434L173.834,65z
				 M177.188,64.988c-0.095,0.289-0.213,0.59-0.32,0.833h-1.113c-0.036-0.231-0.154-0.544-0.284-0.833H177.188z M183.335,69.072
				c-0.036-0.22-0.036-0.486-0.036-0.811c0-1.607,0.166-3.471,0.628-5.541c0.225-0.023,0.332-0.116,0.344-0.243l-2.287-0.289
				c-0.284,1.862-0.521,4.025-0.521,5.622c0,1.551,0.178,3.089,0.557,4.212l1.801-0.255c-0.036-0.139-0.06-0.277-0.06-0.428
				c0-0.174,0.036-0.359,0.095-0.556c0.178-0.578,0.628-1.203,0.972-1.84l-0.794-1.33C183.892,67.961,183.441,68.841,183.335,69.072
				z M190.893,64.838l-0.154-1.735c-1.375,0.231-3.685,0.393-4.952,0.428l0.059,1.689C187.244,65.196,189.495,65.046,190.893,64.838
				z M187.363,68.76c0-0.544,0.308-1.064,0.817-1.527l-1.741-0.544c-0.604,0.74-0.972,1.481-0.972,2.337
				c0,2.222,2.808,2.222,4.36,2.222c0.45,0,0.912-0.012,1.35-0.035l0.06-1.77c-0.509,0.069-1.173,0.104-1.753,0.104
				C187.908,69.546,187.363,69.385,187.363,68.76z M198.557,63.229c-1.41,0-3.21,0.439-5.177,1.007
				c-0.675,0.185-1.042,0.277-1.433,0.347l0.746,2.129c0.13-0.058,0.261-0.174,0.261-0.347c1.777-0.799,4.004-1.331,5.414-1.331
				c1.114,0,2.144,0.567,2.144,1.863c0,1.596-1.907,2.51-5.793,2.811c0.32,0.451,0.664,1.342,0.758,1.713
				c4.478-0.371,7.061-1.655,7.061-4.64C202.538,64.155,200.666,63.229,198.557,63.229z M210.854,63.484l-1.149,1.307
				c1.398,0.845,2.346,1.967,2.713,4.072l1.896-0.612C213.934,65.925,212.488,64.363,210.854,63.484z M206.92,69.743
				c-0.604,0-1.185-0.949-1.185-3.055c0-1.11,0.154-2.395,0.344-3.297c0.13-0.012,0.272-0.104,0.296-0.208l-2.275-0.405
				c-0.154,1.146-0.225,2.325-0.225,3.39c0,0.463,0.012,0.902,0.036,1.308c0.095,1.735,0.936,4.188,2.95,4.188
				c1.137,0,1.967-0.786,2.512-2.741c-0.415-0.231-1.125-0.799-1.469-1.134C207.726,68.598,207.288,69.743,206.92,69.743z
				 M219.299,68.471c0-1.238,1.552-2.708,2.63-3.46c0.948-0.682,1.493-0.786,2.63-0.763l-0.036-1.886
				c-2.228,0.115-6.918,0.393-8.435,0.485c-0.32,0.023-0.924,0.035-1.291,0.035l0.177,2.013c0.119-0.023,0.285-0.104,0.308-0.196
				c0.865-0.104,3.388-0.348,4.798-0.429c-1.588,1.157-2.772,2.916-2.772,4.223c0,1.967,1.362,3.437,4.739,3.795l0.889-1.759
				C220.508,70.31,219.299,69.65,219.299,68.471z"/>
		</g>
	</g>
</g>
<g id="Message_from_the_CEO_1_" enable-background="new    ">
	<g id="Message_from_the_CEO">
		<g>
			<path fill="#FFFFFF" d="M596.394,73.236l-3.935-4.573h-2.646v12.334h3.047v-7.699l3.304,3.867h0.458l3.305-3.867v7.699h3.048
				V68.663h-2.649L596.394,73.236z M612.283,73.779c-0.814-0.862-1.858-1.293-3.131-1.293c-1.267,0-2.309,0.409-3.126,1.229
				c-0.817,0.818-1.227,1.864-1.227,3.137c0,1.297,0.436,2.338,1.306,3.125c0.869,0.786,2.031,1.18,3.484,1.18
				c1.466,0,2.694-0.365,3.687-1.095V78.41c-1.068,0.795-2.09,1.192-3.064,1.192c-0.806,0-1.448-0.204-1.927-0.611
				c-0.479-0.408-0.744-0.99-0.797-1.746h5.938C613.479,75.797,613.098,74.642,612.283,73.779z M607.541,75.867
				c0.129-1.212,0.727-1.818,1.795-1.818c1.057,0,1.655,0.606,1.795,1.818H607.541z M618.623,75.715
				c-0.875-0.352-1.379-0.582-1.51-0.69c-0.132-0.109-0.198-0.22-0.198-0.331c0-0.43,0.312-0.645,0.938-0.645
				c0.846,0,1.766,0.306,2.758,0.918v-1.863c-0.794-0.411-1.685-0.617-2.671-0.617c-1.027,0-1.854,0.238-2.482,0.716
				c-0.627,0.478-0.941,1.096-0.941,1.855c0,0.513,0.164,0.979,0.49,1.396c0.327,0.419,0.934,0.803,1.82,1.152
				s1.408,0.595,1.563,0.736c0.155,0.141,0.233,0.29,0.233,0.449c0,0.41-0.421,0.616-1.262,0.616c-0.718,0-1.607-0.235-2.67-0.707
				v1.846c0.863,0.406,1.851,0.609,2.959,0.609c1.08,0,1.912-0.235,2.496-0.707s0.876-1.141,0.876-2.007
				c0-0.548-0.182-1.051-0.543-1.511C620.117,76.472,619.498,76.066,618.623,75.715z M626.098,75.715
				c-0.876-0.352-1.379-0.582-1.511-0.69c-0.132-0.109-0.197-0.22-0.197-0.331c0-0.43,0.312-0.645,0.937-0.645
				c0.847,0,1.766,0.306,2.759,0.918v-1.863c-0.794-0.411-1.685-0.617-2.671-0.617c-1.028,0-1.855,0.238-2.482,0.716
				c-0.628,0.478-0.941,1.096-0.941,1.855c0,0.513,0.163,0.979,0.49,1.396c0.326,0.419,0.934,0.803,1.82,1.152
				c0.886,0.35,1.407,0.595,1.562,0.736c0.155,0.141,0.233,0.29,0.233,0.449c0,0.41-0.42,0.616-1.261,0.616
				c-0.718,0-1.608-0.235-2.671-0.707v1.846c0.864,0.406,1.851,0.609,2.96,0.609c1.08,0,1.911-0.235,2.495-0.707
				s0.876-1.141,0.876-2.007c0-0.548-0.181-1.051-0.543-1.511S626.973,76.066,626.098,75.715z M636.907,78.824v-3.801
				c0-1.691-1.168-2.537-3.503-2.537c-1.302,0-2.496,0.338-3.581,1.015v2.137c0.928-0.93,1.943-1.395,3.047-1.395
				c1.016,0,1.494,0.465,1.437,1.395c-2.348,0.702-3.753,1.275-4.217,1.721c-0.464,0.444-0.696,1.03-0.696,1.755
				c0,0.542,0.225,1.019,0.675,1.429c0.449,0.409,0.995,0.614,1.637,0.614c0.911,0,1.818-0.312,2.724-0.936
				c0.152,0.624,0.637,0.936,1.454,0.936c0.759,0,1.57-0.253,2.434-0.76V78.94c-0.438,0.312-0.765,0.468-0.98,0.468
				C637.05,79.408,636.907,79.214,636.907,78.824z M634.307,78.974c-0.468,0.419-0.946,0.629-1.437,0.629
				c-0.233,0-0.432-0.087-0.596-0.262c-0.163-0.174-0.245-0.382-0.245-0.624c0-0.378,0.162-0.689,0.486-0.936
				c0.324-0.244,0.921-0.521,1.791-0.828V78.974z M639.705,73.581c-0.631,0.612-0.946,1.318-0.946,2.119
				c0,0.653,0.22,1.215,0.657,1.686c0.438,0.472,0.992,0.766,1.664,0.883c-1.005,0.23-1.507,0.651-1.507,1.263
				c0,0.524,0.333,0.887,0.999,1.086c-1.472,0.4-2.207,1.106-2.207,2.119c0,0.73,0.373,1.315,1.121,1.757
				c0.747,0.441,1.845,0.663,3.292,0.663c1.419,0,2.503-0.239,3.253-0.716s1.126-1.171,1.126-2.084c0-0.57-0.221-1.104-0.661-1.602
				c-0.441-0.498-1.224-0.795-2.348-0.893c-1.123-0.097-1.767-0.19-1.931-0.282c-0.163-0.091-0.245-0.21-0.245-0.357
				s0.062-0.267,0.188-0.357c0.126-0.092,0.657-0.188,1.594-0.292c0.937-0.103,1.645-0.428,2.123-0.976
				c0.479-0.547,0.719-1.145,0.719-1.792c0-0.453-0.138-0.915-0.412-1.386h1.183v-1.758h-4.913
				C641.252,72.662,640.336,72.969,639.705,73.581z M642.743,81.633c1.349,0,2.023,0.306,2.023,0.918
				c0,0.289-0.173,0.536-0.517,0.742c-0.345,0.206-0.794,0.309-1.349,0.309c-1.419,0-2.128-0.326-2.128-0.979
				c0-0.301,0.175-0.54,0.525-0.72C641.648,81.723,642.131,81.633,642.743,81.633z M643.747,74.636
				c0.282,0.279,0.424,0.617,0.424,1.011c0,0.436-0.146,0.81-0.437,1.121c-0.291,0.312-0.641,0.469-1.048,0.469
				s-0.76-0.148-1.057-0.446c-0.297-0.297-0.445-0.648-0.445-1.055c0-0.424,0.145-0.783,0.433-1.077
				c0.288-0.295,0.645-0.441,1.069-0.441S643.465,74.356,643.747,74.636z M655.283,73.779c-0.814-0.862-1.857-1.293-3.131-1.293
				c-1.267,0-2.309,0.409-3.126,1.229c-0.817,0.818-1.226,1.864-1.226,3.137c0,1.297,0.435,2.338,1.305,3.125
				c0.87,0.786,2.031,1.18,3.485,1.18c1.465,0,2.693-0.365,3.687-1.095V78.41c-1.068,0.795-2.09,1.192-3.065,1.192
				c-0.806,0-1.447-0.204-1.926-0.611c-0.479-0.408-0.745-0.99-0.797-1.746h5.937C656.479,75.797,656.098,74.642,655.283,73.779z
				 M650.541,75.867c0.129-1.212,0.728-1.818,1.796-1.818c1.057,0,1.654,0.606,1.795,1.818H650.541z M667.145,70.676
				c0.233,0,0.621,0.035,1.164,0.106v-2.119c-0.782-0.106-1.308-0.159-1.576-0.159c-1.108,0-1.99,0.331-2.645,0.993
				c-0.653,0.662-0.98,1.579-0.98,2.75v0.415h-1.182v1.793h1.182v6.542h2.601v-6.542h1.183v-1.793h-1.183v-0.529
				C665.708,71.161,666.187,70.676,667.145,70.676z M673.305,72.486c-1.004,0-1.883,0.854-2.636,2.56h-0.035v-2.384h-2.601v8.335
				h2.601V77.39c0-0.124,0.206-0.562,0.617-1.313c0.412-0.751,0.918-1.127,1.52-1.127c0.386,0,0.899,0.206,1.541,0.618l0.719-2.322
				C674.358,72.739,673.783,72.486,673.305,72.486z M679.641,72.486c-1.337,0-2.45,0.395-3.341,1.184
				c-0.891,0.79-1.335,1.839-1.335,3.146c0,1.285,0.436,2.329,1.309,3.134c0.873,0.804,1.995,1.206,3.367,1.206
				c1.267,0,2.358-0.377,3.274-1.131c0.917-0.755,1.375-1.818,1.375-3.191c0-1.366-0.451-2.434-1.353-3.199
				C682.035,72.869,680.937,72.486,679.641,72.486z M679.641,79.603c-1.267,0-1.9-0.929-1.9-2.786c0-0.89,0.168-1.574,0.504-2.052
				c0.335-0.478,0.801-0.716,1.396-0.716c1.243,0,1.865,0.905,1.865,2.715C681.506,78.656,680.884,79.603,679.641,79.603z
				 M697.62,72.486c-1.174,0-2.261,0.591-3.26,1.774c-0.566-1.184-1.56-1.774-2.979-1.774c-1.034,0-1.992,0.414-2.874,1.244v-1.068
				h-2.601v8.335h2.601v-5.596c0.642-0.772,1.305-1.158,1.987-1.158c0.479,0,0.863,0.156,1.152,0.469
				c0.288,0.312,0.433,0.76,0.433,1.344v4.941h2.593v-5.34c0.608-0.942,1.293-1.414,2.054-1.414c0.479,0,0.854,0.163,1.124,0.49
				c0.269,0.327,0.403,0.785,0.403,1.375v4.889h2.601v-5.355c0-0.938-0.301-1.697-0.902-2.28
				C699.35,72.777,698.572,72.486,697.62,72.486z M710.583,70.04h-0.324l-3.459,3.902v0.513h1.182v3.575
				c0,1.024,0.28,1.802,0.841,2.331c0.561,0.53,1.349,0.795,2.364,0.795c0.776,0,1.579-0.174,2.408-0.521v-1.897
				c-0.625,0.323-1.205,0.485-1.742,0.485c-0.397,0-0.708-0.119-0.933-0.357s-0.337-0.563-0.337-0.976v-3.435h3.012v-1.793h-3.012
				V70.04z M720.044,72.486c-1.021,0-1.894,0.465-2.618,1.395h-0.035v-5.218h-2.601v12.334h2.601v-5.322
				c0.572-0.843,1.153-1.264,1.743-1.264c0.893,0,1.34,0.606,1.34,1.821v4.765h2.601v-5.32c0-1.002-0.285-1.784-0.854-2.347
				C721.651,72.768,720.926,72.486,720.044,72.486z M732.103,73.779c-0.814-0.862-1.858-1.293-3.131-1.293
				c-1.267,0-2.309,0.409-3.126,1.229c-0.817,0.818-1.226,1.864-1.226,3.137c0,1.297,0.435,2.338,1.305,3.125
				c0.869,0.786,2.031,1.18,3.485,1.18c1.465,0,2.693-0.365,3.687-1.095V78.41c-1.068,0.795-2.091,1.192-3.065,1.192
				c-0.806,0-1.447-0.204-1.926-0.611c-0.479-0.408-0.745-0.99-0.797-1.746h5.937C733.298,75.797,732.917,74.642,732.103,73.779z
				 M727.36,75.867c0.129-1.212,0.728-1.818,1.796-1.818c1.056,0,1.654,0.606,1.795,1.818H727.36z M746.81,78.596
				c-1.272,0-2.316-0.356-3.131-1.068s-1.222-1.615-1.222-2.711c0-1.089,0.413-1.984,1.239-2.688
				c0.826-0.703,1.89-1.055,3.192-1.055c1.325,0,2.729,0.421,4.212,1.263V69.59c-1.209-0.724-2.686-1.086-4.431-1.086
				c-2.189,0-3.963,0.618-5.32,1.854c-1.357,1.235-2.036,2.739-2.036,4.512c0,1.771,0.644,3.262,1.932,4.472
				c1.287,1.21,3.017,1.814,5.188,1.814c1.676,0,3.278-0.409,4.808-1.228v-2.692c-1.155,0.57-2.025,0.94-2.609,1.107
				C748.047,78.512,747.44,78.596,746.81,78.596z M756.569,75.771h5.577V73.51h-5.577v-2.587h5.849v-2.26h-8.896v12.334h9.02v-2.26
				h-5.972V75.771z M776.241,70.406c-1.29-1.268-2.978-1.902-5.062-1.902c-2.09,0-3.781,0.633-5.074,1.898s-1.939,2.743-1.939,4.432
				c0,1.72,0.65,3.202,1.952,4.45s2.989,1.872,5.062,1.872c2.049,0,3.728-0.627,5.035-1.881s1.961-2.733,1.961-4.441
				C778.176,73.151,777.531,71.675,776.241,70.406z M773.973,77.559c-0.706,0.691-1.637,1.037-2.793,1.037
				c-1.162,0-2.098-0.346-2.807-1.037c-0.709-0.692-1.063-1.6-1.063-2.725c0-1.13,0.354-2.039,1.063-2.728s1.645-1.033,2.807-1.033
				c1.156,0,2.087,0.345,2.793,1.033c0.707,0.688,1.06,1.598,1.06,2.728C775.032,75.959,774.68,76.866,773.973,77.559z"/>
		</g>
	</g>
</g>
<g id="ABOUT_US_1_" enable-background="new    ">
	<g id="ABOUT_US">
		<g>
			<path fill="#FFFFFF" d="M131.095,43.663l-4.941,12.334h3.229l0.913-2.437h5.479l1.008,2.437h3.277l-5.434-12.334H131.095z
				 M131.104,51.406l1.797-4.795l1.983,4.795H131.104z M148.961,49.212c1.115-0.57,1.672-1.391,1.672-2.461
				c0-0.836-0.36-1.559-1.082-2.171c-0.721-0.611-1.712-0.917-2.973-0.917h-5.289v12.334h5.955c1.418,0,2.493-0.336,3.222-1.007
				c0.73-0.672,1.095-1.543,1.095-2.615c0-0.754-0.223-1.414-0.67-1.979C150.445,49.831,149.801,49.436,148.961,49.212z
				 M144.337,45.923h1.594c0.49,0,0.873,0.124,1.147,0.371s0.412,0.56,0.412,0.936c0,0.383-0.137,0.701-0.412,0.954
				s-0.657,0.38-1.147,0.38h-1.594V45.923z M147.805,53.397c-0.356,0.227-0.94,0.34-1.751,0.34h-1.716v-2.914h2.137
				c0.566,0,1.019,0.125,1.357,0.375c0.339,0.251,0.508,0.591,0.508,1.021C148.339,52.777,148.161,53.171,147.805,53.397z
				 M160.121,43.504c-2.09,0-3.781,0.633-5.074,1.898s-1.939,2.743-1.939,4.432c0,1.72,0.651,3.202,1.953,4.45
				s2.989,1.872,5.061,1.872c2.049,0,3.728-0.627,5.035-1.881s1.961-2.733,1.961-4.441c0-1.683-0.645-3.159-1.935-4.428
				C163.893,44.139,162.206,43.504,160.121,43.504z M162.915,52.559c-0.706,0.691-1.637,1.037-2.793,1.037
				c-1.162,0-2.097-0.346-2.806-1.037c-0.709-0.692-1.064-1.6-1.064-2.725c0-1.13,0.354-2.039,1.064-2.728
				c0.709-0.688,1.645-1.033,2.806-1.033c1.156,0,2.087,0.345,2.793,1.033c0.707,0.688,1.06,1.598,1.06,2.728
				C163.974,50.959,163.621,51.866,162.915,52.559z M178.217,50.541c0,0.977-0.282,1.73-0.845,2.26
				c-0.563,0.53-1.315,0.795-2.255,0.795c-0.905,0-1.636-0.259-2.193-0.777c-0.558-0.518-0.836-1.206-0.836-2.065v-7.09h-3.056
				v7.019c0,1.767,0.536,3.12,1.607,4.062c1.071,0.942,2.576,1.413,4.514,1.413c1.961,0,3.47-0.465,4.527-1.396
				c1.056-0.93,1.585-2.295,1.585-4.097v-7.001h-3.047V50.541z M182.863,45.923h4.431v10.074h3.047V45.923h4.431v-2.26h-11.909
				V45.923z M210.324,50.541c0,0.977-0.282,1.73-0.845,2.26c-0.563,0.53-1.315,0.795-2.255,0.795c-0.905,0-1.636-0.259-2.194-0.777
				c-0.557-0.518-0.836-1.206-0.836-2.065v-7.09h-3.056v7.019c0,1.767,0.536,3.12,1.607,4.062c1.071,0.942,2.576,1.413,4.514,1.413
				c1.961,0,3.47-0.465,4.527-1.396c1.057-0.93,1.585-2.295,1.585-4.097v-7.001h-3.047V50.541z M224.098,50.426
				c-0.394-0.523-0.862-0.93-1.405-1.218c-0.543-0.289-1.267-0.601-2.172-0.937c-0.905-0.335-1.474-0.609-1.708-0.821
				s-0.35-0.436-0.35-0.671c0-0.306,0.162-0.552,0.486-0.737c0.324-0.186,0.76-0.277,1.309-0.277c0.963,0,2.256,0.367,3.879,1.104
				v-2.411c-1.454-0.636-2.834-0.953-4.142-0.953c-1.418,0-2.551,0.325-3.397,0.976c-0.847,0.651-1.27,1.506-1.27,2.565
				c0,0.818,0.194,1.49,0.582,2.014c0.388,0.524,0.849,0.928,1.383,1.21c0.534,0.283,1.258,0.589,2.171,0.918
				c0.914,0.33,1.49,0.609,1.73,0.839c0.239,0.229,0.359,0.474,0.359,0.732c0,0.759-0.599,1.138-1.795,1.138
				c-0.707,0-1.375-0.126-2.005-0.379c-0.63-0.253-1.354-0.656-2.171-1.21v2.657c1.424,0.795,2.896,1.192,4.413,1.192
				c1.407,0,2.541-0.339,3.402-1.016c0.861-0.677,1.292-1.586,1.292-2.729C224.689,51.612,224.492,50.95,224.098,50.426z"/>
		</g>
	</g>
</g>
<g id="Our_D.N.A._1_" enable-background="new    ">
	<g id="Our_D.N.A.">
		<g>
			<path fill="#FFFFFF" d="M896.04,338.151c-2.091,0-3.782,0.633-5.075,1.898s-1.939,2.743-1.939,4.433
				c0,1.719,0.651,3.202,1.953,4.45c1.302,1.247,2.988,1.871,5.062,1.871c2.049,0,3.727-0.627,5.034-1.88
				c1.309-1.254,1.962-2.734,1.962-4.441c0-1.684-0.646-3.159-1.936-4.428S898.124,338.151,896.04,338.151z M898.833,347.206
				c-0.706,0.691-1.638,1.037-2.793,1.037c-1.162,0-2.098-0.346-2.807-1.037c-0.71-0.691-1.064-1.6-1.064-2.724
				c0-1.13,0.354-2.04,1.064-2.729c0.709-0.688,1.645-1.033,2.807-1.033c1.155,0,2.087,0.345,2.793,1.033s1.06,1.599,1.06,2.729
				C899.893,345.606,899.539,346.515,898.833,347.206z M910.458,347.618c0,0.183-0.174,0.466-0.521,0.852
				c-0.348,0.385-0.767,0.577-1.257,0.577c-0.869,0-1.305-0.529-1.305-1.587v-5.149h-2.601v5.333c0,0.988,0.28,1.763,0.841,2.321
				c0.561,0.56,1.29,0.839,2.189,0.839c1.016,0,1.905-0.45,2.67-1.351v1.192h2.602v-8.335h-2.618V347.618z M917.757,344.694h-0.035
				v-2.384h-2.601v8.335h2.601v-3.608c0-0.123,0.205-0.562,0.617-1.312c0.411-0.752,0.918-1.128,1.52-1.128
				c0.385,0,0.898,0.206,1.541,0.618l0.718-2.322c-0.671-0.506-1.246-0.759-1.725-0.759
				C919.388,342.134,918.51,342.987,917.757,344.694z M933.379,338.311h-5.395v12.335h5.053c2.276,0,4.029-0.546,5.259-1.639
				c1.229-1.092,1.843-2.594,1.843-4.507c0-1.824-0.605-3.312-1.816-4.463C937.11,338.886,935.463,338.311,933.379,338.311z
				 M935.979,347.312c-0.683,0.715-1.67,1.072-2.96,1.072h-1.987v-7.813h1.952c1.296,0,2.29,0.349,2.982,1.046
				c0.691,0.697,1.037,1.652,1.037,2.865C937.004,345.653,936.662,346.597,935.979,347.312z M941.903,347.661
				c-0.426,0-0.792,0.154-1.099,0.463c-0.307,0.31-0.46,0.679-0.46,1.108c0,0.436,0.153,0.807,0.46,1.112s0.673,0.459,1.099,0.459
				c0.432,0,0.802-0.153,1.107-0.459c0.307-0.306,0.46-0.677,0.46-1.112c0-0.43-0.153-0.799-0.46-1.108
				C942.705,347.815,942.335,347.661,941.903,347.661z M954.877,345.851l-6.532-7.54h-2.794v12.335h3.047v-7.902l6.753,7.902h2.573
				v-12.335h-3.047V345.851z M961.545,347.661c-0.426,0-0.793,0.154-1.099,0.463c-0.307,0.31-0.46,0.679-0.46,1.108
				c0,0.436,0.153,0.807,0.46,1.112c0.306,0.306,0.673,0.459,1.099,0.459c0.432,0,0.801-0.153,1.107-0.459s0.46-0.677,0.46-1.112
				c0-0.43-0.153-0.799-0.46-1.108C962.346,347.815,961.977,347.661,961.545,347.661z M968.803,338.311l-4.941,12.335h3.229
				l0.913-2.438h5.479l1.008,2.438h3.276l-5.434-12.335H968.803z M968.812,346.054l1.797-4.794l1.982,4.794H968.812z
				 M981.156,348.124c-0.307-0.309-0.676-0.463-1.108-0.463c-0.426,0-0.792,0.154-1.099,0.463c-0.307,0.31-0.46,0.679-0.46,1.108
				c0,0.436,0.153,0.807,0.46,1.112s0.673,0.459,1.099,0.459c0.433,0,0.802-0.153,1.108-0.459c0.306-0.306,0.459-0.677,0.459-1.112
				C981.615,348.803,981.462,348.434,981.156,348.124z"/>
		</g>
	</g>
</g>
<g id="Organizational__Structure_1_" enable-background="new    ">
	<g id="Organizational__Structure">
		<g>
			<path fill="#FFFFFF" d="M266.893,510.76c-2.09,0-3.782,0.633-5.074,1.897c-1.294,1.266-1.94,2.743-1.94,4.433
				c0,1.719,0.651,3.202,1.953,4.45s2.989,1.871,5.062,1.871c2.049,0,3.727-0.626,5.035-1.88c1.308-1.254,1.961-2.734,1.961-4.441
				c0-1.684-0.645-3.159-1.935-4.428C270.663,511.394,268.977,510.76,266.893,510.76z M269.686,519.813
				c-0.706,0.691-1.638,1.038-2.793,1.038c-1.162,0-2.098-0.347-2.807-1.038s-1.064-1.6-1.064-2.724c0-1.13,0.355-2.039,1.064-2.729
				c0.709-0.688,1.645-1.033,2.807-1.033c1.155,0,2.087,0.345,2.793,1.033c0.706,0.689,1.06,1.599,1.06,2.729
				C270.745,518.214,270.392,519.122,269.686,519.813z M278.333,517.302h-0.035v-2.384h-2.601v8.335h2.601v-3.608
				c0-0.123,0.206-0.561,0.617-1.312c0.412-0.752,0.918-1.127,1.52-1.127c0.386,0,0.899,0.206,1.541,0.617l0.719-2.321
				c-0.672-0.507-1.247-0.76-1.726-0.76C279.965,514.741,279.086,515.595,278.333,517.302z M287.322,527.411
				c1.418,0,2.503-0.238,3.253-0.715c0.75-0.478,1.125-1.172,1.125-2.084c0-0.571-0.221-1.105-0.661-1.603s-1.223-0.795-2.347-0.892
				c-1.124-0.098-1.768-0.191-1.931-0.282c-0.164-0.092-0.245-0.211-0.245-0.358c0-0.146,0.062-0.266,0.188-0.357
				c0.126-0.091,0.657-0.188,1.594-0.291c0.938-0.103,1.646-0.429,2.124-0.976c0.479-0.548,0.718-1.145,0.718-1.793
				c0-0.453-0.137-0.915-0.411-1.386h1.182v-1.757h-4.912c-1.203,0-2.119,0.306-2.75,0.918c-0.63,0.612-0.945,1.318-0.945,2.119
				c0,0.653,0.219,1.216,0.656,1.687c0.438,0.471,0.993,0.765,1.664,0.883c-1.004,0.229-1.506,0.65-1.506,1.263
				c0,0.523,0.333,0.886,0.998,1.086c-1.471,0.4-2.207,1.106-2.207,2.119c0,0.729,0.374,1.315,1.121,1.757
				S285.874,527.411,287.322,527.411z M286.16,516.913c0.288-0.294,0.645-0.441,1.069-0.441s0.779,0.14,1.062,0.42
				c0.282,0.279,0.423,0.616,0.423,1.011c0,0.436-0.146,0.81-0.437,1.121c-0.291,0.312-0.64,0.468-1.048,0.468
				c-0.407,0-0.759-0.148-1.056-0.445c-0.297-0.298-0.445-0.649-0.445-1.056C285.729,517.566,285.872,517.208,286.16,516.913z
				 M285.842,524.157c0.351-0.18,0.832-0.269,1.445-0.269c1.349,0,2.022,0.306,2.022,0.918c0,0.288-0.172,0.535-0.517,0.741
				s-0.794,0.31-1.349,0.31c-1.418,0-2.128-0.327-2.128-0.98C285.316,524.577,285.492,524.337,285.842,524.157z M300.059,521.08
				v-3.802c0-1.691-1.168-2.537-3.503-2.537c-1.302,0-2.495,0.339-3.581,1.016v2.137c0.928-0.931,1.943-1.396,3.047-1.396
				c1.016,0,1.495,0.465,1.437,1.396c-2.347,0.701-3.752,1.274-4.217,1.72c-0.464,0.445-0.696,1.03-0.696,1.756
				c0,0.542,0.226,1.018,0.675,1.428s0.995,0.614,1.638,0.614c0.91,0,1.818-0.312,2.723-0.936c0.152,0.624,0.637,0.936,1.454,0.936
				c0.759,0,1.57-0.253,2.435-0.759v-1.457c-0.438,0.312-0.766,0.468-0.981,0.468C300.201,521.663,300.059,521.469,300.059,521.08z
				 M297.458,521.229c-0.467,0.42-0.946,0.629-1.437,0.629c-0.233,0-0.432-0.087-0.595-0.261c-0.164-0.175-0.245-0.383-0.245-0.625
				c0-0.378,0.161-0.689,0.485-0.935s0.921-0.521,1.791-0.828V521.229z M304.967,517.876c0.596-0.919,1.2-1.378,1.812-1.378
				c0.858,0,1.287,0.558,1.287,1.671v5.084h2.602v-5.304c0-1.03-0.288-1.823-0.863-2.377s-1.291-0.831-2.149-0.831
				c-1.027,0-1.924,0.453-2.688,1.359v-1.183h-2.601v8.335h2.601V517.876z M313.982,513.655c0.396,0,0.735-0.143,1.016-0.429
				c0.28-0.285,0.42-0.625,0.42-1.02c0-0.4-0.14-0.741-0.42-1.023c-0.28-0.283-0.619-0.424-1.016-0.424
				c-0.392,0-0.728,0.141-1.008,0.424c-0.28,0.282-0.42,0.623-0.42,1.023c0,0.395,0.14,0.734,0.42,1.02
				C313.255,513.513,313.591,513.655,313.982,513.655z M312.694,523.253h2.602v-8.335h-2.602V523.253z M325.072,523.253v-1.793
				h-4.234l4.234-6.542h-8.073v1.792h3.833l-4.245,6.543H325.072z M333.519,521.08v-3.802c0-1.691-1.168-2.537-3.503-2.537
				c-1.302,0-2.495,0.339-3.581,1.016v2.137c0.928-0.931,1.943-1.396,3.047-1.396c1.016,0,1.494,0.465,1.437,1.396
				c-2.347,0.701-3.752,1.274-4.217,1.72c-0.464,0.445-0.696,1.03-0.696,1.756c0,0.542,0.225,1.018,0.675,1.428
				c0.449,0.41,0.995,0.614,1.638,0.614c0.91,0,1.818-0.312,2.723-0.936c0.152,0.624,0.637,0.936,1.454,0.936
				c0.759,0,1.57-0.253,2.435-0.759v-1.457c-0.438,0.312-0.766,0.468-0.981,0.468C333.661,521.663,333.519,521.469,333.519,521.08z
				 M330.918,521.229c-0.468,0.42-0.946,0.629-1.437,0.629c-0.233,0-0.432-0.087-0.595-0.261c-0.164-0.175-0.246-0.383-0.246-0.625
				c0-0.378,0.162-0.689,0.486-0.935s0.921-0.521,1.791-0.828V521.229z M336.15,520.286c0,1.024,0.28,1.801,0.84,2.331
				c0.561,0.529,1.349,0.794,2.364,0.794c0.776,0,1.579-0.173,2.408-0.521v-1.898c-0.624,0.324-1.205,0.485-1.742,0.485
				c-0.397,0-0.708-0.119-0.933-0.357s-0.337-0.563-0.337-0.976v-3.435h3.012v-1.792h-3.012v-2.622h-0.324l-3.459,3.902v0.512h1.183
				V520.286z M342.976,523.253h2.602v-8.335h-2.602V523.253z M344.264,510.76c-0.392,0-0.728,0.141-1.008,0.424
				c-0.28,0.282-0.42,0.623-0.42,1.023c0,0.395,0.14,0.734,0.42,1.02c0.28,0.286,0.616,0.429,1.008,0.429
				c0.396,0,0.735-0.143,1.016-0.429c0.28-0.285,0.42-0.625,0.42-1.02c0-0.4-0.14-0.741-0.42-1.023
				C344.999,510.9,344.66,510.76,344.264,510.76z M351.868,523.411c1.267,0,2.358-0.377,3.275-1.131
				c0.916-0.754,1.375-1.817,1.375-3.19c0-1.367-0.451-2.434-1.354-3.199c-0.901-0.767-2.001-1.149-3.297-1.149
				c-1.337,0-2.45,0.395-3.34,1.185c-0.891,0.789-1.336,1.838-1.336,3.146c0,1.284,0.437,2.328,1.31,3.133
				C349.374,523.01,350.496,523.411,351.868,523.411z M350.472,517.021c0.336-0.478,0.802-0.717,1.396-0.717
				c1.244,0,1.865,0.905,1.865,2.715c0,1.893-0.621,2.839-1.865,2.839c-1.267,0-1.899-0.929-1.899-2.785
				C349.969,518.182,350.136,517.498,350.472,517.021z M363.37,514.741c-1.027,0-1.923,0.453-2.688,1.359v-1.183h-2.601v8.335h2.601
				v-5.377c0.595-0.919,1.199-1.378,1.812-1.378c0.858,0,1.287,0.558,1.287,1.671v5.084h2.601v-5.304
				c0-1.03-0.287-1.823-0.862-2.377S364.229,514.741,363.37,514.741z M375.39,521.08v-3.802c0-1.691-1.168-2.537-3.503-2.537
				c-1.302,0-2.496,0.339-3.582,1.016v2.137c0.929-0.931,1.944-1.396,3.048-1.396c1.016,0,1.494,0.465,1.436,1.396
				c-2.347,0.701-3.752,1.274-4.216,1.72s-0.696,1.03-0.696,1.756c0,0.542,0.225,1.018,0.674,1.428
				c0.45,0.41,0.996,0.614,1.638,0.614c0.911,0,1.818-0.312,2.724-0.936c0.151,0.624,0.636,0.936,1.453,0.936
				c0.759,0,1.57-0.253,2.435-0.759v-1.457c-0.438,0.312-0.765,0.468-0.98,0.468C375.532,521.663,375.39,521.469,375.39,521.08z
				 M372.788,521.229c-0.467,0.42-0.945,0.629-1.436,0.629c-0.233,0-0.433-0.087-0.596-0.261c-0.163-0.175-0.245-0.383-0.245-0.625
				c0-0.378,0.162-0.689,0.486-0.935s0.921-0.521,1.79-0.828V521.229z M377.749,510.918v12.335h2.601v-12.335H377.749z
				 M291.162,534.447c-0.543-0.289-1.267-0.601-2.172-0.937c-0.905-0.335-1.475-0.609-1.707-0.821
				c-0.234-0.212-0.351-0.436-0.351-0.671c0-0.306,0.162-0.552,0.485-0.737c0.324-0.186,0.761-0.277,1.31-0.277
				c0.963,0,2.256,0.367,3.879,1.104v-2.411c-1.453-0.636-2.834-0.953-4.142-0.953c-1.419,0-2.551,0.325-3.397,0.976
				c-0.847,0.651-1.27,1.506-1.27,2.566c0,0.817,0.193,1.489,0.582,2.013c0.388,0.524,0.849,0.928,1.383,1.21
				c0.534,0.283,1.258,0.589,2.172,0.918c0.914,0.33,1.49,0.609,1.729,0.839s0.359,0.474,0.359,0.732
				c0,0.759-0.599,1.138-1.795,1.138c-0.706,0-1.375-0.126-2.005-0.379c-0.631-0.254-1.354-0.656-2.172-1.21v2.657
				c1.424,0.795,2.896,1.192,4.413,1.192c1.407,0,2.541-0.339,3.402-1.016c0.86-0.677,1.291-1.586,1.291-2.728
				c0-0.801-0.197-1.463-0.591-1.987C292.173,535.142,291.705,534.735,291.162,534.447z M297.594,530.279h-0.324l-3.459,3.902v0.513
				h1.183v3.575c0,1.024,0.28,1.802,0.841,2.331c0.561,0.53,1.349,0.795,2.364,0.795c0.776,0,1.579-0.174,2.408-0.521v-1.898
				c-0.625,0.323-1.206,0.485-1.743,0.485c-0.396,0-0.708-0.119-0.933-0.357s-0.337-0.563-0.337-0.976v-3.435h3.013v-1.793h-3.013
				V530.279z M304.473,535.285h-0.035v-2.384h-2.601v8.335h2.601v-3.607c0-0.124,0.206-0.562,0.617-1.313
				c0.411-0.751,0.918-1.127,1.52-1.127c0.385,0,0.898,0.206,1.541,0.618l0.718-2.322c-0.671-0.506-1.246-0.759-1.725-0.759
				C306.104,532.726,305.226,533.579,304.473,535.285z M315.309,538.21c0,0.183-0.174,0.466-0.521,0.851
				c-0.348,0.386-0.767,0.578-1.257,0.578c-0.87,0-1.305-0.529-1.305-1.588v-5.149h-2.601v5.333c0,0.989,0.28,1.763,0.841,2.322
				s1.29,0.839,2.188,0.839c1.017,0,1.906-0.45,2.671-1.351v1.191h2.601v-8.335h-2.618V538.21z M323.002,538.855
				c-0.455-0.451-0.684-1.045-0.684-1.782c0-0.73,0.233-1.314,0.701-1.751c0.467-0.437,1.088-0.654,1.865-0.654
				c0.694,0,1.4,0.185,2.119,0.556v-1.951c-0.981-0.365-1.909-0.547-2.785-0.547c-1.36,0-2.479,0.41-3.358,1.232
				c-0.878,0.822-1.317,1.866-1.317,3.133c0,1.297,0.435,2.338,1.305,3.125c0.87,0.786,2.031,1.18,3.485,1.18
				c0.846,0,1.777-0.186,2.793-0.557v-1.88c-1.004,0.382-1.78,0.573-2.329,0.573C324.056,539.532,323.457,539.307,323.002,538.855z
				 M331.614,530.279h-0.324l-3.459,3.902v0.513h1.183v3.575c0,1.024,0.28,1.802,0.84,2.331c0.561,0.53,1.349,0.795,2.365,0.795
				c0.775,0,1.578-0.174,2.407-0.521v-1.898c-0.624,0.323-1.205,0.485-1.742,0.485c-0.397,0-0.708-0.119-0.933-0.357
				s-0.337-0.563-0.337-0.976v-3.435h3.012v-1.793h-3.012V530.279z M341.47,538.21c0,0.183-0.174,0.466-0.521,0.851
				c-0.348,0.386-0.767,0.578-1.257,0.578c-0.87,0-1.305-0.529-1.305-1.588v-5.149h-2.601v5.333c0,0.989,0.28,1.763,0.84,2.322
				c0.561,0.56,1.291,0.839,2.189,0.839c1.016,0,1.906-0.45,2.671-1.351v1.191h2.601v-8.335h-2.618V538.21z M348.769,535.285h-0.035
				v-2.384h-2.601v8.335h2.601v-3.607c0-0.124,0.206-0.562,0.617-1.313c0.412-0.751,0.918-1.127,1.52-1.127
				c0.386,0,0.899,0.206,1.541,0.618l0.719-2.322c-0.672-0.506-1.247-0.759-1.726-0.759
				C350.4,532.726,349.521,533.579,348.769,535.285z M360.634,534.019c-0.814-0.862-1.857-1.293-3.13-1.293
				c-1.268,0-2.31,0.409-3.126,1.228c-0.817,0.819-1.227,1.865-1.227,3.138c0,1.297,0.435,2.338,1.305,3.125
				c0.87,0.786,2.032,1.18,3.485,1.18c1.465,0,2.694-0.365,3.687-1.095v-1.651c-1.068,0.795-2.09,1.192-3.064,1.192
				c-0.806,0-1.448-0.204-1.927-0.611c-0.479-0.408-0.744-0.99-0.797-1.746h5.938C361.829,536.036,361.448,534.881,360.634,534.019z
				 M355.893,536.106c0.128-1.212,0.727-1.818,1.795-1.818c1.057,0,1.655,0.606,1.795,1.818H355.893z"/>
		</g>
	</g>
</g>
<g id="Our_Business_Model_1_" enable-background="new    ">
	<g id="Our_Business_Model">
		<g>
			<path fill="#FFFFFF" d="M609.884,423.208c-2.09,0-3.781,0.633-5.074,1.898c-1.294,1.266-1.94,2.743-1.94,4.433
				c0,1.719,0.651,3.202,1.953,4.449c1.302,1.248,2.989,1.872,5.062,1.872c2.049,0,3.728-0.627,5.035-1.881
				c1.308-1.253,1.961-2.733,1.961-4.44c0-1.684-0.645-3.159-1.935-4.428C613.654,423.843,611.968,423.208,609.884,423.208z
				 M612.677,432.263c-0.706,0.691-1.638,1.037-2.793,1.037c-1.162,0-2.098-0.346-2.807-1.037s-1.063-1.6-1.063-2.724
				c0-1.131,0.354-2.04,1.063-2.729s1.645-1.033,2.807-1.033c1.155,0,2.087,0.345,2.793,1.033s1.06,1.598,1.06,2.729
				C613.736,430.663,613.383,431.571,612.677,432.263z M624.302,432.675c0,0.183-0.174,0.466-0.521,0.852
				c-0.347,0.385-0.766,0.577-1.256,0.577c-0.87,0-1.305-0.529-1.305-1.587v-5.149h-2.602v5.332c0,0.989,0.28,1.764,0.841,2.322
				c0.561,0.56,1.29,0.839,2.189,0.839c1.016,0,1.906-0.45,2.671-1.351v1.191h2.601v-8.334h-2.618V432.675z M633.702,429.653
				c0.385,0,0.898,0.206,1.541,0.618l0.718-2.322c-0.671-0.506-1.246-0.759-1.725-0.759c-1.004,0-1.883,0.854-2.636,2.561h-0.035
				v-2.384h-2.601v8.334h2.601v-3.607c0-0.123,0.206-0.562,0.617-1.312C632.595,430.029,633.101,429.653,633.702,429.653z
				 M651.023,434.694c0.729-0.672,1.094-1.543,1.094-2.615c0-0.754-0.223-1.413-0.669-1.979c-0.447-0.565-1.091-0.96-1.932-1.185
				c1.115-0.57,1.673-1.391,1.673-2.461c0-0.835-0.36-1.559-1.081-2.17c-0.722-0.612-1.712-0.918-2.974-0.918h-5.289v12.334h5.955
				C649.219,435.701,650.293,435.366,651.023,434.694z M644.894,425.627h1.594c0.49,0,0.872,0.124,1.147,0.371
				c0.273,0.247,0.411,0.56,0.411,0.937c0,0.382-0.138,0.7-0.411,0.953c-0.275,0.253-0.657,0.38-1.147,0.38h-1.594V425.627z
				 M644.894,433.441v-2.914h2.137c0.566,0,1.019,0.125,1.357,0.376c0.338,0.25,0.508,0.59,0.508,1.02
				c0,0.559-0.179,0.952-0.534,1.179c-0.356,0.227-0.94,0.34-1.752,0.34H644.894z M659.601,435.701h2.601v-8.334h-2.618v5.308
				c0,0.183-0.174,0.466-0.521,0.852c-0.347,0.385-0.766,0.577-1.256,0.577c-0.87,0-1.305-0.529-1.305-1.587v-5.149h-2.602v5.332
				c0,0.989,0.28,1.764,0.841,2.322c0.561,0.56,1.29,0.839,2.189,0.839c1.016,0,1.906-0.45,2.671-1.351V435.701z M670.271,433.147
				c0-0.548-0.181-1.052-0.543-1.512c-0.362-0.459-0.98-0.865-1.855-1.217c-0.876-0.352-1.379-0.581-1.511-0.69
				s-0.197-0.22-0.197-0.331c0-0.43,0.312-0.645,0.937-0.645c0.847,0,1.766,0.306,2.759,0.918v-1.862
				c-0.795-0.412-1.685-0.618-2.671-0.618c-1.027,0-1.855,0.238-2.482,0.716c-0.628,0.478-0.941,1.096-0.941,1.855
				c0,0.513,0.163,0.979,0.49,1.396c0.327,0.419,0.934,0.803,1.82,1.152c0.886,0.35,1.407,0.596,1.562,0.736s0.233,0.29,0.233,0.449
				c0,0.411-0.42,0.616-1.261,0.616c-0.718,0-1.608-0.235-2.671-0.706v1.845c0.864,0.406,1.851,0.609,2.96,0.609
				c1.08,0,1.911-0.235,2.495-0.707C669.979,434.683,670.271,434.014,670.271,433.147z M672.989,426.104
				c0.397,0,0.736-0.143,1.017-0.429c0.279-0.285,0.42-0.625,0.42-1.02c0-0.4-0.141-0.741-0.42-1.024
				c-0.28-0.282-0.619-0.424-1.017-0.424c-0.391,0-0.727,0.142-1.007,0.424c-0.28,0.283-0.42,0.624-0.42,1.024
				c0,0.395,0.14,0.734,0.42,1.02C672.263,425.962,672.599,426.104,672.989,426.104z M671.702,435.701h2.601v-8.334h-2.601V435.701z
				 M681.619,427.19c-1.027,0-1.923,0.453-2.688,1.359v-1.183h-2.602v8.334h2.602v-5.377c0.595-0.918,1.199-1.377,1.812-1.377
				c0.857,0,1.287,0.557,1.287,1.671v5.083h2.601v-5.303c0-1.031-0.288-1.823-0.862-2.378
				C683.194,427.467,682.478,427.19,681.619,427.19z M693.678,428.483c-0.814-0.862-1.858-1.293-3.131-1.293
				c-1.267,0-2.309,0.409-3.126,1.229c-0.817,0.818-1.226,1.864-1.226,3.138c0,1.296,0.435,2.338,1.305,3.124
				c0.869,0.786,2.031,1.18,3.484,1.18c1.466,0,2.694-0.365,3.688-1.095v-1.651c-1.068,0.795-2.091,1.192-3.065,1.192
				c-0.806,0-1.447-0.204-1.927-0.611c-0.479-0.408-0.744-0.99-0.797-1.746h5.938C694.873,430.501,694.492,429.346,693.678,428.483z
				 M688.936,430.572c0.129-1.213,0.728-1.819,1.795-1.819c1.057,0,1.655,0.606,1.796,1.819H688.936z M700.019,430.419
				c-0.876-0.352-1.379-0.581-1.511-0.69s-0.198-0.22-0.198-0.331c0-0.43,0.312-0.645,0.938-0.645c0.847,0,1.766,0.306,2.758,0.918
				v-1.862c-0.794-0.412-1.684-0.618-2.67-0.618c-1.028,0-1.855,0.238-2.483,0.716c-0.627,0.478-0.94,1.096-0.94,1.855
				c0,0.513,0.163,0.979,0.49,1.396c0.326,0.419,0.934,0.803,1.82,1.152c0.886,0.35,1.407,0.596,1.562,0.736s0.233,0.29,0.233,0.449
				c0,0.411-0.42,0.616-1.261,0.616c-0.718,0-1.608-0.235-2.671-0.706v1.845c0.863,0.406,1.851,0.609,2.96,0.609
				c1.079,0,1.911-0.235,2.495-0.707c0.584-0.471,0.876-1.14,0.876-2.006c0-0.548-0.181-1.052-0.543-1.512
				C701.512,431.177,700.894,430.771,700.019,430.419z M709.348,431.636c-0.361-0.459-0.98-0.865-1.855-1.217
				s-1.379-0.581-1.511-0.69s-0.197-0.22-0.197-0.331c0-0.43,0.312-0.645,0.937-0.645c0.847,0,1.766,0.306,2.759,0.918v-1.862
				c-0.794-0.412-1.685-0.618-2.671-0.618c-1.027,0-1.855,0.238-2.482,0.716c-0.628,0.478-0.941,1.096-0.941,1.855
				c0,0.513,0.163,0.979,0.49,1.396c0.327,0.419,0.934,0.803,1.82,1.152s1.407,0.596,1.562,0.736
				c0.156,0.141,0.233,0.29,0.233,0.449c0,0.411-0.42,0.616-1.261,0.616c-0.718,0-1.608-0.235-2.671-0.706v1.845
				c0.864,0.406,1.851,0.609,2.96,0.609c1.08,0,1.912-0.235,2.496-0.707c0.583-0.471,0.875-1.14,0.875-2.006
				C709.891,432.6,709.71,432.096,709.348,431.636z M638.639,445.925l-3.935-4.574h-2.646v12.335h3.047v-7.699l3.305,3.867h0.457
				l3.305-3.867v7.699h3.048v-12.335h-2.649L638.639,445.925z M651.722,445.174c-1.337,0-2.45,0.396-3.341,1.185
				c-0.891,0.79-1.335,1.838-1.335,3.146c0,1.284,0.436,2.329,1.309,3.133c0.873,0.805,1.995,1.207,3.367,1.207
				c1.267,0,2.358-0.378,3.274-1.132c0.917-0.754,1.375-1.817,1.375-3.19c0-1.367-0.451-2.434-1.353-3.199
				C654.116,445.558,653.018,445.174,651.722,445.174z M651.722,452.29c-1.267,0-1.9-0.928-1.9-2.785
				c0-0.891,0.168-1.574,0.504-2.052c0.335-0.478,0.801-0.716,1.396-0.716c1.243,0,1.865,0.904,1.865,2.714
				C653.587,451.344,652.965,452.29,651.722,452.29z M663.652,445.704c-0.706-0.354-1.424-0.53-2.154-0.53
				c-1.173,0-2.135,0.404-2.885,1.211c-0.75,0.808-1.125,1.848-1.125,3.12c0,1.243,0.369,2.277,1.107,3.103
				c0.738,0.824,1.659,1.237,2.763,1.237c0.864,0,1.629-0.277,2.294-0.83v0.671h2.601v-12.335h-2.601V445.704z M663.652,451.398
				c-0.496,0.459-1.01,0.688-1.541,0.688c-0.602,0-1.083-0.23-1.444-0.692c-0.362-0.462-0.543-1.076-0.543-1.841
				c0-0.83,0.182-1.475,0.547-1.934c0.365-0.46,0.874-0.689,1.528-0.689c0.496,0,0.98,0.162,1.453,0.486V451.398z M675.281,446.468
				c-0.814-0.862-1.857-1.294-3.13-1.294c-1.268,0-2.31,0.41-3.126,1.229c-0.817,0.819-1.227,1.865-1.227,3.138
				c0,1.297,0.436,2.338,1.305,3.124c0.87,0.787,2.032,1.181,3.485,1.181c1.466,0,2.694-0.365,3.687-1.095v-1.651
				c-1.068,0.795-2.09,1.191-3.064,1.191c-0.806,0-1.448-0.203-1.927-0.611c-0.479-0.407-0.744-0.989-0.797-1.746h5.937
				C676.477,448.485,676.096,447.33,675.281,446.468z M670.54,448.556c0.128-1.213,0.727-1.818,1.795-1.818
				c1.057,0,1.655,0.605,1.795,1.818H670.54z M677.979,453.686h2.601v-12.335h-2.601V453.686z"/>
		</g>
	</g>
</g>
</svg>
