<?xml version="1.0" encoding="utf-8"?>
<!-- Generator: Adobe Illustrator 16.0.0, SVG Export Plug-In . SVG Version: 6.00 Build 0)  -->
<!DOCTYPE svg PUBLIC "-//W3C//DTD SVG 1.1//EN" "http://www.w3.org/Graphics/SVG/1.1/DTD/svg11.dtd">
<svg version="1.1" xmlns="http://www.w3.org/2000/svg" xmlns:xlink="http://www.w3.org/1999/xlink" x="0px" y="0px" width="317px"
	 height="502px" viewBox="0 0 317 502" enable-background="new 0 0 317 502" xml:space="preserve">
<g id="balloon_1_">
	<g id="Ellipse_4">
		<g>
			<ellipse fill="#FFFFFF" cx="158.064" cy="157.995" rx="155.192" ry="155.123"/>
		</g>
	</g>
	<g id="Ellipse_13">
		<g>
			<ellipse fill="#04A2DD" cx="166.503" cy="445.509" rx="40.512" ry="8.494"/>
		</g>
	</g>
	<g id="Rectangle_3_copy_4">
		<g>
			<path fill="#FFFFFF" d="M164.167,458.655h1.744v-72.333h-1.744V458.655z M150.218,452.555h1.743v-72.333h-1.743V452.555z
				 M181.604,380.222v72.333h1.744v-72.333H181.604z M178.117,456.041h1.744v-72.333h-1.744V456.041z"/>
		</g>
	</g>
	<g id="Shape_10">
		<g>
			<path fill="#EC008C" d="M71.015,289.62c-1.206-1.139-1.881-1.774-1.881-1.774S69.641,288.526,71.015,289.62z M166.783,305.274
				c-67.646,1.521-89.824-10.926-95.768-15.654c8.761,8.274,45.771,43.374,59.149,58.357c15.22,17.046,16.566,30.501,16.566,30.501
				s11.273,7.452,20.925,7.844c10.559,0.428,17.437-7.844,17.437-7.844s-3.089,3.142,6.104-27.016
				c9.467-31.058,56.671-64.489,56.671-64.489S223.79,303.993,166.783,305.274z"/>
		</g>
	</g>
	<g id="Ellipse_16_copy">
		<g>
			<path fill="#F6D1B3" d="M149.5,426c-4.694,0-8.5,5.82-8.5,13s3.806,13,8.5,13s8.5-5.82,8.5-13S154.194,426,149.5,426z M181.5,431
				c-4.694,0-8.5,4.478-8.5,10s3.806,10,8.5,10s8.5-4.478,8.5-10S186.194,431,181.5,431z"/>
		</g>
	</g>
	<g id="Shape_24">
		<g>
			<path fill="#ED145B" d="M180.193,446.188c-1.561-0.208-2.12-0.473-2.12-0.473v0.314c0,0,1.309,1.706,2.574,1.732
				c0.807,0.016,1.465,0.403,2.877-1.26c0.202-0.239,0.303-0.787,0.303-0.787S181.754,446.395,180.193,446.188z M147.188,445.715
				c0,0,0.1,0.548,0.303,0.787c1.412,1.663,2.069,1.275,2.876,1.26c1.266-0.026,2.574-1.732,2.574-1.732v-0.314
				c0,0-0.56,0.265-2.12,0.473C149.261,446.395,147.188,445.715,147.188,445.715z"/>
		</g>
	</g>
	<g id="Shape_34">
		<g>
			<path fill="#603913" d="M155,422c-4.515-1.659-10-2-10-2s-4.062,1.039-6,7s1,12,1,12l2-6c0,0,14.829,5.838,17,6s3,0,3,0
				S159.515,423.659,155,422z M193,435c-0.391-7.607-6-11-6-11s-3.868-4.511-11,0c-7.132,4.512-7,29-7,29s3.97-9.428,5-13s12-7,12-7
				s2.45,2.921,3,6c0.658,3.684,3,11,3,11S193.172,438.35,193,435z"/>
		</g>
	</g>
	<g id="Rounded_Rectangle_2_copy">
		<g>
			<path d="M147,439h-1c-0.553,0-1,0.447-1,1s0.447,1,1,1h1c0.553,0,1-0.447,1-1S147.553,439,147,439z M154,439h-1
				c-0.553,0-1,0.447-1,1s0.447,1,1,1h1c0.553,0,1-0.447,1-1S154.553,439,154,439z M185,439h-1c-0.553,0-1,0.447-1,1s0.447,1,1,1h1
				c0.553,0,1-0.447,1-1S185.553,439,185,439z M178,439h-1c-0.553,0-1,0.447-1,1s0.447,1,1,1h1c0.553,0,1-0.447,1-1
				S178.553,439,178,439z"/>
		</g>
	</g>
	<g id="Shape_11">
		<g>
			<path fill="#8781BD" d="M178.117,257.344c-83.757,3.854-142.442-24.205-165.392-37.602
				c23.946,55.397,79.807,94.247,144.902,94.247c43.91,0,83.612-17.683,112.158-46.191l27.364-36.894
				c1.679-3.155,3.25-6.375,4.709-9.653C284.096,235.702,248.037,254.126,178.117,257.344z"/>
		</g>
	</g>
	<g id="Shape_11_copy">
		<g>
			<path fill="#00AEEF" d="M297.149,85.085l-27.363-36.894C241.24,19.684,201.538,2,157.628,2C87.807,2,28.617,46.699,8.032,108.568
				c14.916,11.948,59.346,39.27,153.52,38.969c88.853-0.284,132.393-19.917,148.472-29.59
				C306.998,106.416,302.646,95.41,297.149,85.085z"/>
		</g>
	</g>
	<g id="Shape_33_copy_3" opacity="0.702">
		<g>
			<path fill="#E6E6E6" d="M31.915,144.934c8.518-96.197,82.034-131.746,82.034-131.746s-80.508,30.66-86.62,131.727
				c-6.338,104.793,77.384,159.942,77.384,159.942S23.515,239.809,31.915,144.934z M100.452,135.119
				c5.688-96.79,54.836-130.253,54.836-130.253S101.365,33.61,97.191,135.135c-4.695,114.2,59.521,179.729,59.521,179.729
				S94.391,238.25,100.452,135.119z M299.671,142.269C293.554,43.855,212.988,14,212.988,14s73.569,34.616,82.093,128.288
				c8.406,92.385-72.851,155.725-72.851,155.725S306.014,244.311,299.671,142.269z M232.809,135.135
				C228.636,33.61,174.712,4.866,174.712,4.866s49.147,33.463,54.836,130.253c6.062,103.131-56.26,179.744-56.26,179.744
				S237.503,249.335,232.809,135.135z"/>
		</g>
	</g>
	<g id="Ellipse_15">
		<g>
			<ellipse fill="#FFFFFF" cx="161.5" cy="15" rx="41.5" ry="9"/>
		</g>
	</g>
	<g id="Shape_12" opacity="0.2196">
		<g>
			<path d="M108.368,293.074c-34.888-43.625-40.542-44.915-60.159-86.276s23.104-67.077,42.722-108.063
				c15.542-32.474,9.451-58.16,1.744-62.746c-15.667-9.323-38.389-10.432-68.006,38.345C6.431,104.368-0.092,159.608,4.616,180.653
				c3.042,13.598,8.997,48.642,25.284,67.976c16.287,19.333,7.412,9.725,11.334,13.943c20.653,22.217,27.2,24.211,33.131,29.63
				c5.931,5.42,56.886,56.724,61.902,61.875s10.463,22.659,10.463,22.659s4.447,2.019,9.59-11.33
				C161.463,352.059,143.256,336.699,108.368,293.074z"/>
		</g>
	</g>
	<g id="Ellipse_10">
		<g>
			<path fill="#EB1D5D" d="M165.676,451.471c-15.388,0-29.484-2.458-40.435-6.537c-0.764,3.172-1.18,6.479-1.18,9.884
				c0,23.292,18.932,42.174,42.285,42.174s42.286-18.882,42.286-42.174c0-3.575-0.45-7.044-1.29-10.359
				C196.228,448.819,181.65,451.471,165.676,451.471z"/>
		</g>
	</g>
	<g id="Shape_24_1_">
		<g>
			<path fill="#F86494" d="M204.605,450.132l-8.185,2.295c0,0,2.299,12.984-10.522,27.542c-3.748,4.256-20.223,11.667-20.223,11.667
				c19.364-3.756,13.695-2.305,22.561-7.077C206.379,474.795,204.605,450.132,204.605,450.132z"/>
		</g>
	</g>
	<g id="Ellipse_7_copy">
		<g>
			<ellipse fill="#FFFFFF" cx="150.238" cy="466.867" rx="8.724" ry="8.701"/>
		</g>
	</g>
	<g id="Ellipse_7_copy_2">
		<g>
			<ellipse fill="#ED145B" cx="149.567" cy="466.198" rx="5.369" ry="5.354"/>
		</g>
	</g>
	<g id="Ellipse_7_copy_3">
		<g>
			<ellipse fill="#FFFFFF" cx="149.567" cy="466.198" rx="2.685" ry="2.677"/>
		</g>
	</g>
</g>
<g id="Ellipse_14_1_" enable-background="new    ">
	<g id="Ellipse_14">
		<g>
			<ellipse fill="#ED1C24" cx="187" cy="160.5" rx="50" ry="48.5"/>
		</g>
	</g>
</g>
<g id="Ellipse_14_copy_2_1_" enable-background="new    ">
	<g id="Ellipse_14_copy_2">
		<g>
			<ellipse fill="#FFFFFF" cx="192" cy="155.483" rx="40" ry="38.465"/>
		</g>
	</g>
</g>
<g id="Ellipse_14_copy_1_" enable-background="new    ">
	<g id="Ellipse_14_copy">
		<g>
			<ellipse fill="#ED1C24" cx="197.833" cy="150.465" rx="29.166" ry="28.431"/>
		</g>
	</g>
</g>
<g id="DORINKU_1_" enable-background="new    ">
	<g id="DORINKU">
		<g>
			<path d="M124.597,219.959c-1.295-1.385-2.824-2.572-4.596-3.526c-1.771-0.954-3.71-1.642-5.824-2.019
				c-2.732-0.487-5.463-1.007-8.194-1.557c-0.053,11.528,1.25,18.753,0.08,27.772c3.044,0.337,6.087,0.651,9.131,0.942
				c2.17,0.207,4.143,0.026,5.888-0.513s3.223-1.339,4.412-2.382c1.189-1.045,2.081-2.296,2.667-3.765s0.845-3.063,0.787-4.825
				c-0.065-1.962-0.492-3.788-1.258-5.491C126.923,222.896,125.892,221.343,124.597,219.959z M122.267,233.78
				c-0.402,1.203-0.98,2.196-1.724,2.985s-1.614,1.364-2.596,1.719c-0.982,0.354-2.021,0.48-3.108,0.367
				c-0.981-0.101-1.962-0.205-2.943-0.312c0.494-6.856-0.201-13.045-0.343-21.337c0.981,0.165,1.963,0.326,2.944,0.483
				c1.147,0.183,2.213,0.653,3.201,1.385c0.987,0.731,1.845,1.651,2.579,2.734c0.733,1.084,1.322,2.291,1.765,3.608
				c0.442,1.319,0.693,2.687,0.743,4.111C122.841,231.17,122.669,232.576,122.267,233.78z M154.212,222.528
				c-1.182-1.238-2.566-2.271-4.157-3.082c-1.592-0.812-3.294-1.315-5.113-1.483c-1.835-0.171-3.54,0.016-5.111,0.57
				c-1.571,0.553-2.929,1.413-4.062,2.556s-2.006,2.526-2.615,4.114c-0.61,1.59-0.873,3.338-0.812,5.237
				c0.062,1.934,0.43,3.694,1.099,5.32c0.668,1.624,1.552,3.049,2.671,4.275c1.119,1.226,2.438,2.212,3.98,2.942
				c1.542,0.731,3.231,1.135,5.072,1.208c1.824,0.072,3.551-0.186,5.163-0.759c1.611-0.573,3.013-1.409,4.188-2.496
				s2.093-2.396,2.745-3.931c0.652-1.535,0.954-3.244,0.909-5.156c-0.042-1.8-0.42-3.487-1.126-5.075
				C156.337,225.183,155.393,223.767,154.212,222.528z M151.638,235.934c-0.279,1.283-0.709,2.391-1.283,3.325
				s-1.294,1.657-2.148,2.16c-0.855,0.504-1.84,0.736-2.946,0.688c-1.122-0.049-2.092-0.366-2.913-0.949
				c-0.823-0.582-1.508-1.377-2.067-2.377c-0.561-1-0.985-2.164-1.286-3.495c-0.301-1.333-0.476-2.78-0.523-4.363
				c-0.046-1.551,0.046-2.992,0.29-4.324c0.242-1.331,0.639-2.49,1.189-3.458c0.55-0.969,1.244-1.713,2.076-2.215
				c0.832-0.504,1.81-0.708,2.933-0.614c1.106,0.092,2.084,0.457,2.935,1.083s1.57,1.457,2.161,2.478
				c0.59,1.021,1.052,2.203,1.383,3.535c0.332,1.333,0.521,2.758,0.56,4.278C152.035,233.239,151.917,234.648,151.638,235.934z
				 M176.797,231.65c0.632-0.408,1.172-0.872,1.62-1.391s0.794-1.085,1.036-1.699s0.359-1.26,0.35-1.938
				c-0.012-0.954-0.206-1.84-0.58-2.656c-0.375-0.816-0.936-1.523-1.681-2.119s-1.672-1.068-2.78-1.417
				c-1.109-0.349-2.404-0.531-3.884-0.549c-2.86-0.033-5.718-0.104-8.571-0.213c0.047,8.815,0.475,16.318,0.257,24.374
				c1.863,0.01,3.727,0.008,5.59-0.005c0.073-3.622,0.038-7.144-0.026-10.717h0.978c2.605,3.566,5.168,7.044,7.678,10.575
				c2.024-0.053,4.05-0.119,6.076-0.2c-2.683-3.683-5.405-7.309-8.165-11.037C175.464,232.395,176.165,232.058,176.797,231.65z
				 M173.644,228.692c-0.233,0.541-0.56,1.001-0.979,1.379c-0.419,0.379-0.914,0.67-1.487,0.871
				c-0.573,0.202-1.201,0.304-1.885,0.304c-0.402,0-0.804,0-1.206-0.001c-0.059-2.891-0.126-5.833-0.161-8.909
				c0.754,0.012,1.508,0.021,2.263,0.027c0.549,0.004,1.049,0.122,1.502,0.351c0.451,0.229,0.848,0.544,1.188,0.943
				c0.34,0.399,0.605,0.871,0.797,1.413c0.19,0.542,0.291,1.131,0.301,1.765C173.988,227.534,173.877,228.152,173.644,228.692z
				 M185.417,219.726c0.005,8.428,0.205,15.941,0.184,23.852c1.858-0.087,3.718-0.185,5.578-0.296
				c-0.013-7.893-0.164-15.399-0.148-23.792C189.157,219.585,187.286,219.663,185.417,219.726z M213.687,217.534
				c-0.088,5.378-0.138,10.345-0.133,15.279c-4.345-4.429-8.68-8.972-13.021-13.947c-1.209,0.098-2.417,0.188-3.625,0.271
				c-0.04,8.377,0.06,15.872,0.104,23.756c1.183-0.087,2.365-0.179,3.548-0.276c-0.043-5.416-0.089-10.644-0.095-16.104
				c4.745,5.203,9.453,10.05,14.261,15.044c0.803-0.095,1.606-0.192,2.409-0.292c-0.135-8.043-0.061-15.56,0.106-24.187
				C216.056,217.237,214.87,217.389,213.687,217.534z M243.501,212.478c-1.49,0.324-2.978,0.637-4.465,0.938
				c-3.597,4.049-7.128,7.728-10.597,11.264c0.062-2.992,0.147-6.07,0.246-9.334c-1.916,0.325-3.83,0.633-5.741,0.922
				c-0.21,8.579-0.335,15.971-0.191,23.901c1.883-0.262,3.767-0.538,5.651-0.829c-0.068-3.408-0.074-6.707-0.038-10.046
				c3.567,2.775,7.15,5.449,10.826,8.224c2.271-0.417,4.545-0.856,6.819-1.317c-4.964-3.667-9.741-7.136-14.52-10.899
				C235.41,221.302,239.411,217.142,243.501,212.478z M266.235,206.714c-0.469,6.282-0.882,11.43-1.058,16.506
				c-0.032,0.918-0.193,1.812-0.485,2.687c-0.292,0.873-0.691,1.681-1.201,2.419c-0.511,0.739-1.129,1.381-1.857,1.92
				c-0.729,0.538-1.539,0.918-2.433,1.135c-0.909,0.222-1.732,0.239-2.467,0.059c-0.735-0.181-1.362-0.516-1.878-1
				c-0.517-0.484-0.911-1.093-1.18-1.825s-0.394-1.553-0.371-2.466c0.121-5.044,0.431-10.145,0.785-16.149
				c-1.932,0.485-3.859,0.951-5.785,1.399c-0.305,5.87-0.568,10.938-0.668,15.954c-0.023,1.224,0.187,2.328,0.629,3.32
				c0.442,0.991,1.108,1.81,1.995,2.451s1.98,1.069,3.277,1.271s2.794,0.11,4.488-0.291c1.896-0.448,3.51-1.097,4.847-1.933
				c1.336-0.836,2.429-1.794,3.284-2.859c0.855-1.064,1.487-2.206,1.903-3.415s0.647-2.42,0.694-3.642
				c0.193-5.087,0.641-10.25,1.147-16.625C268.68,205.998,267.457,206.359,266.235,206.714z"/>
		</g>
	</g>
</g>
</svg>
