<?xml version="1.0" encoding="utf-8"?>
<!-- Generator: Adobe Illustrator 16.0.0, SVG Export Plug-In . SVG Version: 6.00 Build 0)  -->
<!DOCTYPE svg PUBLIC "-//W3C//DTD SVG 1.1//EN" "http://www.w3.org/Graphics/SVG/1.1/DTD/svg11.dtd">
<svg version="1.1" id="EYE_1_" xmlns="http://www.w3.org/2000/svg" xmlns:xlink="http://www.w3.org/1999/xlink" x="0px" y="0px"
	 width="250px" height="250px" viewBox="0 0 250 250" enable-background="new 0 0 250 250" xml:space="preserve">
<line fill="none" stroke="#FFFFFF" stroke-width="2" stroke-miterlimit="10" x1="124.75" y1="125" x2="124.75" y2="50.003"/>
<line fill="none" stroke="#FFFFFF" stroke-width="2" stroke-miterlimit="10" x1="124.75" y1="125" x2="87.252" y2="60.051"/>
<line fill="none" stroke="#FFFFFF" stroke-width="2" stroke-miterlimit="10" x1="124.75" y1="125" x2="59.801" y2="87.501"/>
<line fill="none" stroke="#FFFFFF" stroke-width="2" stroke-miterlimit="10" x1="124.75" y1="125" x2="49.753" y2="125"/>
<line fill="none" stroke="#FFFFFF" stroke-width="2" stroke-miterlimit="10" x1="124.75" y1="125" x2="59.801" y2="162.498"/>
<line fill="none" stroke="#FFFFFF" stroke-width="2" stroke-miterlimit="10" x1="124.75" y1="125" x2="87.251" y2="189.949"/>
<line fill="none" stroke="#FFFFFF" stroke-width="2" stroke-miterlimit="10" x1="124.75" y1="125" x2="124.75" y2="199.997"/>
<line fill="none" stroke="#FFFFFF" stroke-width="2" stroke-miterlimit="10" x1="124.75" y1="125" x2="162.248" y2="189.949"/>
<line fill="none" stroke="#FFFFFF" stroke-width="2" stroke-miterlimit="10" x1="124.75" y1="125" x2="189.699" y2="162.498"/>
<line fill="none" stroke="#FFFFFF" stroke-width="2" stroke-miterlimit="10" x1="124.75" y1="125" x2="199.746" y2="125"/>
<line fill="none" stroke="#FFFFFF" stroke-width="2" stroke-miterlimit="10" x1="124.75" y1="125" x2="189.698" y2="87.501"/>
<line fill="none" stroke="#FFFFFF" stroke-width="2" stroke-miterlimit="10" x1="124.75" y1="125" x2="162.247" y2="60.051"/>
<g id="Ellipse_9">
	<g>
		<ellipse fill="none" stroke="#448CCB" stroke-width="7.5" stroke-miterlimit="10" cx="125" cy="124.23" rx="107" ry="107.197"/>
	</g>
</g>
<g id="Ellipse_9_copy">
	<g>
		<ellipse fill="none" stroke="#A186BE" stroke-width="26" stroke-miterlimit="10" cx="125" cy="124.23" rx="90" ry="90.166"/>
	</g>
</g>
<g id="Ellipse_9_copy_4">
	<g>
		
			<ellipse fill="none" stroke="#FFFFFF" stroke-width="3" stroke-miterlimit="10" cx="124.75" cy="123.981" rx="102.75" ry="102.939"/>
	</g>
</g>
<g id="Shape_19_copy">
	<g>
		<ellipse fill="#FFFFFF" cx="125.5" cy="124.491" rx="52.5" ry="52.506"/>
	</g>
</g>
<ellipse fill="none" stroke="#FFFFFF" stroke-width="7" stroke-miterlimit="10" cx="125" cy="125" rx="74.68" ry="75.938"/>
<g id="Shape_19">
	<g>
		<ellipse fill="#EB1D5D" cx="125.5" cy="124.227" rx="45" ry="45.083"/>
	</g>
</g>
<g id="Ellipse_7">
	<g>
		<ellipse fill="#FFFFFF" cx="129.52" cy="118.591" rx="31.34" ry="31.397"/>
	</g>
</g>
<g id="Ellipse_8">
	<g>
		<ellipse fill="#EB1D5D" cx="135.505" cy="110.502" rx="20.495" ry="20.495"/>
	</g>
</g>
<g id="Group_2_1_">
	<g id="Ellipse_8_copy">
		<g>
			<circle fill="#EB1D5D" cx="125.004" cy="29.002" r="15.996"/>
		</g>
		<g>
			<circle fill="none" stroke="#FFFFFF" stroke-miterlimit="10" cx="125.004" cy="29.002" r="15.996"/>
		</g>
	</g>
	<g id="Ellipse_8_copy_2">
		<g>
			<circle fill="#04A2DD" cx="125.002" cy="29.001" r="7.998"/>
		</g>
		<g>
			<circle fill="none" stroke="#FFFFFF" stroke-miterlimit="10" cx="125.002" cy="29.001" r="7.998"/>
		</g>
	</g>
	<g id="Ellipse_8_copy_4">
		<g>
			<circle fill="#CFF2FB" cx="125.001" cy="29" r="2"/>
		</g>
	</g>
</g>
<g id="Group_2_copy_1_">
	<g id="Ellipse_8_copy_1_">
		<g>
			<circle fill="#EB1D5D" cx="125.004" cy="219.002" r="15.996"/>
		</g>
		<g>
			<circle fill="none" stroke="#FFFFFF" stroke-miterlimit="10" cx="125.004" cy="219.002" r="15.996"/>
		</g>
	</g>
	<g id="Ellipse_8_copy_2_1_">
		<g>
			<circle fill="#04A2DD" cx="125.002" cy="219.001" r="7.998"/>
		</g>
		<g>
			<circle fill="none" stroke="#FFFFFF" stroke-miterlimit="10" cx="125.002" cy="219.001" r="7.998"/>
		</g>
	</g>
	<g id="Ellipse_8_copy_4_1_">
		<g>
			<circle fill="#CFF2FB" cx="125.001" cy="219" r="2"/>
		</g>
	</g>
</g>
<g id="Group_2_copy_2_1_">
	<g id="Ellipse_8_copy_2_">
		<g>
			<circle fill="#EB1D5D" cx="30.003" cy="120.002" r="15.996"/>
		</g>
		<g>
			<circle fill="none" stroke="#FFFFFF" stroke-miterlimit="10" cx="30.003" cy="120.002" r="15.996"/>
		</g>
	</g>
	<g id="Ellipse_8_copy_2_2_">
		<g>
			<circle fill="#04A2DD" cx="30.002" cy="120.001" r="7.998"/>
		</g>
		<g>
			<circle fill="none" stroke="#FFFFFF" stroke-miterlimit="10" cx="30.002" cy="120.001" r="7.998"/>
		</g>
	</g>
	<g id="Ellipse_8_copy_4_2_">
		<g>
			<circle fill="#CFF2FB" cx="30" cy="120" r="2"/>
		</g>
	</g>
</g>
<g id="Group_2_copy_3_1_">
	<g id="Ellipse_8_copy_3_">
		<g>
			<circle fill="#EB1D5D" cx="220.004" cy="120.002" r="15.996"/>
		</g>
		<g>
			<circle fill="none" stroke="#FFFFFF" stroke-miterlimit="10" cx="220.004" cy="120.002" r="15.996"/>
		</g>
	</g>
	<g id="Ellipse_8_copy_2_3_">
		<g>
			<circle fill="#04A2DD" cx="220.002" cy="120.001" r="7.998"/>
		</g>
		<g>
			<circle fill="none" stroke="#FFFFFF" stroke-miterlimit="10" cx="220.002" cy="120.001" r="7.998"/>
		</g>
	</g>
	<g id="Ellipse_8_copy_4_3_">
		<g>
			<circle fill="#CFF2FB" cx="220" cy="120" r="2"/>
		</g>
	</g>
</g>
<g id="Group_2_copy_4_1_">
	<g id="Ellipse_8_copy_4_">
		<g>
			<circle fill="#EB1D5D" cx="192.004" cy="191.002" r="15.996"/>
		</g>
		<g>
			<circle fill="none" stroke="#FFFFFF" stroke-miterlimit="10" cx="192.004" cy="191.002" r="15.996"/>
		</g>
	</g>
	<g id="Ellipse_8_copy_2_4_">
		<g>
			<circle fill="#04A2DD" cx="192.002" cy="191.001" r="7.998"/>
		</g>
		<g>
			<circle fill="none" stroke="#FFFFFF" stroke-miterlimit="10" cx="192.002" cy="191.001" r="7.998"/>
		</g>
	</g>
	<g id="Ellipse_8_copy_4_4_">
		<g>
			<circle fill="#CFF2FB" cx="192.001" cy="191" r="2"/>
		</g>
	</g>
</g>
<g id="Group_2_copy_5_1_">
	<g id="Ellipse_8_copy_5_">
		<g>
			<circle fill="#EB1D5D" cx="192.004" cy="58.002" r="15.996"/>
		</g>
		<g>
			<circle fill="none" stroke="#FFFFFF" stroke-miterlimit="10" cx="192.004" cy="58.002" r="15.996"/>
		</g>
	</g>
	<g id="Ellipse_8_copy_2_5_">
		<g>
			<circle fill="#04A2DD" cx="192.002" cy="58.001" r="7.998"/>
		</g>
		<g>
			<circle fill="none" stroke="#FFFFFF" stroke-miterlimit="10" cx="192.002" cy="58.001" r="7.998"/>
		</g>
	</g>
	<g id="Ellipse_8_copy_4_5_">
		<g>
			<circle fill="#CFF2FB" cx="192.001" cy="58" r="2"/>
		</g>
	</g>
</g>
<g id="Group_2_copy_6_1_">
	<g id="Ellipse_8_copy_6_">
		<g>
			<circle fill="#EB1D5D" cx="58.003" cy="58.002" r="15.996"/>
		</g>
		<g>
			<circle fill="none" stroke="#FFFFFF" stroke-miterlimit="10" cx="58.003" cy="58.002" r="15.996"/>
		</g>
	</g>
	<g id="Ellipse_8_copy_2_6_">
		<g>
			<circle fill="#04A2DD" cx="58.002" cy="58.001" r="7.998"/>
		</g>
		<g>
			<circle fill="none" stroke="#FFFFFF" stroke-miterlimit="10" cx="58.002" cy="58.001" r="7.998"/>
		</g>
	</g>
	<g id="Ellipse_8_copy_4_6_">
		<g>
			<circle fill="#CFF2FB" cx="58" cy="58" r="2"/>
		</g>
	</g>
</g>
<g id="Group_2_copy_7_1_">
	<g id="Ellipse_8_copy_7_">
		<g>
			<circle fill="#EB1D5D" cx="58.003" cy="191.002" r="15.996"/>
		</g>
		<g>
			<circle fill="none" stroke="#FFFFFF" stroke-miterlimit="10" cx="58.003" cy="191.002" r="15.996"/>
		</g>
	</g>
	<g id="Ellipse_8_copy_2_7_">
		<g>
			<circle fill="#04A2DD" cx="58.002" cy="191.001" r="7.998"/>
		</g>
		<g>
			<circle fill="none" stroke="#FFFFFF" stroke-miterlimit="10" cx="58.002" cy="191.001" r="7.998"/>
		</g>
	</g>
	<g id="Ellipse_8_copy_4_7_">
		<g>
			<circle fill="#CFF2FB" cx="58" cy="191" r="2"/>
		</g>
	</g>
</g>
</svg>
