<?xml version="1.0" encoding="utf-8"?>
<!-- Generator: Adobe Illustrator 16.0.0, SVG Export Plug-In . SVG Version: 6.00 Build 0)  -->
<!DOCTYPE svg PUBLIC "-//W3C//DTD SVG 1.1//EN" "http://www.w3.org/Graphics/SVG/1.1/DTD/svg11.dtd">
<svg version="1.1" xmlns="http://www.w3.org/2000/svg" xmlns:xlink="http://www.w3.org/1999/xlink" x="0px" y="0px" width="150px"
	 height="171px" viewBox="0 0 150 171" enable-background="new 0 0 150 171" xml:space="preserve">
<g id="Shape_1_1_" opacity="0.302" enable-background="new    ">
	<g id="Shape_1">
		<g>
			<path d="M102.279,81.137c-9.375-25.268-37.349-38.109-62.48-28.683c-25.131,9.427-37.903,37.553-28.527,62.821
				c8.604,23.187,32.866,35.895,56.223,30.55l13.876,16.123l0.324-21.836C101.453,128.266,110.607,103.58,102.279,81.137z"/>
		</g>
	</g>
</g>
<g id="Shape_1_copy_1_" enable-background="new    ">
	<path fill-rule="evenodd" clip-rule="evenodd" fill="#ED1C24" stroke="#FFFFFF" stroke-width="4" stroke-miterlimit="10" d="
		M93.297,138.449l-9.627,24.718l-9.016-24.279c-28.944-3.889-51.271-28.717-51.271-58.786c0-32.769,26.509-59.333,59.211-59.333
		c32.701,0,59.21,26.564,59.21,59.333C141.804,109.206,120.885,133.398,93.297,138.449z"/>
</g>
<g id="Ellipse_2_1_" enable-background="new    ">
	<g id="Ellipse_2">
		<g>
			<circle fill="#9E0B0F" cx="85.271" cy="79.102" r="46.5"/>
		</g>
	</g>
</g>
<g id="Shape_2_1_" opacity="0.302" enable-background="new    ">
	<g id="Shape_2_2_">
		<g>
			<path d="M86.539,59.093C71.483,53.424,71.764,71.78,71.764,71.78s-24.501-16.592-36.442-6.197
				c-26.75,23.287,60.745,43.47,60.745,43.47S111.911,68.646,86.539,59.093z"/>
		</g>
	</g>
</g>
<g id="Shape_2_copy_1_" enable-background="new    ">
	<g id="Shape_2_copy">
		<g>
			<path fill="#FFFFFF" d="M123.947,51.069c-15.131-9.776-28.676,12.677-28.676,12.677S81.727,41.293,66.595,51.069
				c-28.099,18.156,28.676,57.532,28.676,57.532S152.047,69.226,123.947,51.069z"/>
		</g>
	</g>
</g>
</svg>
