<?xml version="1.0" encoding="utf-8"?>
<!-- Generator: Adobe Illustrator 16.0.0, SVG Export Plug-In . SVG Version: 6.00 Build 0)  -->
<!DOCTYPE svg PUBLIC "-//W3C//DTD SVG 1.1//EN" "http://www.w3.org/Graphics/SVG/1.1/DTD/svg11.dtd">
<svg version="1.1" xmlns="http://www.w3.org/2000/svg" xmlns:xlink="http://www.w3.org/1999/xlink" x="0px" y="0px" width="279px"
	 height="112px" viewBox="0 0 279 112" enable-background="new 0 0 279 112" xml:space="preserve">
<g id="Rounded_Rectangle_81_copy_1_" opacity="0.502" enable-background="new    ">
	<g id="Rounded_Rectangle_81_copy">
		<g>
			<path d="M48.839,33.052H16.802c-4.423,0-8.009,3.589-8.009,8.016v32.064c0,4.427,3.586,8.016,8.009,8.016h32.037
				c4.424,0,8.009-3.589,8.009-8.016V41.067C56.848,36.641,53.263,33.052,48.839,33.052z M266.004,33.651H70.054
				c-4.424,0-8.009,3.589-8.009,8.016v32.064c0,4.427,3.585,8.016,8.009,8.016h195.95c4.423,0,8.009-3.589,8.009-8.016V41.667
				C274.013,37.24,270.427,33.651,266.004,33.651z"/>
		</g>
	</g>
</g>
<g id="Shape_2_1_" enable-background="new    ">
	<g id="Shape_2">
	</g>
</g>
<g id="Rounded_Rectangle_82_copy_1_" enable-background="new    ">
	<path fill-rule="evenodd" clip-rule="evenodd" fill="#8DC63F" stroke="#FFFFFF" stroke-width="2" stroke-miterlimit="10" d="
		M12.009,24.659h32.037c4.423,0,8.009,3.589,8.009,8.016v32.064c0,4.427-3.586,8.017-8.009,8.017H12.009
		C7.586,72.756,4,69.166,4,64.739V32.675C4,28.248,7.586,24.659,12.009,24.659z"/>
</g>
<g id="Rounded_Rectangle_84_1_" enable-background="new    ">
	<g id="Rounded_Rectangle_84">
		<g>
			<path fill="#A0DE4C" d="M38.44,29.469H17.616c-4.423,0-8.009,2.871-8.009,6.413v9.619h36.843v-9.619
				C46.449,32.34,42.863,29.469,38.44,29.469z"/>
		</g>
	</g>
</g>
<g id="Shape_1_copy_1_" enable-background="new    ">
	<g id="Shape_1_copy">
		<g>
			<polygon fill="#FFFFFF" points="27.627,37.484 15.213,48.707 20.019,48.707 20.019,59.93 24.824,59.93 24.824,53.517 
				31.231,53.517 31.231,59.93 36.037,59.93 36.037,48.707 40.042,48.707 			"/>
		</g>
	</g>
</g>
<g id="Rounded_Rectangle_81_copy_2_1_" enable-background="new    ">
	<path fill-rule="evenodd" clip-rule="evenodd" fill="#ED1C24" stroke="#FFFFFF" stroke-width="2" stroke-miterlimit="10" d="
		M259.616,72.756H61.667c-4.423,0-8.009-3.59-8.009-8.017V32.675c0-4.427,3.586-8.016,8.009-8.016h197.949
		c4.424,0,8.01,3.589,8.01,8.016v32.064C267.626,69.166,264.04,72.756,259.616,72.756z"/>
</g>
<g id="Rounded_Rectangle_83_copy_4_1_" enable-background="new    ">
	<g id="Rounded_Rectangle_83_copy_4">
		<g>
			<path fill="#F5464D" d="M254.209,30.271H68.875c-4.424,0-8.009,3.589-8.009,8.016v0.802c0,4.427,0,8.016,0,8.016h201.353
				c0,0,0-3.589,0-8.016v-0.802C262.219,33.859,258.633,30.271,254.209,30.271z"/>
		</g>
	</g>
</g>
<g id="Shape_1_1_" enable-background="new    ">
	<g id="Shape_1">
	</g>
</g>
<g id="当社の製造_1_" enable-background="new    ">
	<g id="当社の製造">
		<g>
			<path fill="#FFFFFF" d="M191.162,52.882c0.265-0.036,0.365-0.12,0.378-0.253l-2.267-0.121v4.327h-3.742v1.712h7.747v0.795h-7.28
				v1.651h7.28v0.855h-8.049v1.712h8.049v0.446h1.852v-7.172h-3.968V52.882z M192.157,55.822l1.638,0.627
				c0.491-0.723,1.121-1.832,1.474-2.712c0.214,0,0.365-0.06,0.429-0.169l-2.28-0.747C193.14,53.786,192.623,55.003,192.157,55.822z
				 M188.328,55.666c-0.252-0.771-0.844-1.88-1.486-2.712l-1.676,0.614c0.593,0.856,1.185,2.037,1.387,2.809L188.328,55.666z
				 M200.822,58.148c0.592-0.819,1.096-1.724,1.448-2.64c0.101-0.048,0.188-0.12,0.228-0.217l-1.185-0.626l-0.277,0.06h-0.44v-1.832
				c0.252-0.048,0.365-0.132,0.377-0.265l-2.191-0.108v2.205h-1.725v1.579h3.01c-0.793,1.398-2.053,2.651-3.426,3.351
				c0.277,0.338,0.705,1.205,0.855,1.676c0.441-0.266,0.869-0.579,1.285-0.929v3.568h1.814v-4.158
				c0.377,0.373,0.756,0.759,1.008,1.072l1.07-1.435C202.396,59.233,201.439,58.547,200.822,58.148z M206.377,57.823h2.242v-1.699
				h-2.242v-3.098c0.265-0.048,0.378-0.133,0.391-0.265l-2.28-0.121v3.483h-2.229v1.699h2.229v4.074h-2.759v1.724h7.205v-1.724
				h-2.557V57.823z M215.495,53.532c-3.161,0-5.831,2.182-5.831,5.352c0,2.134,1.02,3.278,2.543,3.278
				c2.192,0,3.427-1.964,3.98-6.268c0.189,0,0.354-0.096,0.403-0.204l-1.89-0.398c0.252-0.036,0.492-0.06,0.756-0.06
				c2.028,0,3.477,1.072,3.477,3.001c0,1.735-0.995,3.037-3.854,3.579c0.528,0.494,0.944,1.098,1.234,1.543
				c3.236-0.831,4.672-2.338,4.672-5.158C220.986,55.461,219.035,53.532,215.495,53.532z M212.271,60.354
				c-0.528,0-0.718-0.663-0.718-1.543c0-1.543,1.045-2.904,2.658-3.398C214.047,57.992,213.354,60.354,212.271,60.354z
				 M230.27,53.352c0.252-0.048,0.34-0.12,0.352-0.241l-1.977-0.108v4.026h1.625V53.352z M232.939,61.223
				c0.051,0.012,0.088,0.012,0.139,0.012c0.101,0,0.201-0.024,0.252-0.084l-0.971-0.735h1.197v-1.362h-4.887v-0.338
				c0.264-0.048,0.377-0.12,0.39-0.265l-1.386-0.072c0.354-0.169,0.441-0.422,0.441-0.964V56.1h-2.18v-0.301h2.344v-1.146h-2.344
				v-0.325h1.99v-1.085h-1.99v-0.397c0.24-0.048,0.328-0.121,0.341-0.241l-1.89-0.097v0.735h-0.479l0.062-0.181
				c0.139,0.012,0.24-0.024,0.29-0.12l-1.499-0.422c-0.15,0.614-0.416,1.313-0.73,1.747c0.215,0.097,0.491,0.241,0.743,0.386h-0.794
				v1.146h2.406V56.1h-1.965v2.447h1.36v-1.423h0.604V58.8h1.549v-1.676h0.655c0,0.374,0,0.422-0.126,0.422
				c-0.088,0-0.327,0-0.504-0.012c0.139,0.277,0.34,0.687,0.429,1.024h0.44v0.494h-4.836v1.362h3.061
				c-0.945,0.313-2.078,0.542-3.225,0.663c0.327,0.312,0.756,0.88,0.957,1.241c0.68-0.097,1.348-0.253,1.978-0.435v0.422
				c-0.491,0.049-0.958,0.085-1.348,0.109l0.642,1.566c0.102-0.012,0.189-0.084,0.215-0.193c1.146-0.132,2.896-0.337,4.572-0.554
				l-0.038-1.109c0.92,0.94,2.192,1.543,3.98,1.856c0.202-0.422,0.63-1.061,0.982-1.386c-0.933-0.121-1.726-0.313-2.405-0.603
				C231.932,61.74,232.536,61.439,232.939,61.223z M224.387,54.653h-1.121c0.062-0.097,0.126-0.217,0.189-0.325h0.932V54.653z
				 M226.516,62.15v-0.747c0.252-0.024,0.353-0.121,0.365-0.253l-0.201-0.024c0.365-0.181,0.692-0.386,1.008-0.603
				c0.264,0.542,0.578,1.013,0.957,1.422C227.926,62.018,227.208,62.09,226.516,62.15z M229.337,60.415h2.054
				c-0.416,0.265-0.895,0.554-1.349,0.771C229.777,60.957,229.539,60.704,229.337,60.415z M230.408,58.884
				c2.254,0,2.656-0.35,2.656-1.519v-4.447c0.252-0.036,0.341-0.12,0.354-0.253l-2.003-0.072v4.736c0,0.157-0.063,0.193-0.239,0.205
				c-0.176,0-0.793,0-1.285-0.024C230.093,57.884,230.332,58.475,230.408,58.884z M241.919,62.078c-2.167,0-3.54,0-4.245-1.121
				v-3.784h-3.086v1.615h1.298v2.241c-0.529,0.361-1.108,0.699-1.625,0.977l0.907,1.929c0.15-0.049,0.201-0.121,0.201-0.277
				c0.453-0.338,0.982-0.771,1.499-1.205c1.146,1.277,2.456,1.337,5.58,1.337c1.209,0,2.481-0.036,3.426-0.084
				c0.088-0.519,0.378-1.362,0.579-1.784C245.182,62.03,243.405,62.078,241.919,62.078z M236.503,55.738l1.461-1.157
				c-0.429-0.566-1.348-1.302-2.065-1.796l-1.361,1.049C235.256,54.376,236.138,55.184,236.503,55.738z M245.319,61.812V57.98
				h-6.335v3.868h1.713v-0.312h2.821v0.276H245.319z M240.697,60.077v-0.735h2.821v0.735H240.697z M239.236,56.148h-1.234v1.458
				h8.162v-1.458h-3.162v-0.893h2.607v-1.47h-2.607v-0.904c0.252-0.048,0.365-0.133,0.378-0.266l-2.191-0.108v0.566l-1.94-0.47
				c-0.252,1.073-0.742,2.254-1.359,2.941C238.279,55.702,238.833,55.931,239.236,56.148z M240.886,53.243
				c0.151,0,0.252-0.036,0.303-0.108v0.651h-0.479C240.772,53.604,240.836,53.424,240.886,53.243z M240.067,55.256h1.121v0.893
				h-1.675C239.715,55.883,239.903,55.582,240.067,55.256z"/>
		</g>
	</g>
</g>
<g id="MANUFACTURING_1_" enable-background="new    ">
	<g id="MANUFACTURING">
		<g>
			<path fill="#FFFFFF" d="M80.801,40.219l-4.147-4.729h-2.789v12.752h3.212v-7.96l3.483,3.998h0.482l3.483-3.998v7.96h3.212V35.49
				h-2.792L80.801,40.219z M93.941,35.49l-5.208,12.752h3.404l0.963-2.52h5.774l1.062,2.52h3.454L97.663,35.49H93.941z
				 M93.95,43.495l1.894-4.956l2.09,4.956H93.95z M114.252,43.285l-6.885-7.795h-2.945v12.752h3.212v-8.17l7.118,8.17h2.713V35.49
				h-3.212V43.285z M129.452,42.601c0,1.011-0.297,1.789-0.891,2.337s-1.386,0.821-2.377,0.821c-0.954,0-1.725-0.268-2.312-0.803
				s-0.881-1.247-0.881-2.136v-7.33h-3.221v7.257c0,1.825,0.564,3.226,1.693,4.199c1.129,0.974,2.715,1.46,4.758,1.46
				c2.067,0,3.658-0.48,4.772-1.442c1.114-0.961,1.671-2.373,1.671-4.235V35.49h-3.212V42.601z M143.859,40.675h-5.668v-2.848h5.668
				V35.49h-8.88v12.752h3.212v-5.23h5.668V40.675z M148.613,35.49l-5.209,12.752h3.404l0.963-2.52h5.773l1.062,2.52h3.455
				l-5.728-12.752H148.613z M148.622,43.495l1.895-4.956l2.09,4.956H148.622z M165.666,45.759c-1.342,0-2.441-0.367-3.3-1.104
				c-0.858-0.735-1.288-1.67-1.288-2.802c0-1.126,0.436-2.053,1.307-2.779c0.871-0.728,1.992-1.092,3.364-1.092
				c1.396,0,2.876,0.436,4.439,1.306v-2.839c-1.273-0.748-2.831-1.123-4.671-1.123c-2.307,0-4.176,0.64-5.607,1.917
				c-1.43,1.278-2.146,2.833-2.146,4.665s0.679,3.373,2.035,4.623c1.356,1.251,3.181,1.876,5.47,1.876
				c1.766,0,3.455-0.423,5.066-1.269v-2.784c-1.219,0.59-2.135,0.972-2.75,1.146S166.33,45.759,165.666,45.759z M171.507,37.827
				h4.671v10.415h3.211V37.827h4.671V35.49h-12.553V37.827z M195.106,42.601c0,1.011-0.297,1.789-0.891,2.337
				c-0.595,0.548-1.386,0.821-2.377,0.821c-0.954,0-1.725-0.268-2.312-0.803c-0.588-0.535-0.883-1.247-0.883-2.136v-7.33h-3.221
				v7.257c0,1.825,0.564,3.226,1.693,4.199s2.715,1.46,4.759,1.46c2.067,0,3.657-0.48,4.772-1.442
				c1.113-0.961,1.67-2.373,1.67-4.235V35.49h-3.212V42.601z M208.396,42.276c1.477-0.675,2.215-1.715,2.215-3.119
				c0-1.016-0.391-1.881-1.172-2.596c-0.782-0.714-1.797-1.071-3.047-1.071h-5.76v12.752h3.213v-5.176h0.923
				c0.425,0,0.823,0.167,1.195,0.502s0.819,1.093,1.343,2.273c0.522,1.181,0.889,1.98,1.1,2.4h3.525
				c-0.544-1.131-1.107-2.336-1.689-3.612C209.658,43.353,209.043,42.568,208.396,42.276z M206.832,40.351
				c-0.318,0.253-0.747,0.379-1.288,0.379h-1.698v-2.902h1.624c1.225,0,1.837,0.48,1.837,1.441
				C207.307,39.737,207.148,40.099,206.832,40.351z M213.064,48.242h3.212V35.49h-3.212V48.242z M228.625,43.285l-6.885-7.795
				h-2.945v12.752h3.212v-8.17l7.117,8.17h2.713V35.49h-3.212V43.285z M241.748,41.479v2.336h1.864v1.488
				c-0.714,0.305-1.425,0.456-2.132,0.456c-1.335,0-2.412-0.347-3.23-1.04c-0.818-0.694-1.228-1.601-1.228-2.721
				c0-1.168,0.409-2.13,1.228-2.884c0.818-0.755,1.984-1.133,3.498-1.133c1.569,0,3.175,0.393,4.818,1.178v-2.784
				c-1.495-0.699-3.19-1.05-5.086-1.05c-2.295,0-4.164,0.61-5.607,1.831c-1.443,1.22-2.164,2.798-2.164,4.732
				c0,1.893,0.721,3.452,2.164,4.679c1.443,1.226,3.287,1.839,5.533,1.839c1.021,0,2.054-0.159,3.097-0.479
				c1.043-0.319,1.82-0.731,2.331-1.236v-5.212H241.748z"/>
		</g>
	</g>
</g>
</svg>
