<?xml version="1.0" encoding="utf-8"?>
<!-- Generator: Adobe Illustrator 16.0.0, SVG Export Plug-In . SVG Version: 6.00 Build 0)  -->
<!DOCTYPE svg PUBLIC "-//W3C//DTD SVG 1.1//EN" "http://www.w3.org/Graphics/SVG/1.1/DTD/svg11.dtd">
<svg version="1.1" id="Layer_1" xmlns="http://www.w3.org/2000/svg" xmlns:xlink="http://www.w3.org/1999/xlink" x="0px" y="0px"
	 width="279px" height="112px" viewBox="0 0 279 112" enable-background="new 0 0 279 112" xml:space="preserve">
<g id="Rounded_Rectangle_81_copy_1_" opacity="0.502" enable-background="new    ">
	<g id="Rounded_Rectangle_81_copy">
		<g>
			<path d="M48.839,33.052H16.802c-4.423,0-8.009,3.589-8.009,8.016v32.064c0,4.427,3.586,8.017,8.009,8.017h32.037
				c4.424,0,8.009-3.59,8.009-8.017V41.067C56.848,36.641,53.263,33.052,48.839,33.052z M221.004,33.651H70.054
				c-4.424,0-8.009,3.589-8.009,8.016V73.73c0,4.428,3.585,8.017,8.009,8.017h150.95c4.423,0,8.01-3.589,8.01-8.017V41.667
				C229.014,37.24,225.427,33.651,221.004,33.651z"/>
		</g>
	</g>
</g>
<g id="Shape_2_1_" enable-background="new    ">
	<g id="Shape_2">
	</g>
</g>
<g id="Rounded_Rectangle_82_copy_1_" enable-background="new    ">
	<path fill="#8DC63F" stroke="#FCFCFC" stroke-width="2" stroke-miterlimit="10" d="M12.009,24.659h32.037
		c4.423,0,8.009,3.589,8.009,8.016v32.064c0,4.427-3.586,8.017-8.009,8.017H12.009C7.586,72.756,4,69.166,4,64.739V32.675
		C4,28.248,7.586,24.659,12.009,24.659z"/>
</g>
<g id="Rounded_Rectangle_84_1_" enable-background="new    ">
	<g id="Rounded_Rectangle_84">
		<g>
			<path fill="#A0DE4C" d="M38.44,29.469H17.616c-4.423,0-8.009,2.871-8.009,6.413v9.619H46.45v-9.619
				C46.449,32.34,42.863,29.469,38.44,29.469z"/>
		</g>
	</g>
</g>
<g id="Shape_1_copy_1_" enable-background="new    ">
	<g id="Shape_1_copy">
		<g>
			<polygon fill="#FFFFFF" points="27.627,37.484 15.213,48.707 20.019,48.707 20.019,59.93 24.824,59.93 24.824,53.517 
				31.231,53.517 31.231,59.93 36.037,59.93 36.037,48.707 40.042,48.707 			"/>
		</g>
	</g>
</g>
<g id="Rounded_Rectangle_81_copy_2_1_" enable-background="new    ">
	<path fill="#ED1C24" stroke="#FFFFFF" stroke-width="2" stroke-miterlimit="10" d="M210.617,72.756H61.667
		c-4.423,0-8.009-3.59-8.009-8.017V32.675c0-4.427,3.586-8.016,8.009-8.016h148.95c4.423,0,8.009,3.589,8.009,8.016v32.064
		C218.626,69.166,215.04,72.756,210.617,72.756z"/>
</g>
<g id="Rounded_Rectangle_83_copy_4_1_" enable-background="new    ">
	<g id="Rounded_Rectangle_83_copy_4">
		<g>
			<path fill="#F5464D" d="M204.209,30.271H68.875c-4.424,0-8.009,3.589-8.009,8.016v0.802c0,4.427,0,8.016,0,8.016h151.353
				c0,0,0-3.589,0-8.016v-0.802C212.219,33.859,208.633,30.271,204.209,30.271z"/>
		</g>
	</g>
</g>
<g id="Shape_1_1_" enable-background="new    ">
	<g id="Shape_1">
	</g>
</g>
<g id="お問い合わせ_1_" enable-background="new    ">
	<g id="お問い合わせ">
		<g>
			<path fill="#FFFFFF" d="M138.951,57.095c-0.61,0-1.454,0.126-2.272,0.341c0-0.44,0.013-0.905,0.026-1.396
				c0.792-0.088,1.48-0.227,2.104-0.39l-0.221-1.888c-0.559,0.201-1.168,0.34-1.818,0.44c0.026-0.516,0.052-1.019,0.091-1.51
				c0.208-0.024,0.337-0.163,0.337-0.302l-2.401-0.05v2.038c-0.831,0.024-1.753,0.037-2.792,0.037l0.039,1.824
				c1.013,0,1.935-0.013,2.753-0.05V58.1c-2.311,0.994-3.168,2.291-3.168,3.334c0,1.674,1.428,2.239,2.519,2.239
				c1.752,0,2.532-1.082,2.532-2.252V59.07c0.766-0.215,1.571-0.34,2.22-0.34c1.208,0,1.896,0.604,1.896,1.51
				c0,0.867-0.48,1.472-1.376,1.472c-0.532,0-1.025-0.302-1.428-0.769c-0.26,0.467-0.636,1.07-0.961,1.474
				c0.688,0.742,1.506,1.069,2.363,1.069c2.337,0,3.402-1.348,3.402-3.246C142.795,58.089,141.043,57.095,138.951,57.095z
				 M134.083,62.064c-0.416,0-0.662-0.228-0.662-0.668c0-0.69,0.792-1.194,1.376-1.56c0.013,0.604,0.013,1.208,0.013,1.497
				C134.81,61.838,134.55,62.064,134.083,62.064z M139.172,55.12c1.039,0.377,2.181,0.981,2.908,1.61l1.092-1.637
				c-0.74-0.604-1.91-1.208-3.039-1.548L139.172,55.12z M149.908,52.478h-5.167v11.499h1.87v-6.629h3.297V52.478z M148.143,55.976
				h-1.532V55.51h1.532V55.976z M148.143,54.302h-1.532V53.85h1.532V54.302z M150.623,57.359h3.389v4.479
				c0,0.227-0.092,0.314-0.338,0.314h-0.844v-4.09h-5.154v4.818h1.739v-0.691h2.429c0.26,0.49,0.531,1.297,0.598,1.787
				c2.727,0,3.479-0.303,3.479-2.113v-9.386h-5.297V57.359L150.623,57.359z M151.064,60.706h-1.649v-1.158h1.649V60.706z
				 M152.414,53.837h1.598v0.465h-1.598V53.837z M152.414,55.51h1.598v0.491h-1.598V55.51z M165.293,54.151l-1.26,1.422
				c1.532,0.918,2.57,2.139,2.973,4.428l2.078-0.667C168.668,56.807,167.084,55.107,165.293,54.151z M160.982,60.957
				c-0.662,0-1.299-1.031-1.299-3.321c0-1.207,0.168-2.604,0.377-3.585c0.143-0.013,0.299-0.113,0.324-0.227l-2.492-0.44
				c-0.17,1.245-0.247,2.528-0.247,3.687c0,0.504,0.013,0.98,0.038,1.422c0.104,1.888,1.025,4.555,3.234,4.555
				c1.245,0,2.153-0.855,2.752-2.98c-0.455-0.252-1.234-0.868-1.611-1.233C161.865,59.712,161.385,60.957,160.982,60.957z
				 M177.016,52.44c0.207-0.025,0.338-0.139,0.389-0.29l-2.479-0.138c-0.937,1.51-3.025,3.409-5.246,4.44
				c0.39,0.353,0.908,1.032,1.156,1.46c0.661-0.34,1.323-0.742,1.934-1.158v0.919h6.492v-0.868c0.608,0.415,1.232,0.78,1.855,1.096
				c0.337-0.555,0.768-1.184,1.232-1.648C180.418,55.535,178.262,54.051,177.016,52.44z M173.705,56.063
				c0.922-0.729,1.7-1.51,2.232-2.239c0.545,0.729,1.363,1.51,2.299,2.239H173.705z M171.822,64.002h1.855v-0.439h4.662v0.439h1.946
				V58.73h-8.465L171.822,64.002L171.822,64.002z M173.678,60.341h4.662v1.623h-4.662V60.341z M190.479,55.145
				c-0.987,0-2.312,0.391-3.506,1.183c0.26-0.642,0.324-0.754,0.908-1.799c-0.246-0.113-0.492-0.227-0.74-0.327
				c0.053-0.516,0.065-0.83,0.131-1.409c0.246-0.037,0.324-0.15,0.363-0.276l-2.402-0.163c0,0.062-0.014,1.346-0.039,2.088
				c-0.688,0.101-1.791,0.164-2.414,0.164l0.078,1.812c0.869-0.063,1.869-0.164,2.259-0.239l-0.039,0.792
				c-0.155,0.354-0.856,1.485-2.649,2.944l0.885,1.687c0.57-0.377,1.376-1.221,1.738-1.773v3.736h1.908
				c-0.025-0.643-0.025-1.851-0.025-3.045v-2.201c0.937-0.844,2.363-1.409,3.363-1.409c1.285,0,1.883,0.956,1.883,2.063
				c0,1.623-1.401,2.264-4.168,2.565c0.285,0.478,0.584,1.194,0.74,1.698c3.246-0.289,5.426-1.497,5.426-4.315
				C194.178,56.529,192.607,55.145,190.479,55.145z M201.772,61.775c-0.3,0-0.546,0-0.728-0.014
				c-1.156-0.051-1.598-0.378-1.688-1.384c-0.039-0.479-0.063-1.562-0.063-2.667c0.829-0.15,1.883-0.314,2.959-0.479
				c0,0.591-0.025,1.183-0.078,1.51c-0.039,0.227-0.26,0.39-0.492,0.39c-0.183,0-0.754-0.101-1.246-0.39
				c-0.014,0.49-0.078,1.195-0.182,1.548c0.584,0.276,1.207,0.478,1.854,0.478c2.091,0,2.091-1.772,2.091-3.812
				c0.961-0.126,1.87-0.228,2.506-0.276l-0.143-1.838c-0.637,0.076-1.532,0.214-2.391,0.34c-0.024-0.768-0.039-1.686-0.078-2.353
				c0.209-0.088,0.287-0.176,0.287-0.302l-2.338-0.063c0.078,0.806,0.117,2.026,0.17,3.045c-1.014,0.164-2.025,0.327-2.908,0.479
				c0.025-0.793,0.013-1.711,0.052-2.252c0.272-0.076,0.362-0.164,0.39-0.314l-2.453-0.177c-0.014,0.391,0,0.654,0.025,3.07
				c-0.896,0.163-1.909,0.314-2.467,0.39l0.298,1.786c0.416-0.101,1.44-0.289,2.182-0.44c0.026,0.981,0.054,1.926,0.104,2.454
				c0.26,2.769,2.207,2.943,4.623,2.943c0.947,0,2.129-0.038,3.129-0.163l-0.039-1.774
				C204.161,61.712,202.746,61.775,201.772,61.775z"/>
		</g>
	</g>
</g>
<g enable-background="new    ">
	<path fill="#FFFFFF" d="M83.499,44.763v2.906c-1.662,0.883-3.403,1.324-5.223,1.324c-2.359,0-4.238-0.652-5.637-1.958
		c-1.398-1.305-2.098-2.914-2.098-4.826c0-1.912,0.737-3.535,2.212-4.869s3.401-2.001,5.779-2.001c1.896,0,3.501,0.391,4.814,1.172
		v2.963c-1.611-0.908-3.137-1.362-4.576-1.362c-1.415,0-2.571,0.379-3.468,1.138c-0.897,0.759-1.346,1.727-1.346,2.901
		c0,1.182,0.442,2.157,1.327,2.925c0.885,0.769,2.019,1.153,3.401,1.153c0.685,0,1.345-0.09,1.979-0.271
		S82.243,45.379,83.499,44.763z"/>
	<path fill="#FFFFFF" d="M93.185,35.34c2.264,0,4.097,0.685,5.499,2.053c1.401,1.369,2.103,2.962,2.103,4.778
		c0,1.842-0.71,3.44-2.131,4.793s-3.244,2.029-5.47,2.029c-2.252,0-4.085-0.673-5.499-2.02c-1.415-1.346-2.122-2.947-2.122-4.802
		c0-1.823,0.702-3.417,2.107-4.783S90.914,35.34,93.185,35.34z M93.185,46.23c1.255,0,2.267-0.373,3.035-1.12
		c0.768-0.746,1.151-1.726,1.151-2.939c0-1.219-0.384-2.201-1.151-2.944s-1.779-1.115-3.035-1.115c-1.263,0-2.279,0.372-3.049,1.115
		s-1.156,1.725-1.156,2.944c0,1.213,0.386,2.193,1.156,2.939C90.906,45.857,91.922,46.23,93.185,46.23z"/>
	<path fill="#FFFFFF" d="M116.646,35.511v13.311h-2.796l-7.336-8.528v8.528h-3.311V35.511h3.036l7.096,8.137v-8.137H116.646z"/>
	<path fill="#FFFFFF" d="M131.63,35.511v2.439h-4.814v10.872h-3.311V37.951h-4.814v-2.439H131.63z"/>
	<path fill="#FFFFFF" d="M139.084,35.511l5.903,13.311h-3.56l-1.096-2.63h-5.952l-0.993,2.63h-3.508l5.369-13.311H139.084z
		 M139.364,43.868l-2.154-5.174l-1.953,5.174H139.364z"/>
	<path fill="#FFFFFF" d="M158.126,44.763v2.906c-1.661,0.883-3.403,1.324-5.224,1.324c-2.359,0-4.238-0.652-5.637-1.958
		c-1.398-1.305-2.098-2.914-2.098-4.826c0-1.912,0.738-3.535,2.213-4.869s3.4-2.001,5.779-2.001c1.896,0,3.501,0.391,4.814,1.172
		v2.963c-1.611-0.908-3.137-1.362-4.576-1.362c-1.415,0-2.571,0.379-3.469,1.138c-0.897,0.759-1.346,1.727-1.346,2.901
		c0,1.182,0.441,2.157,1.326,2.925c0.886,0.769,2.02,1.153,3.402,1.153c0.685,0,1.344-0.09,1.979-0.271
		S156.87,45.379,158.126,44.763z"/>
	<path fill="#FFFFFF" d="M172.758,35.511v2.439h-4.813v10.872h-3.311V37.951h-4.813v-2.439H172.758z"/>
	<path fill="#FFFFFF" d="M190.045,35.511h3.311v7.556c0,1.944-0.574,3.417-1.722,4.421c-1.147,1.004-2.788,1.505-4.919,1.505
		c-2.105,0-3.74-0.508-4.904-1.524c-1.164-1.016-1.746-2.478-1.746-4.383v-7.575h3.32v7.651c0,0.927,0.303,1.67,0.909,2.229
		c0.605,0.559,1.399,0.838,2.384,0.838c1.021,0,1.837-0.286,2.449-0.857s0.918-1.385,0.918-2.439V35.511z"/>
	<path fill="#FFFFFF" d="M205.248,36.369v2.601c-1.764-0.794-3.168-1.191-4.215-1.191c-0.596,0-1.07,0.1-1.422,0.3
		c-0.352,0.2-0.527,0.465-0.527,0.796c0,0.254,0.127,0.495,0.38,0.724c0.254,0.229,0.872,0.524,1.855,0.886
		c0.983,0.362,1.77,0.699,2.359,1.01c0.59,0.312,1.099,0.75,1.526,1.315c0.429,0.565,0.643,1.28,0.643,2.144
		c0,1.232-0.468,2.214-1.403,2.944s-2.167,1.096-3.696,1.096c-1.648,0-3.247-0.429-4.795-1.286v-2.868
		c0.889,0.597,1.675,1.032,2.359,1.306c0.686,0.273,1.412,0.41,2.18,0.41c1.299,0,1.949-0.41,1.949-1.229
		c0-0.279-0.13-0.543-0.391-0.791c-0.26-0.248-0.886-0.549-1.879-0.904c-0.992-0.355-1.779-0.686-2.359-0.991
		c-0.58-0.305-1.081-0.74-1.502-1.306c-0.422-0.565-0.633-1.29-0.633-2.173c0-1.144,0.459-2.066,1.379-2.769s2.15-1.053,3.691-1.053
		C202.169,35.34,203.669,35.683,205.248,36.369z"/>
</g>
</svg>
