<?xml version="1.0" encoding="utf-8"?>
<!-- Generator: Adobe Illustrator 16.0.0, SVG Export Plug-In . SVG Version: 6.00 Build 0)  -->
<!DOCTYPE svg PUBLIC "-//W3C//DTD SVG 1.1//EN" "http://www.w3.org/Graphics/SVG/1.1/DTD/svg11.dtd">
<svg version="1.1" xmlns="http://www.w3.org/2000/svg" xmlns:xlink="http://www.w3.org/1999/xlink" x="0px" y="0px" width="1024px"
	 height="640px" viewBox="0 0 3000 1874" enable-background="new 0 0 3000 1874" xml:space="preserve">
<g id="Rounded_Rectangle_80_1_" opacity="0.302" enable-background="new    ">
	<g id="Rounded_Rectangle_80">
		<g>
			<path d="M390.504,283.596l16.798-43.202h23.854c14.032,0,25.407-11.377,25.407-25.412v-71.156
				c0-14.035-11.375-25.412-25.407-25.412H211.382c-14.032,0-25.408,11.377-25.408,25.412v71.156
				c0,14.035,11.375,25.412,25.408,25.412h157.919L390.504,283.596z M607.728,1063.154c0-14.035-11.375-25.412-25.407-25.412
				H271.079c-14.032,0-25.408,11.377-25.408,25.412v67.344c0,14.035,11.376,25.413,25.408,25.413H582.32
				c14.032,0,25.407-11.378,25.407-25.413v-18.759l36.841-18.09l-36.841-14.33V1063.154z M2234.59,789.684h38.676
				c14.032,0,25.407-11.378,25.407-25.413v-83.861c0-14.035-11.375-25.413-25.407-25.413h-354.434
				c-14.033,0-25.408,11.378-25.408,25.413v83.861c0,14.035,11.375,25.413,25.408,25.413h271.051l24.945,50.825L2234.59,789.684z
				 M2468.593,1355.464H2220.87c-14.032,0-25.407,11.378-25.407,25.413v67.344c0,14.035,11.375,25.412,25.407,25.412h177.066
				L2424.13,1527l20.749-53.367h23.714c14.032,0,25.407-11.377,25.407-25.412v-67.344
				C2494,1366.842,2482.625,1355.464,2468.593,1355.464z"/>
		</g>
	</g>
</g>
<g id="Rounded_Rectangle_80_copy_1_" enable-background="new    ">
	<path fill-rule="evenodd" clip-rule="evenodd" fill="#ED1C24" stroke="#FFFFFF" stroke-width="4" stroke-miterlimit="10" d="
		M2454.619,1458.221h-23.714l-20.75,53.367l-26.192-53.367h-177.067c-14.032,0-25.407-11.378-25.407-25.413v-67.344
		c0-14.034,11.375-25.412,25.407-25.412h247.724c14.031,0,25.407,11.378,25.407,25.412v67.344
		C2480.026,1446.843,2468.65,1458.221,2454.619,1458.221z M2254.292,776.271h-38.676l-19.762,50.825l-24.945-50.825h-271.052
		c-14.032,0-25.407-11.377-25.407-25.412v-83.862c0-14.035,11.375-25.413,25.407-25.413h354.435
		c14.032,0,25.407,11.378,25.407,25.413v83.862C2279.699,764.894,2268.324,776.271,2254.292,776.271z M590.753,1107.085
		c0,14.035-11.375,25.413-25.407,25.413H254.104c-14.032,0-25.407-11.378-25.407-25.413v-67.344
		c0-14.034,11.375-25.412,25.407-25.412h311.241c14.032,0,25.407,11.378,25.407,25.412v16.166l36.842,14.33l-36.842,18.089V1107.085
		z M417.183,214.981h-23.855l-16.797,43.201l-21.204-43.201H197.408c-14.032,0-25.408-11.378-25.408-25.413v-71.155
		C172,104.378,183.375,93,197.408,93h219.775c14.032,0,25.407,11.378,25.407,25.413v71.155
		C442.59,203.604,431.215,214.981,417.183,214.981z"/>
</g>
<g id="Rounded_Rectangle_81_copy_4_1_" enable-background="new    ">
	<g id="Rounded_Rectangle_81_copy_4">
		<g>
			<path fill="#F5464D" d="M431.147,146.367v-21.581c0,0-1.32-20.417-14.265-20.351l-215.855,0.04
				c-18.131-1.024-16.258,19.041-16.258,19.041v22.851H431.147z M558.872,1025.224l-298.191,0.039
				c-25.047-1.024-22.46,19.042-22.46,19.042v22.85h340.357v-21.58C578.578,1045.574,576.755,1025.156,558.872,1025.224z
				 M2451.7,1350.758l-240.333,0.04c-20.188-1.024-18.103,19.041-18.103,19.041v22.85h274.318v-21.58
				C2467.583,1371.108,2466.113,1350.691,2451.7,1350.758z M2263.48,692.221v-21.58c0.077-0.001,3.157-20.471-15.547-20.401
				c-6.075,0.051-333.265,0.09-333.265,0.09c-27.483-1.024-24.645,19.042-24.645,19.042v22.85H2263.48z"/>
		</g>
	</g>
</g>
<g id="お問い合わせ_1_" enable-background="new    ">
	<g id="お問い合わせ">
		<g>
			<path fill="#FFFFFF" d="M2274.218,1416.843c2.027,0.741,4.257,1.927,5.676,3.163l2.129-3.213
				c-1.444-1.186-3.726-2.372-5.93-3.039L2274.218,1416.843z M2273.787,1420.722c-1.191,0-2.838,0.247-4.435,0.668
				c0-0.865,0.025-1.779,0.051-2.743c1.546-0.173,2.889-0.444,4.104-0.766l-0.431-3.707c-1.089,0.396-2.28,0.667-3.548,0.865
				c0.051-1.014,0.102-2.002,0.178-2.966c0.406-0.049,0.659-0.321,0.659-0.593l-4.688-0.099v4.003
				c-1.622,0.049-3.421,0.074-5.448,0.074l0.076,3.583c1.977,0,3.775-0.024,5.372-0.099v3.756c-4.511,1.952-6.184,4.497-6.184,6.548
				c0,3.286,2.788,4.398,4.916,4.398c3.421,0,4.941-2.125,4.941-4.423v-4.621c1.495-0.42,3.066-0.667,4.333-0.667
				c2.356,0,3.699,1.187,3.699,2.965c0,1.705-0.938,2.892-2.686,2.892c-1.039,0-2.002-0.594-2.787-1.508
				c-0.507,0.914-1.242,2.101-1.875,2.892c1.343,1.458,2.939,2.101,4.611,2.101c4.562,0,6.639-2.645,6.639-6.376
				C2281.287,1422.674,2277.867,1420.722,2273.787,1420.722z M2264.285,1430.482c-0.812,0-1.293-0.444-1.293-1.31
				c0-1.358,1.546-2.348,2.687-3.063c0.024,1.186,0.024,2.372,0.024,2.94C2265.703,1430.038,2265.197,1430.482,2264.285,1430.482z
				 M2295.172,1411.653h-10.086v22.585h3.649v-13.021h6.437V1411.653z M2291.726,1418.522h-2.99v-0.914h2.99V1418.522z
				 M2291.726,1415.236h-2.99v-0.89h2.99V1415.236z M2296.565,1421.241h6.613v8.797c0,0.444-0.177,0.617-0.658,0.617h-1.647v-8.03
				h-10.06v9.464h3.396v-1.359h4.738c0.507,0.964,1.039,2.546,1.166,3.509c5.32,0,6.791-0.593,6.791-4.151v-18.434h-10.339V1421.241
				z M2297.427,1427.814h-3.218v-2.273h3.218V1427.814z M2300.062,1414.322h3.116v0.914h-3.116V1414.322z M2300.062,1417.608h3.116
				v0.964h-3.116V1417.608z M2316.784,1428.309c-1.292,0-2.534-2.026-2.534-6.523c0-2.373,0.33-5.115,0.735-7.043
				c0.278-0.024,0.583-0.223,0.634-0.445l-4.865-0.864c-0.33,2.446-0.482,4.967-0.482,7.24c0,0.988,0.026,1.927,0.076,2.792
				c0.203,3.707,2.002,8.945,6.311,8.945c2.432,0,4.206-1.681,5.371-5.856c-0.887-0.494-2.406-1.705-3.142-2.422
				C2318.508,1425.861,2317.57,1428.309,2316.784,1428.309z M2325.197,1414.939l-2.458,2.793c2.99,1.804,5.018,4.2,5.803,8.697
				l4.055-1.309C2331.785,1420.154,2328.694,1416.818,2325.197,1414.939z M2337.941,1434.288h3.623v-0.865h9.098v0.865h3.801
				v-10.354h-16.521V1434.288z M2341.564,1427.098h9.098v3.188h-9.098V1427.098z M2348.077,1411.579
				c0.405-0.049,0.659-0.271,0.76-0.568l-4.84-0.271c-1.824,2.965-5.903,6.696-10.237,8.723c0.761,0.692,1.774,2.026,2.256,2.866
				c1.292-0.667,2.584-1.458,3.775-2.273v1.804h12.67v-1.704c1.19,0.814,2.407,1.531,3.623,2.149
				c0.659-1.087,1.496-2.323,2.408-3.237C2354.716,1417.658,2350.51,1414.742,2348.077,1411.579z M2341.615,1418.696
				c1.799-1.434,3.319-2.966,4.358-4.399c1.064,1.434,2.661,2.966,4.485,4.399H2341.615z M2374.353,1416.892
				c-1.926,0-4.511,0.767-6.842,2.323c0.507-1.26,0.634-1.482,1.773-3.533c-0.481-0.223-0.963-0.445-1.444-0.643
				c0.102-1.014,0.127-1.631,0.254-2.768c0.481-0.074,0.633-0.297,0.709-0.544l-4.688-0.321c0,0.124-0.025,2.644-0.076,4.102
				c-1.343,0.198-3.496,0.321-4.713,0.321l0.152,3.559c1.697-0.124,3.648-0.321,4.408-0.47l-0.076,1.557
				c-0.304,0.692-1.672,2.916-5.169,5.782l1.724,3.312c1.115-0.741,2.686-2.396,3.395-3.484v7.339h3.726
				c-0.051-1.26-0.051-3.632-0.051-5.979v-4.324c1.825-1.656,4.612-2.768,6.563-2.768c2.508,0,3.674,1.878,3.674,4.053
				c0,3.188-2.736,4.447-8.134,5.041c0.558,0.938,1.14,2.347,1.444,3.336c6.335-0.568,10.592-2.941,10.592-8.477
				C2381.574,1419.61,2378.508,1416.892,2374.353,1416.892z M2396.396,1429.914c-0.584,0-1.064,0-1.42-0.024
				c-2.255-0.099-3.116-0.741-3.294-2.718c-0.075-0.939-0.127-3.064-0.127-5.239c1.622-0.296,3.675-0.617,5.778-0.938
				c0,1.161-0.051,2.322-0.152,2.965c-0.076,0.445-0.507,0.767-0.963,0.767c-0.355,0-1.47-0.198-2.433-0.767
				c-0.025,0.964-0.152,2.348-0.354,3.04c1.14,0.543,2.355,0.938,3.623,0.938c4.08,0,4.08-3.484,4.08-7.487
				c1.875-0.247,3.648-0.444,4.891-0.544l-0.279-3.607c-1.241,0.148-2.99,0.42-4.662,0.667c-0.051-1.507-0.076-3.311-0.152-4.62
				c0.405-0.174,0.558-0.347,0.558-0.594l-4.562-0.123c0.152,1.581,0.229,3.979,0.33,5.979c-1.977,0.321-3.953,0.643-5.677,0.939
				c0.051-1.557,0.026-3.36,0.102-4.424c0.532-0.147,0.71-0.321,0.761-0.617l-4.789-0.347c-0.026,0.767,0,1.285,0.05,6.03
				c-1.748,0.321-3.725,0.617-4.814,0.766l0.583,3.509c0.811-0.197,2.812-0.568,4.257-0.865c0.051,1.928,0.102,3.781,0.203,4.819
				c0.507,5.436,4.308,5.782,9.021,5.782c1.85,0,4.156-0.074,6.107-0.321l-0.076-3.484
				C2401.059,1429.791,2398.297,1429.914,2396.396,1429.914z"/>
		</g>
	</g>
</g>
<g id="CONTACT_US">
	<g>
		<path fill="#FFFFFF" d="M2228.627,1389.536v5.708c-3.243,1.734-6.642,2.602-10.194,2.602c-4.604,0-8.272-1.282-11.002-3.846
			c-2.729-2.564-4.095-5.724-4.095-9.479c0-3.755,1.439-6.942,4.317-9.562c2.879-2.62,6.639-3.931,11.281-3.931
			c3.701,0,6.833,0.768,9.396,2.302v5.82c-3.145-1.783-6.121-2.676-8.932-2.676c-2.761,0-5.017,0.746-6.769,2.236
			c-1.752,1.491-2.627,3.391-2.627,5.698c0,2.321,0.863,4.236,2.59,5.746c1.728,1.51,3.939,2.264,6.639,2.264
			c1.337,0,2.624-0.178,3.862-0.533C2224.331,1391.529,2226.176,1390.747,2228.627,1389.536z"/>
		<path fill="#FFFFFF" d="M2245.629,1371.027c4.42,0,7.997,1.345,10.733,4.033c2.735,2.688,4.104,5.817,4.104,9.386
			c0,3.618-1.387,6.756-4.159,9.413c-2.773,2.657-6.332,3.986-10.678,3.986c-4.395,0-7.973-1.322-10.732-3.968
			c-2.761-2.645-4.142-5.789-4.142-9.432c0-3.581,1.371-6.712,4.113-9.395S2241.197,1371.027,2245.629,1371.027z M2245.629,1392.418
			c2.451,0,4.426-0.732,5.924-2.198c1.497-1.466,2.247-3.391,2.247-5.773c0-2.396-0.75-4.323-2.247-5.783
			c-1.498-1.46-3.473-2.189-5.924-2.189c-2.464,0-4.447,0.729-5.951,2.189s-2.256,3.388-2.256,5.783
			c0,2.383,0.752,4.308,2.256,5.773S2243.165,1392.418,2245.629,1392.418z"/>
		<path fill="#FFFFFF" d="M2289.519,1371.364v26.145h-5.458l-14.318-16.75v16.75h-6.462v-26.145h5.926l13.851,15.982v-15.982
			H2289.519z"/>
		<path fill="#FFFFFF" d="M2316.863,1371.364v4.791h-9.396v21.354h-6.462v-21.354h-9.396v-4.791H2316.863z"/>
		<path fill="#FFFFFF" d="M2329.511,1371.364l11.521,26.145h-6.948l-2.138-5.165h-11.617l-1.937,5.165h-6.848l10.479-26.145
			H2329.511z M2330.057,1387.777l-4.204-10.162l-3.811,10.162H2330.057z"/>
		<path fill="#FFFFFF" d="M2364.774,1389.536v5.708c-3.243,1.734-6.642,2.602-10.194,2.602c-4.604,0-8.272-1.282-11.002-3.846
			c-2.729-2.564-4.095-5.724-4.095-9.479c0-3.755,1.439-6.942,4.317-9.562c2.879-2.62,6.639-3.931,11.281-3.931
			c3.701,0,6.833,0.768,9.396,2.302v5.82c-3.145-1.783-6.121-2.676-8.932-2.676c-2.761,0-5.017,0.746-6.769,2.236
			c-1.752,1.491-2.627,3.391-2.627,5.698c0,2.321,0.863,4.236,2.59,5.746c1.728,1.51,3.939,2.264,6.639,2.264
			c1.337,0,2.624-0.178,3.862-0.533C2360.479,1391.529,2362.323,1390.747,2364.774,1389.536z"/>
		<path fill="#FFFFFF" d="M2391.433,1371.364v4.791h-9.396v21.354h-6.462v-21.354h-9.396v-4.791H2391.433z"/>
		<path fill="#FFFFFF" d="M2421.369,1371.364h6.463v14.841c0,3.818-1.121,6.713-3.361,8.684c-2.241,1.972-5.44,2.957-9.601,2.957
			c-4.109,0-7.301-0.998-9.572-2.994s-3.407-4.866-3.407-8.609v-14.878h6.48v15.028c0,1.821,0.591,3.281,1.773,4.379
			c1.182,1.098,2.732,1.646,4.651,1.646c1.993,0,3.587-0.561,4.782-1.684c1.194-1.123,1.791-2.72,1.791-4.791V1371.364z"/>
		<path fill="#FFFFFF" d="M2449.142,1373.049v5.109c-3.441-1.56-6.184-2.34-8.226-2.34c-1.164,0-2.089,0.196-2.776,0.59
			c-0.688,0.393-1.03,0.914-1.03,1.562c0,0.499,0.247,0.974,0.742,1.423c0.495,0.448,1.702,1.029,3.621,1.74
			s3.454,1.372,4.605,1.983s2.145,1.473,2.98,2.583c0.835,1.11,1.253,2.514,1.253,4.211c0,2.42-0.913,4.348-2.739,5.782
			s-4.23,2.152-7.214,2.152c-3.219,0-6.338-0.842-9.358-2.526v-5.633c1.732,1.173,3.268,2.027,4.604,2.563
			c1.338,0.536,2.755,0.805,4.253,0.805c2.537,0,3.807-0.804,3.807-2.413c0-0.548-0.254-1.065-0.762-1.552s-1.73-1.079-3.668-1.777
			s-3.473-1.347-4.605-1.945c-1.133-0.6-2.11-1.454-2.933-2.564c-0.823-1.111-1.235-2.534-1.235-4.269
			c0-2.246,0.897-4.059,2.693-5.438c1.794-1.38,4.196-2.069,7.204-2.069C2443.132,1371.027,2446.06,1371.701,2449.142,1373.049z"/>
	</g>
</g>
<g id="当社の製造_1_" enable-background="new    ">
	<g id="当社の製造">
		<g>
			<path fill="#FFFFFF" d="M2030.973,719.874c0.532-0.075,0.734-0.247,0.76-0.52l-4.561-0.247v8.871h-7.526v3.509h15.584v1.631
				h-14.646v3.386h14.646v1.754h-16.192v3.509h16.192v0.914h3.725v-14.702h-7.981V719.874z M2032.975,725.903l3.294,1.284
				c0.988-1.482,2.255-3.756,2.965-5.56c0.431,0,0.734-0.123,0.861-0.346l-4.587-1.532
				C2034.951,721.727,2033.912,724.223,2032.975,725.903z M2025.271,725.582c-0.507-1.582-1.697-3.855-2.99-5.561l-3.37,1.261
				c1.191,1.754,2.383,4.176,2.788,5.757L2025.271,725.582z M2061.58,730.005h4.511v-3.484h-4.511v-6.351
				c0.533-0.099,0.761-0.271,0.786-0.543l-4.587-0.248v7.142h-4.484v3.484h4.484v8.352h-5.549v3.534h14.494v-3.534h-5.145V730.005z
				 M2050.406,730.672c1.19-1.681,2.204-3.533,2.914-5.412c0.202-0.099,0.38-0.246,0.456-0.444l-2.382-1.285l-0.559,0.124h-0.887
				v-3.756c0.508-0.1,0.735-0.271,0.761-0.544l-4.409-0.223v4.522h-3.472v3.237h6.057c-1.597,2.866-4.131,5.436-6.893,6.869
				c0.558,0.692,1.419,2.471,1.723,3.435c0.888-0.544,1.749-1.186,2.585-1.902v7.314h3.648v-8.525
				c0.761,0.766,1.521,1.557,2.027,2.199l2.154-2.94C2053.573,732.896,2051.647,731.487,2050.406,730.672z M2079.925,721.208
				c-6.36,0-11.732,4.473-11.732,10.972c0,4.373,2.053,6.721,5.118,6.721c4.41,0,6.893-4.027,8.008-12.85
				c0.38,0,0.709-0.197,0.811-0.42l-3.801-0.815c0.507-0.074,0.988-0.123,1.521-0.123c4.08,0,6.994,2.199,6.994,6.152
				c0,3.559-2.002,6.228-7.755,7.339c1.064,1.014,1.901,2.249,2.483,3.163c6.513-1.705,9.401-4.794,9.401-10.576
				C2090.973,725.161,2087.045,721.208,2079.925,721.208z M2073.438,735.194c-1.064,0-1.444-1.359-1.444-3.163
				c0-3.163,2.104-5.955,5.347-6.969C2077.011,730.351,2075.617,735.194,2073.438,735.194z M2109.925,732.18
				c4.536,0,5.347-0.717,5.347-3.114v-9.118c0.507-0.073,0.685-0.247,0.71-0.519l-4.029-0.148v9.711
				c0,0.321-0.127,0.396-0.481,0.421c-0.354,0-1.597,0-2.584-0.05C2109.291,730.128,2109.773,731.339,2109.925,732.18z
				 M2109.646,720.837c0.507-0.099,0.684-0.247,0.709-0.494l-3.979-0.222v8.253h3.27V720.837z M2115.019,736.973
				c0.101,0.025,0.177,0.025,0.278,0.025c0.203,0,0.405-0.05,0.507-0.173l-1.951-1.508h2.407v-2.792h-9.832v-0.692
				c0.532-0.099,0.761-0.247,0.785-0.543l-2.787-0.148c0.71-0.347,0.887-0.865,0.887-1.977v-2.694h-4.383v-0.617h4.713v-2.348
				h-4.713v-0.667h4.004v-2.224h-4.004v-0.816c0.48-0.099,0.658-0.246,0.684-0.494l-3.801-0.197v1.508h-0.963l0.127-0.371
				c0.278,0.024,0.48-0.05,0.582-0.247l-3.015-0.865c-0.304,1.261-0.837,2.693-1.47,3.583c0.431,0.198,0.988,0.494,1.495,0.791
				h-1.597v2.348h4.84v0.617h-3.953v5.017h2.736v-2.916h1.217v3.435h3.117v-3.435h1.317c0,0.767,0,0.865-0.253,0.865
				c-0.178,0-0.659,0-1.014-0.024c0.278,0.568,0.684,1.408,0.861,2.1h0.887v1.014h-9.73v2.792h6.157
				c-1.9,0.643-4.181,1.112-6.487,1.359c0.659,0.643,1.521,1.804,1.926,2.545c1.369-0.197,2.712-0.519,3.979-0.89v0.865
				c-0.988,0.099-1.926,0.173-2.711,0.223l1.292,3.212c0.203-0.024,0.38-0.173,0.431-0.396c2.307-0.271,5.828-0.691,9.199-1.137
				l-0.076-2.273c1.85,1.928,4.409,3.163,8.007,3.806c0.405-0.865,1.268-2.175,1.977-2.842c-1.875-0.247-3.472-0.643-4.84-1.235
				C2112.991,738.035,2114.207,737.418,2115.019,736.973z M2097.812,723.506h-2.256c0.127-0.197,0.254-0.444,0.381-0.667h1.875
				V723.506z M2102.095,738.876v-1.532c0.507-0.05,0.71-0.247,0.735-0.519l-0.406-0.05c0.735-0.371,1.395-0.791,2.027-1.235
				c0.532,1.111,1.166,2.075,1.926,2.916C2104.934,738.604,2103.488,738.752,2102.095,738.876z M2107.771,735.317h4.131
				c-0.836,0.544-1.799,1.137-2.712,1.581C2108.658,736.43,2108.177,735.91,2107.771,735.317z M2133.083,738.728
				c-4.358,0-7.12,0-8.539-2.298v-7.759h-6.208v3.311h2.609v4.597c-1.064,0.741-2.229,1.433-3.269,2.001l1.824,3.954
				c0.304-0.1,0.405-0.247,0.405-0.568c0.912-0.692,1.977-1.582,3.016-2.472c2.307,2.62,4.941,2.743,11.226,2.743
				c2.433,0,4.992-0.074,6.893-0.173c0.177-1.062,0.761-2.792,1.165-3.657C2139.646,738.629,2136.073,738.728,2133.083,738.728z
				 M2122.188,725.729l2.939-2.372c-0.861-1.161-2.712-2.669-4.156-3.682l-2.736,2.149
				C2119.679,722.938,2121.452,724.593,2122.188,725.729z M2127.686,726.57h-2.482v2.989h16.42v-2.989h-6.36v-1.829h5.245v-3.015
				h-5.245v-1.853c0.507-0.1,0.735-0.272,0.76-0.544l-4.409-0.223v1.161l-3.902-0.964c-0.506,2.2-1.494,4.621-2.736,6.03
				C2125.76,725.655,2126.875,726.125,2127.686,726.57z M2131.006,720.615c0.304,0,0.506-0.074,0.607-0.223v1.334h-0.963
				C2130.777,721.356,2130.904,720.985,2131.006,720.615z M2129.358,724.741h2.255v1.829h-3.37
				C2128.648,726.026,2129.029,725.408,2129.358,724.741z M2139.925,738.184v-7.857h-12.745v7.932h3.445v-0.643h5.676v0.568
				H2139.925z M2130.625,734.626v-1.508h5.676v1.508H2130.625z"/>
		</g>
	</g>
</g>
<g id="MANUFACTURING">
	<g>
		<path fill="#FFFFFF" d="M1920.951,686.861l8.337-9.694h5.617v26.144h-6.462v-16.319l-7.008,8.197h-0.971l-7.007-8.197v16.319
			h-6.462v-26.144h5.611L1920.951,686.861z"/>
		<path fill="#FFFFFF" d="M1954.873,677.167l11.521,26.144h-6.948l-2.138-5.165h-11.617l-1.937,5.165h-6.848l10.479-26.144H1954.873
			z M1955.419,693.58l-4.204-10.162l-3.811,10.162H1955.419z"/>
		<path fill="#FFFFFF" d="M1994.709,677.167v26.144h-5.458l-14.318-16.75v16.75h-6.462v-26.144h5.926l13.851,15.982v-15.982
			H1994.709z"/>
		<path fill="#FFFFFF" d="M2018.826,677.167h6.463v14.84c0,3.818-1.121,6.712-3.361,8.684c-2.241,1.972-5.44,2.957-9.601,2.957
			c-4.109,0-7.301-0.998-9.572-2.994s-3.407-4.866-3.407-8.609v-14.878h6.48v15.027c0,1.822,0.591,3.282,1.773,4.379
			c1.182,1.098,2.732,1.647,4.651,1.647c1.993,0,3.587-0.562,4.782-1.685c1.194-1.123,1.791-2.72,1.791-4.791V677.167z"/>
		<path fill="#FFFFFF" d="M2047.809,677.167v4.791h-11.401v5.839h11.401v4.791h-11.401v10.724h-6.462v-26.144H2047.809z"/>
		<path fill="#FFFFFF" d="M2064.86,677.167l11.521,26.144h-6.948l-2.138-5.165h-11.617l-1.937,5.165h-6.848l10.479-26.144H2064.86z
			 M2065.406,693.58l-4.204-10.162l-3.811,10.162H2065.406z"/>
		<path fill="#FFFFFF" d="M2101.075,695.339v5.708c-3.243,1.734-6.642,2.602-10.194,2.602c-4.604,0-8.272-1.282-11.002-3.846
			c-2.729-2.564-4.095-5.724-4.095-9.479s1.439-6.943,4.317-9.563c2.879-2.62,6.639-3.93,11.281-3.93
			c3.701,0,6.833,0.767,9.396,2.302v5.82c-3.145-1.784-6.121-2.676-8.932-2.676c-2.761,0-5.017,0.746-6.769,2.236
			c-1.752,1.491-2.627,3.391-2.627,5.699c0,2.32,0.863,4.236,2.59,5.745c1.728,1.51,3.939,2.265,6.639,2.265
			c1.337,0,2.624-0.178,3.862-0.533C2096.779,697.332,2098.624,696.549,2101.075,695.339z"/>
		<path fill="#FFFFFF" d="M2128.685,677.167v4.791h-9.396v21.354h-6.462v-21.354h-9.396v-4.791H2128.685z"/>
		<path fill="#FFFFFF" d="M2150.907,677.167h6.463v14.84c0,3.818-1.121,6.712-3.361,8.684c-2.241,1.972-5.44,2.957-9.601,2.957
			c-4.109,0-7.301-0.998-9.572-2.994s-3.407-4.866-3.407-8.609v-14.878h6.48v15.027c0,1.822,0.591,3.282,1.773,4.379
			c1.182,1.098,2.732,1.647,4.651,1.647c1.993,0,3.587-0.562,4.782-1.685c1.194-1.123,1.791-2.72,1.791-4.791V677.167z"/>
		<path fill="#FFFFFF" d="M2162.026,677.167h11.587c2.514,0,4.556,0.732,6.128,2.197s2.358,3.239,2.358,5.321
			c0,2.88-1.485,5.012-4.456,6.396c1.302,0.597,2.539,2.205,3.713,4.823c1.173,2.619,2.306,5.087,3.398,7.407h-7.091
			c-0.423-0.861-1.161-2.501-2.213-4.922s-1.952-3.974-2.701-4.66c-0.749-0.686-1.55-1.029-2.404-1.029h-1.857v10.611h-6.462
			V677.167z M2168.488,681.958v5.952h3.417c1.089,0,1.953-0.259,2.591-0.777c0.637-0.518,0.956-1.257,0.956-2.218
			c0-1.971-1.232-2.957-3.695-2.957H2168.488z"/>
		<path fill="#FFFFFF" d="M2193.498,677.167v26.144h-6.463v-26.144H2193.498z"/>
		<path fill="#FFFFFF" d="M2224.801,677.167v26.144h-5.458l-14.318-16.75v16.75h-6.462v-26.144h5.926l13.851,15.982v-15.982
			H2224.801z"/>
		<path fill="#FFFFFF" d="M2254.434,678.982v5.708c-3.306-1.609-6.536-2.414-9.693-2.414c-3.045,0-5.392,0.774-7.037,2.321
			c-1.646,1.547-2.47,3.518-2.47,5.914c0,2.296,0.823,4.155,2.47,5.577c1.646,1.422,3.812,2.133,6.499,2.133
			c1.423,0,2.853-0.312,4.289-0.936v-3.051h-3.751v-4.791h10.231v10.686c-1.027,1.036-2.59,1.881-4.688,2.536
			c-2.099,0.655-4.175,0.982-6.229,0.982c-4.519,0-8.229-1.257-11.133-3.771c-2.902-2.514-4.354-5.711-4.354-9.591
			c0-3.967,1.452-7.202,4.354-9.704c2.903-2.501,6.663-3.752,11.281-3.752C2248.015,676.831,2251.425,677.548,2254.434,678.982z"/>
	</g>
</g>
<g id="当社の製品_1_" enable-background="new    ">
	<g id="当社の製品">
		<g>
			<path fill="#FFFFFF" d="M360.569,1093.754l3.294,1.285c0.988-1.482,2.256-3.756,2.965-5.56c0.431,0,0.735-0.124,0.861-0.347
				l-4.586-1.531C362.546,1089.578,361.507,1092.074,360.569,1093.754z M358.567,1087.725c0.532-0.074,0.735-0.247,0.761-0.519
				l-4.562-0.247v8.871h-7.526v3.509h15.584v1.631h-14.646v3.385h14.646v1.755h-16.191v3.509h16.191v0.914h3.726v-14.702h-7.982
				V1087.725z M352.866,1093.433c-0.507-1.581-1.698-3.854-2.99-5.56l-3.37,1.26c1.19,1.755,2.382,4.177,2.787,5.758
				L352.866,1093.433z M378.001,1098.523c1.191-1.681,2.204-3.534,2.914-5.412c0.203-0.099,0.38-0.247,0.456-0.444l-2.382-1.285
				l-0.558,0.124h-0.887v-3.756c0.507-0.1,0.734-0.272,0.76-0.544l-4.409-0.223v4.522h-3.472v3.236h6.057
				c-1.596,2.867-4.131,5.437-6.893,6.87c0.558,0.691,1.419,2.471,1.724,3.435c0.887-0.544,1.748-1.187,2.584-1.902v7.313h3.649
				v-8.524c0.76,0.766,1.521,1.557,2.027,2.199l2.153-2.941C381.168,1100.747,379.242,1099.339,378.001,1098.523z M389.176,1097.855
				h4.511v-3.483h-4.511v-6.351c0.532-0.099,0.76-0.271,0.785-0.544l-4.586-0.247v7.142h-4.485v3.483h4.485v8.353h-5.55v3.534
				h14.495v-3.534h-5.145V1097.855z M407.52,1089.059c-6.36,0-11.732,4.473-11.732,10.972c0,4.374,2.053,6.722,5.119,6.722
				c4.409,0,6.893-4.028,8.007-12.85c0.381,0,0.71-0.197,0.812-0.42l-3.801-0.815c0.507-0.074,0.988-0.124,1.52-0.124
				c4.08,0,6.994,2.199,6.994,6.153c0,3.558-2.002,6.227-7.754,7.339c1.064,1.014,1.9,2.249,2.483,3.163
				c6.512-1.705,9.4-4.794,9.4-10.576C418.567,1093.013,414.641,1089.059,407.52,1089.059z M401.032,1103.045
				c-1.063,0-1.444-1.358-1.444-3.163c0-3.162,2.104-5.955,5.348-6.968C404.605,1098.202,403.212,1103.045,401.032,1103.045z
				 M437.241,1088.688c0.507-0.099,0.685-0.247,0.71-0.494l-3.979-0.223v8.253h3.269V1088.688z M437.521,1100.03
				c4.535,0,5.347-0.717,5.347-3.113v-9.118c0.507-0.074,0.684-0.247,0.709-0.519l-4.029-0.148v9.711
				c0,0.321-0.126,0.396-0.481,0.42c-0.354,0-1.596,0-2.584-0.049C436.887,1097.979,437.368,1099.19,437.521,1100.03z
				 M442.613,1104.824c0.102,0.024,0.178,0.024,0.279,0.024c0.202,0,0.405-0.049,0.506-0.173l-1.95-1.507h2.407v-2.792h-9.832
				v-0.692c0.532-0.099,0.76-0.247,0.785-0.544l-2.787-0.147c0.71-0.347,0.887-0.865,0.887-1.978v-2.693h-4.384v-0.617h4.713v-2.348
				h-4.713v-0.667h4.004v-2.225h-4.004v-0.815c0.481-0.099,0.659-0.247,0.685-0.494l-3.802-0.197v1.507h-0.963l0.127-0.37
				c0.279,0.024,0.481-0.05,0.583-0.247l-3.016-0.865c-0.304,1.261-0.836,2.693-1.47,3.583c0.431,0.197,0.988,0.494,1.495,0.791
				h-1.596v2.348h4.839v0.617h-3.952v5.017h2.736v-2.916h1.216v3.435h3.117v-3.435h1.317c0,0.766,0,0.865-0.253,0.865
				c-0.178,0-0.659,0-1.014-0.025c0.278,0.568,0.684,1.409,0.861,2.101h0.887v1.014h-9.73v2.792h6.158
				c-1.9,0.643-4.182,1.111-6.487,1.358c0.659,0.643,1.521,1.805,1.926,2.546c1.368-0.198,2.711-0.52,3.979-0.89v0.865
				c-0.988,0.099-1.926,0.172-2.712,0.222l1.293,3.213c0.202-0.025,0.38-0.174,0.431-0.396c2.306-0.272,5.828-0.692,9.198-1.137
				l-0.076-2.273c1.85,1.928,4.409,3.163,8.008,3.806c0.405-0.865,1.267-2.175,1.977-2.842c-1.875-0.247-3.472-0.643-4.84-1.235
				C440.586,1105.887,441.803,1105.27,442.613,1104.824z M425.407,1091.357h-2.255c0.127-0.198,0.253-0.445,0.38-0.667h1.875
				V1091.357z M429.69,1106.727v-1.531c0.507-0.05,0.709-0.247,0.734-0.52l-0.405-0.049c0.734-0.371,1.394-0.791,2.027-1.236
				c0.531,1.112,1.165,2.076,1.926,2.916C432.528,1106.455,431.084,1106.604,429.69,1106.727z M435.366,1103.169h4.13
				c-0.836,0.544-1.799,1.137-2.711,1.581C436.253,1104.28,435.771,1103.762,435.366,1103.169z M458.423,1099.438v10.872h3.522
				v-0.691h3.092v0.593h3.699v-10.773H458.423z M465.037,1106.184h-3.092v-3.312h3.092V1106.184z M446.564,1110.409h3.472v-0.767
				h2.914v0.667h3.674v-10.872h-10.06V1110.409z M450.036,1102.872h2.914v3.336h-2.914V1102.872z M464.454,1087.774h-13.658v9.982
				h13.658V1087.774z M460.679,1094.347h-6.335v-3.138h6.335V1094.347z"/>
		</g>
	</g>
</g>
<g id="OUR_PRODUCTS">
	<g>
		<path fill="#FFFFFF" d="M267.045,1044.952c4.419,0,7.997,1.345,10.733,4.033s4.104,5.817,4.104,9.386
			c0,3.618-1.387,6.756-4.16,9.413s-6.332,3.986-10.677,3.986c-4.395,0-7.972-1.322-10.733-3.968
			c-2.761-2.645-4.141-5.789-4.141-9.432c0-3.581,1.371-6.712,4.113-9.395S262.614,1044.952,267.045,1044.952z M267.045,1066.343
			c2.451,0,4.426-0.732,5.924-2.198c1.498-1.466,2.247-3.391,2.247-5.773c0-2.396-0.749-4.323-2.247-5.783
			c-1.498-1.46-3.473-2.189-5.924-2.189c-2.463,0-4.447,0.729-5.951,2.189s-2.256,3.388-2.256,5.783
			c0,2.383,0.752,4.308,2.256,5.773S264.582,1066.343,267.045,1066.343z"/>
		<path fill="#FFFFFF" d="M304.848,1045.289h6.462v14.841c0,3.818-1.121,6.713-3.361,8.684c-2.241,1.972-5.441,2.957-9.6,2.957
			c-4.11,0-7.301-0.998-9.572-2.994c-2.272-1.996-3.408-4.866-3.408-8.609v-14.878h6.48v15.028c0,1.821,0.591,3.281,1.773,4.379
			s2.732,1.646,4.652,1.646c1.993,0,3.586-0.561,4.781-1.684c1.194-1.123,1.792-2.72,1.792-4.791V1045.289z"/>
		<path fill="#FFFFFF" d="M315.968,1045.289h11.587c2.513,0,4.555,0.732,6.127,2.198c1.572,1.465,2.358,3.238,2.358,5.32
			c0,2.88-1.485,5.013-4.457,6.396c1.302,0.597,2.54,2.205,3.713,4.823s2.306,5.087,3.398,7.406h-7.091
			c-0.423-0.861-1.161-2.501-2.212-4.922c-1.052-2.42-1.953-3.974-2.702-4.66c-0.749-0.686-1.55-1.029-2.404-1.029h-1.857v10.611
			h-6.462V1045.289z M322.43,1050.08v5.951h3.417c1.089,0,1.953-0.259,2.59-0.776s0.957-1.257,0.957-2.218
			c0-1.971-1.232-2.957-3.695-2.957H322.43z"/>
		<path fill="#FFFFFF" d="M350.628,1045.289h11.568c2.625,0,4.71,0.768,6.258,2.302c1.547,1.535,2.321,3.351,2.321,5.446
			c0,2.171-0.765,4.03-2.293,5.577s-3.612,2.32-6.249,2.32h-5.144v10.499h-6.462V1045.289z M357.09,1050.08v6.063h3.008
			c2.686,0,4.029-1.011,4.029-3.031c0-1.136-0.359-1.925-1.077-2.367c-0.718-0.443-1.944-0.665-3.677-0.665H357.09z"/>
		<path fill="#FFFFFF" d="M374.356,1045.289h11.587c2.513,0,4.555,0.732,6.127,2.198c1.572,1.465,2.358,3.238,2.358,5.32
			c0,2.88-1.485,5.013-4.457,6.396c1.302,0.597,2.54,2.205,3.713,4.823s2.306,5.087,3.398,7.406h-7.091
			c-0.423-0.861-1.161-2.501-2.212-4.922c-1.052-2.42-1.953-3.974-2.702-4.66c-0.749-0.686-1.55-1.029-2.404-1.029h-1.857v10.611
			h-6.462V1045.289z M380.818,1050.08v5.951h3.417c1.089,0,1.953-0.259,2.59-0.776s0.957-1.257,0.957-2.218
			c0-1.971-1.232-2.957-3.695-2.957H380.818z"/>
		<path fill="#FFFFFF" d="M412.325,1044.952c4.419,0,7.997,1.345,10.733,4.033s4.104,5.817,4.104,9.386
			c0,3.618-1.387,6.756-4.16,9.413s-6.332,3.986-10.677,3.986c-4.395,0-7.972-1.322-10.733-3.968
			c-2.761-2.645-4.141-5.789-4.141-9.432c0-3.581,1.371-6.712,4.113-9.395S407.894,1044.952,412.325,1044.952z M412.325,1066.343
			c2.451,0,4.426-0.732,5.924-2.198c1.498-1.466,2.247-3.391,2.247-5.773c0-2.396-0.749-4.323-2.247-5.783
			c-1.498-1.46-3.473-2.189-5.924-2.189c-2.463,0-4.447,0.729-5.951,2.189s-2.256,3.388-2.256,5.783
			c0,2.383,0.752,4.308,2.256,5.773S409.862,1066.343,412.325,1066.343z"/>
		<path fill="#FFFFFF" d="M430.854,1045.289h11.438c4.419,0,7.913,1.22,10.482,3.659s3.853,5.593,3.853,9.46
			c0,4.055-1.303,7.239-3.909,9.554s-6.323,3.472-11.151,3.472h-10.714V1045.289z M437.316,1050.08v16.562h4.215
			c2.736,0,4.828-0.758,6.276-2.273c1.449-1.517,2.173-3.516,2.173-5.998c0-2.57-0.734-4.595-2.201-6.073s-3.574-2.218-6.323-2.218
			H437.316z"/>
		<path fill="#FFFFFF" d="M479.668,1045.289h6.462v14.841c0,3.818-1.121,6.713-3.361,8.684c-2.241,1.972-5.441,2.957-9.6,2.957
			c-4.11,0-7.301-0.998-9.572-2.994c-2.272-1.996-3.408-4.866-3.408-8.609v-14.878h6.48v15.028c0,1.821,0.591,3.281,1.773,4.379
			s2.732,1.646,4.652,1.646c1.993,0,3.586-0.561,4.781-1.684c1.194-1.123,1.792-2.72,1.792-4.791V1045.289z"/>
		<path fill="#FFFFFF" d="M514.964,1063.461v5.708c-3.244,1.734-6.642,2.602-10.194,2.602c-4.605,0-8.272-1.282-11.002-3.846
			c-2.729-2.564-4.094-5.724-4.094-9.479c0-3.755,1.439-6.942,4.317-9.562c2.878-2.62,6.638-3.931,11.28-3.931
			c3.702,0,6.833,0.768,9.396,2.302v5.82c-3.145-1.783-6.122-2.676-8.932-2.676c-2.761,0-5.017,0.746-6.769,2.236
			c-1.751,1.491-2.627,3.391-2.627,5.698c0,2.321,0.864,4.236,2.59,5.746c1.727,1.51,3.94,2.264,6.639,2.264
			c1.337,0,2.624-0.178,3.862-0.533C510.668,1065.454,512.513,1064.672,514.964,1063.461z"/>
		<path fill="#FFFFFF" d="M542.572,1045.289v4.791h-9.396v21.354h-6.462v-21.354h-9.396v-4.791H542.572z"/>
		<path fill="#FFFFFF" d="M563.161,1046.974v5.109c-3.441-1.56-6.183-2.34-8.226-2.34c-1.164,0-2.089,0.196-2.776,0.59
			c-0.687,0.393-1.031,0.914-1.031,1.562c0,0.499,0.248,0.974,0.743,1.423c0.495,0.448,1.702,1.029,3.621,1.74
			s3.454,1.372,4.605,1.983c1.151,0.611,2.145,1.473,2.98,2.583s1.253,2.514,1.253,4.211c0,2.42-0.913,4.348-2.739,5.782
			c-1.826,1.435-4.231,2.152-7.214,2.152c-3.219,0-6.338-0.842-9.358-2.526v-5.633c1.733,1.173,3.268,2.027,4.605,2.563
			s2.754,0.805,4.252,0.805c2.538,0,3.807-0.804,3.807-2.413c0-0.548-0.254-1.065-0.762-1.552s-1.73-1.079-3.668-1.777
			s-3.473-1.347-4.605-1.945c-1.132-0.6-2.11-1.454-2.933-2.564c-0.823-1.111-1.234-2.534-1.234-4.269
			c0-2.246,0.897-4.059,2.692-5.438c1.795-1.38,4.197-2.069,7.205-2.069C557.151,1044.952,560.079,1045.626,563.161,1046.974z"/>
	</g>
</g>
<g id="私達について_1_" enable-background="new    ">
	<g id="私達について">
		<g>
			<path fill="#FFFFFF" d="M248.534,179.905c-0.558-0.593-2.863-2.965-3.75-3.73v-0.025h3.497v-3.409h-3.497v-3.188
				c1.242-0.395,2.356-0.815,3.319-1.26c0.381,0,0.583,0,0.735-0.148l-2.965-2.619c-2.18,1.211-5.701,2.348-9.021,3.015
				c0.431,0.691,0.938,1.928,1.115,2.669c1.039-0.198,2.129-0.421,3.192-0.668v2.2h-3.953v3.409h3.218
				c-0.963,2.175-2.356,4.597-3.75,6.129c0.558,0.938,1.394,2.471,1.723,3.509c0.988-1.236,1.926-2.916,2.762-4.72v7.932h3.624
				v-8.772c0.608,0.841,1.217,1.705,1.597,2.372L248.534,179.905z M254.616,178.596c0.583,1.557,1.141,3.287,1.597,4.967
				c-1.394,0.148-2.763,0.272-4.08,0.421c1.292-4.844,2.509-11.071,3.142-16.334c0.482-0.074,0.837-0.321,0.938-0.618l-4.967-0.914
				c-0.481,5.931-1.647,13.097-2.99,18.236c-0.811,0.074-1.571,0.124-2.255,0.173l1.292,4.127c0.228-0.05,0.456-0.198,0.507-0.47
				c2.356-0.297,5.752-0.791,9.173-1.285c0.152,0.767,0.254,1.508,0.304,2.15l3.928-1.162c-0.329-2.792-1.646-6.968-3.04-10.255
				L254.616,178.596z M268.602,182.994v-7.907h-6.157v3.312h2.635v4.843c-0.988,0.717-2.027,1.409-2.965,1.952l1.749,3.781
				c0.278-0.124,0.38-0.247,0.38-0.568c0.861-0.692,1.85-1.557,2.812-2.472c2.154,2.693,4.814,2.743,10.997,2.743
				c2.534,0,5.246-0.074,7.223-0.173c0.177-1.013,0.734-2.669,1.14-3.484c-2.533,0.223-6.132,0.321-9.173,0.321
				C272.352,185.342,269.894,185.342,268.602,182.994z M272.25,172.938c0.229,0.544,0.481,1.187,0.608,1.754h-3.218v2.422h6.106
				v0.643h-5.093v2.348h5.093v0.667h-6.03v2.471h6.03v1.458h3.649v-1.458h6.183v-2.471h-6.183v-0.667h5.296v-2.348h-5.296v-0.643
				h6.233v-2.422h-3.522c0.304-0.469,0.608-0.963,0.837-1.384c0.38,0.025,0.607-0.073,0.709-0.296l-0.354-0.1h2.559v-2.471h-6.461
				V169.7h4.967v-2.446h-4.967v-0.964c0.507-0.099,0.734-0.271,0.76-0.543l-4.409-0.223v1.729h-4.738v2.446h4.738v0.741h-6.436
				v2.471h3.065L272.25,172.938z M279.422,172.912c-0.203,0.618-0.456,1.261-0.685,1.779h-2.382
				c-0.076-0.494-0.329-1.161-0.608-1.779H279.422z M266.169,172.271l3.041-2.249c-0.812-1.161-2.56-2.768-3.953-3.854l-2.812,2.026
				C263.812,169.404,265.484,171.108,266.169,172.271z M292.57,181.636c-0.075-0.47-0.075-1.038-0.075-1.73
				c0-3.435,0.354-7.413,1.343-11.836c0.481-0.05,0.709-0.247,0.734-0.519l-4.89-0.618c-0.608,3.979-1.115,8.6-1.115,12.01
				c0,3.311,0.38,6.598,1.19,8.994l3.852-0.544c-0.076-0.296-0.126-0.593-0.126-0.914c0-0.37,0.076-0.766,0.202-1.186
				c0.381-1.236,1.344-2.57,2.078-3.93l-1.697-2.842C293.762,179.264,292.799,181.142,292.57,181.636z M308.738,172.592l-0.33-3.707
				c-2.939,0.494-7.881,0.84-10.592,0.914l0.126,3.608C300.933,173.357,305.748,173.036,308.738,172.592z M301.187,180.968
				c0-1.161,0.659-2.272,1.748-3.261l-3.725-1.162c-1.292,1.582-2.078,3.163-2.078,4.992c0,4.744,6.006,4.744,9.325,4.744
				c0.963,0,1.951-0.025,2.889-0.074l0.127-3.781c-1.09,0.148-2.509,0.223-3.751,0.223
				C302.352,182.648,301.187,182.303,301.187,180.968z M325.131,169.157c-3.016,0-6.867,0.938-11.073,2.149
				c-1.444,0.396-2.23,0.593-3.066,0.741l1.597,4.547c0.278-0.124,0.557-0.371,0.557-0.741c3.802-1.705,8.565-2.842,11.581-2.842
				c2.382,0,4.586,1.211,4.586,3.979c0,3.41-4.079,5.361-12.391,6.004c0.684,0.964,1.419,2.867,1.621,3.657
				c9.579-0.79,15.103-3.533,15.103-9.908C333.645,171.134,329.641,169.157,325.131,169.157z M343.019,183.068
				c-1.292,0-2.534-2.026-2.534-6.523c0-2.372,0.33-5.115,0.735-7.042c0.278-0.025,0.583-0.223,0.633-0.445l-4.864-0.864
				c-0.33,2.446-0.481,4.967-0.481,7.24c0,0.988,0.025,1.927,0.075,2.792c0.203,3.706,2.002,8.945,6.31,8.945
				c2.434,0,4.207-1.681,5.372-5.856c-0.887-0.494-2.407-1.705-3.142-2.422C344.742,180.622,343.805,183.068,343.019,183.068z
				 M351.432,169.7l-2.458,2.792c2.99,1.805,5.018,4.201,5.803,8.698l4.055-1.31C358.02,174.914,354.929,171.578,351.432,169.7z
				 M375.122,172.962c2.027-1.458,3.193-1.68,5.626-1.631l-0.076-4.027c-4.764,0.247-14.798,0.84-18.042,1.037
				c-0.685,0.05-1.977,0.074-2.762,0.074l0.38,4.3c0.253-0.05,0.608-0.223,0.659-0.42c1.85-0.223,7.247-0.741,10.263-0.914
				c-3.396,2.471-5.93,6.227-5.93,9.02c0,4.2,2.914,7.339,10.136,8.104l1.9-3.756c-5.194-0.47-7.779-1.878-7.779-4.398
				C369.497,177.707,372.816,174.568,375.122,172.962z"/>
		</g>
	</g>
</g>
<g id="ABOUT_US">
	<g>
		<path fill="#FFFFFF" d="M220.206,124.855l11.522,26.144h-6.949l-2.138-5.165h-11.617l-1.937,5.165h-6.848l10.479-26.144H220.206z
			 M220.752,141.268l-4.205-10.162l-3.811,10.162H220.752z"/>
		<path fill="#FFFFFF" d="M234.337,124.855h11.215c2.674,0,4.775,0.648,6.304,1.945c1.529,1.296,2.293,2.83,2.293,4.6
			c0,2.27-1.183,4.008-3.547,5.217c1.783,0.475,3.147,1.312,4.095,2.51c0.947,1.199,1.42,2.597,1.42,4.195
			c0,2.272-0.774,4.12-2.321,5.543s-3.825,2.135-6.833,2.135h-12.626V124.855z M240.799,129.646v5.596h3.379
			c1.04,0,1.851-0.268,2.433-0.805c0.582-0.536,0.873-1.21,0.873-2.021c0-0.798-0.291-1.46-0.873-1.984
			c-0.582-0.524-1.393-0.786-2.433-0.786H240.799z M240.799,140.032v6.176h3.639c1.721,0,2.959-0.24,3.714-0.72
			s1.133-1.313,1.133-2.499c0-0.911-0.359-1.631-1.077-2.162s-1.677-0.795-2.878-0.795H240.799z"/>
		<path fill="#FFFFFF" d="M274.27,124.518c4.419,0,7.997,1.344,10.733,4.033c2.736,2.689,4.104,5.817,4.104,9.385
			c0,3.619-1.387,6.756-4.16,9.414c-2.773,2.658-6.332,3.986-10.677,3.986c-4.395,0-7.972-1.322-10.733-3.968
			c-2.761-2.645-4.141-5.789-4.141-9.432c0-3.581,1.371-6.712,4.113-9.395C266.251,125.859,269.838,124.518,274.27,124.518z
			 M274.27,145.909c2.451,0,4.426-0.733,5.924-2.199c1.498-1.466,2.247-3.39,2.247-5.773c0-2.395-0.749-4.323-2.247-5.783
			c-1.498-1.459-3.473-2.189-5.924-2.189c-2.463,0-4.447,0.73-5.951,2.189c-1.504,1.46-2.256,3.388-2.256,5.783
			c0,2.383,0.752,4.308,2.256,5.773C269.822,145.176,271.806,145.909,274.27,145.909z"/>
		<path fill="#FFFFFF" d="M312.643,124.855h6.462v14.84c0,3.818-1.121,6.712-3.361,8.684c-2.241,1.972-5.441,2.957-9.6,2.957
			c-4.11,0-7.301-0.998-9.572-2.994c-2.272-1.996-3.408-4.866-3.408-8.609v-14.878h6.48v15.027c0,1.822,0.591,3.282,1.773,4.379
			c1.182,1.098,2.732,1.647,4.652,1.647c1.993,0,3.586-0.562,4.781-1.685c1.194-1.123,1.792-2.72,1.792-4.791V124.855z"/>
		<path fill="#FFFFFF" d="M347.748,124.855v4.791h-9.396v21.354h-6.462v-21.354h-9.396v-4.791H347.748z"/>
		<path fill="#FFFFFF" d="M380.727,124.855h6.462v14.84c0,3.818-1.121,6.712-3.361,8.684c-2.241,1.972-5.441,2.957-9.6,2.957
			c-4.11,0-7.301-0.998-9.572-2.994c-2.272-1.996-3.408-4.866-3.408-8.609v-14.878h6.48v15.027c0,1.822,0.591,3.282,1.773,4.379
			c1.182,1.098,2.732,1.647,4.652,1.647c1.993,0,3.586-0.562,4.781-1.685c1.194-1.123,1.792-2.72,1.792-4.791V124.855z"/>
		<path fill="#FFFFFF" d="M410.02,126.539v5.109c-3.441-1.559-6.183-2.339-8.226-2.339c-1.164,0-2.089,0.197-2.776,0.59
			s-1.031,0.914-1.031,1.562c0,0.499,0.248,0.973,0.743,1.422c0.495,0.449,1.702,1.029,3.621,1.74
			c1.919,0.711,3.454,1.373,4.605,1.984c1.151,0.611,2.145,1.472,2.98,2.583c0.835,1.111,1.253,2.514,1.253,4.211
			c0,2.42-0.913,4.348-2.739,5.783c-1.826,1.435-4.231,2.152-7.214,2.152c-3.219,0-6.338-0.842-9.358-2.526v-5.633
			c1.733,1.173,3.268,2.028,4.605,2.564c1.337,0.537,2.754,0.805,4.252,0.805c2.538,0,3.807-0.804,3.807-2.413
			c0-0.549-0.254-1.066-0.762-1.553c-0.508-0.486-1.73-1.078-3.668-1.776s-3.473-1.347-4.605-1.946
			c-1.132-0.599-2.11-1.454-2.933-2.564c-0.823-1.11-1.234-2.533-1.234-4.268c0-2.246,0.897-4.059,2.692-5.438
			s4.197-2.068,7.205-2.068C404.01,124.518,406.938,125.191,410.02,126.539z"/>
	</g>
</g>
</svg>
