<?xml version="1.0" encoding="utf-8"?>
<!-- Generator: Adobe Illustrator 16.0.0, SVG Export Plug-In . SVG Version: 6.00 Build 0)  -->
<!DOCTYPE svg PUBLIC "-//W3C//DTD SVG 1.1//EN" "http://www.w3.org/Graphics/SVG/1.1/DTD/svg11.dtd">
<svg version="1.1" xmlns="http://www.w3.org/2000/svg" xmlns:xlink="http://www.w3.org/1999/xlink" x="0px" y="0px" width="279px"
	 height="112px" viewBox="0 0 279 112" enable-background="new 0 0 279 112" xml:space="preserve">
<g id="Rounded_Rectangle_81_copy_1_" opacity="0.502" enable-background="new    ">
	<g id="Rounded_Rectangle_81_copy">
		<g>
			<path d="M58.839,33.052H26.802c-4.423,0-8.009,3.589-8.009,8.016v32.064c0,4.427,3.586,8.016,8.009,8.016h32.037
				c4.424,0,8.009-3.589,8.009-8.016V41.067C66.848,36.641,63.263,33.052,58.839,33.052z M246.004,33.651H80.054
				c-4.424,0-8.009,3.589-8.009,8.016v32.064c0,4.427,3.585,8.016,8.009,8.016h165.95c4.423,0,8.009-3.589,8.009-8.016V41.667
				C254.013,37.24,250.427,33.651,246.004,33.651z"/>
		</g>
	</g>
</g>
<g id="Shape_2_1_" enable-background="new    ">
	<g id="Shape_2">
	</g>
</g>
<g id="Rounded_Rectangle_82_copy_1_" enable-background="new    ">
	<path fill-rule="evenodd" clip-rule="evenodd" fill="#8DC63F" stroke="#FFFFFF" stroke-width="2" stroke-miterlimit="10" d="
		M22.009,24.659h32.037c4.423,0,8.009,3.589,8.009,8.016v32.064c0,4.427-3.586,8.017-8.009,8.017H22.009
		c-4.423,0-8.009-3.59-8.009-8.017V32.675C14,28.248,17.586,24.659,22.009,24.659z"/>
</g>
<g id="Rounded_Rectangle_84_1_" enable-background="new    ">
	<g id="Rounded_Rectangle_84">
		<g>
			<path fill="#A0DE4C" d="M48.44,29.469H27.616c-4.423,0-8.009,2.871-8.009,6.413v9.619h36.843v-9.619
				C56.449,32.34,52.863,29.469,48.44,29.469z"/>
		</g>
	</g>
</g>
<g id="Shape_1_copy_1_" enable-background="new    ">
	<g id="Shape_1_copy">
		<g>
			<polygon fill="#FFFFFF" points="37.627,37.484 25.213,48.707 30.019,48.707 30.019,59.93 34.824,59.93 34.824,53.517 
				41.231,53.517 41.231,59.93 46.037,59.93 46.037,48.707 50.042,48.707 			"/>
		</g>
	</g>
</g>
<g id="Rounded_Rectangle_81_copy_2_1_" enable-background="new    ">
	<path fill-rule="evenodd" clip-rule="evenodd" fill="#ED1C24" stroke="#FFFFFF" stroke-width="2" stroke-miterlimit="10" d="
		M238.617,72.756H71.667c-4.423,0-8.009-3.59-8.009-8.017V32.675c0-4.427,3.586-8.016,8.009-8.016h166.95
		c4.423,0,8.009,3.589,8.009,8.016v32.064C246.626,69.166,243.04,72.756,238.617,72.756z"/>
</g>
<g id="Rounded_Rectangle_83_copy_4_1_" enable-background="new    ">
	<g id="Rounded_Rectangle_83_copy_4">
		<g>
			<path fill="#F5464D" d="M232.209,30.271H78.875c-4.424,0-8.009,3.589-8.009,8.016v0.802c0,4.427,0,8.016,0,8.016h169.353
				c0,0,0-3.589,0-8.016v-0.802C240.219,33.859,236.633,30.271,232.209,30.271z"/>
		</g>
	</g>
</g>
<g id="Shape_1_1_" enable-background="new    ">
	<g id="Shape_1">
	</g>
</g>
<g id="当社の製品_1_" enable-background="new    ">
	<g id="当社の製品">
		<g>
			<path fill="#FFFFFF" d="M179.515,56.65l1.643,0.64c0.493-0.738,1.124-1.87,1.478-2.769c0.215,0,0.367-0.062,0.43-0.173
				l-2.287-0.763C180.5,54.57,179.982,55.813,179.515,56.65z M178.517,53.647c0.265-0.037,0.366-0.123,0.379-0.259l-2.274-0.123
				v4.418h-3.752v1.748h7.77v0.812h-7.303v1.686h7.303v0.874h-8.073v1.748h8.073v0.455h1.857v-7.323h-3.979V53.647z M175.674,56.49
				c-0.253-0.788-0.847-1.92-1.491-2.77l-1.681,0.628c0.594,0.874,1.188,2.08,1.391,2.868L175.674,56.49z M188.206,59.025
				c0.594-0.837,1.099-1.76,1.453-2.695c0.101-0.049,0.189-0.123,0.228-0.222l-1.188-0.64l-0.278,0.062h-0.442v-1.871
				c0.253-0.049,0.367-0.135,0.379-0.271l-2.198-0.11v2.252h-1.731v1.612h3.02c-0.795,1.428-2.059,2.707-3.436,3.421
				c0.277,0.345,0.707,1.231,0.859,1.711c0.441-0.271,0.871-0.591,1.288-0.947v3.643h1.819v-4.246
				c0.379,0.382,0.758,0.775,1.011,1.096l1.074-1.465C189.785,60.133,188.825,59.432,188.206,59.025z M193.777,58.693h2.25v-1.735
				h-2.25v-3.163c0.266-0.049,0.379-0.136,0.393-0.271l-2.287-0.123v3.557h-2.236v1.735h2.236v4.159h-2.768v1.761h7.228v-1.761
				h-2.565V58.693z M202.924,54.312c-3.171,0-5.85,2.228-5.85,5.465c0,2.178,1.023,3.348,2.553,3.348c2.198,0,3.437-2.007,3.992-6.4
				c0.189,0,0.354-0.098,0.404-0.209l-1.895-0.406c0.252-0.037,0.492-0.062,0.758-0.062c2.033,0,3.486,1.096,3.486,3.064
				c0,1.772-0.998,3.102-3.865,3.655c0.53,0.505,0.947,1.12,1.238,1.575c3.246-0.849,4.688-2.388,4.688-5.268
				C208.434,56.281,206.475,54.312,202.924,54.312z M199.689,61.277c-0.53,0-0.72-0.677-0.72-1.575c0-1.575,1.049-2.966,2.666-3.471
				C201.471,58.865,200.776,61.277,199.689,61.277z M217.883,59.776c2.262,0,2.666-0.357,2.666-1.551v-4.541
				c0.252-0.037,0.341-0.123,0.354-0.259l-2.009-0.074v4.837c0,0.16-0.063,0.197-0.24,0.209c-0.177,0-0.796,0-1.288-0.024
				C217.566,58.755,217.807,59.357,217.883,59.776z M220.422,62.164c0.051,0.012,0.089,0.012,0.139,0.012
				c0.102,0,0.203-0.024,0.254-0.086l-0.973-0.751h1.199v-1.391h-4.902v-0.345c0.266-0.049,0.379-0.123,0.393-0.271l-1.391-0.073
				c0.354-0.173,0.443-0.432,0.443-0.985v-1.341h-2.187v-0.308h2.351v-1.17h-2.351v-0.332h1.996v-1.107h-1.996V53.61
				c0.24-0.049,0.329-0.123,0.341-0.246l-1.895-0.099v0.751h-0.48l0.062-0.185c0.14,0.012,0.24-0.024,0.291-0.123l-1.504-0.431
				c-0.15,0.627-0.416,1.341-0.732,1.784c0.215,0.099,0.493,0.246,0.746,0.394h-0.797v1.17h2.414v0.308h-1.971v2.498h1.363v-1.452
				h0.607v1.711h1.554v-1.711h0.657c0,0.382,0,0.431-0.127,0.431c-0.088,0-0.328,0-0.505-0.013c0.139,0.283,0.341,0.702,0.429,1.047
				h0.443v0.504h-4.852v1.391h3.07c-0.948,0.32-2.086,0.554-3.235,0.677c0.329,0.32,0.759,0.898,0.96,1.269
				c0.683-0.099,1.353-0.259,1.984-0.443v0.431c-0.493,0.049-0.961,0.086-1.352,0.11l0.644,1.601
				c0.102-0.013,0.19-0.087,0.215-0.197c1.149-0.136,2.906-0.345,4.587-0.566l-0.038-1.132c0.923,0.96,2.198,1.575,3.992,1.896
				c0.202-0.431,0.632-1.083,0.985-1.416c-0.935-0.123-1.73-0.319-2.413-0.615C219.412,62.693,220.018,62.386,220.422,62.164z
				 M211.844,55.456h-1.125c0.063-0.098,0.127-0.221,0.189-0.332h0.936V55.456z M213.979,63.111v-0.763
				c0.253-0.024,0.354-0.123,0.367-0.259l-0.203-0.024c0.367-0.185,0.695-0.394,1.012-0.615c0.265,0.554,0.58,1.033,0.959,1.452
				C215.394,62.976,214.674,63.05,213.979,63.111z M216.809,61.339h2.06c-0.417,0.271-0.897,0.566-1.352,0.788
				C217.251,61.893,217.011,61.635,216.809,61.339z M217.744,54.127c0.252-0.049,0.341-0.123,0.354-0.246l-1.984-0.11v4.11h1.631
				V54.127z M231.312,53.672h-6.811v4.972h6.811V53.672z M229.43,56.945h-3.158v-1.562h3.158V56.945z M228.305,59.48v5.415h1.757
				v-0.344h1.542v0.295h1.844V59.48H228.305z M231.604,62.841h-1.542v-1.649h1.542V62.841z M222.393,64.945h1.73v-0.382h1.453v0.332
				h1.832V59.48h-5.016V64.945z M224.123,61.191h1.453v1.661h-1.453V61.191z"/>
		</g>
	</g>
</g>
<g id="OUR_PRODUCTS">
	<g>
		<path fill="#FFFFFF" d="M85.514,35.333c2.204,0,3.987,0.669,5.351,2.009c1.364,1.339,2.046,2.897,2.046,4.674
			c0,1.802-0.691,3.365-2.074,4.688c-1.383,1.323-3.157,1.985-5.324,1.985c-2.191,0-3.975-0.659-5.352-1.976
			s-2.065-2.883-2.065-4.698c0-1.784,0.684-3.343,2.051-4.679S83.304,35.333,85.514,35.333z M85.514,45.986
			c1.222,0,2.207-0.365,2.953-1.095c0.747-0.73,1.121-1.688,1.121-2.875c0-1.193-0.374-2.153-1.121-2.88
			c-0.747-0.727-1.731-1.09-2.953-1.09c-1.229,0-2.218,0.363-2.968,1.09c-0.75,0.727-1.125,1.687-1.125,2.88
			c0,1.187,0.375,2.146,1.125,2.875C83.296,45.621,84.286,45.986,85.514,45.986z"/>
		<path fill="#FFFFFF" d="M104.362,35.5h3.222v7.392c0,1.901-0.559,3.343-1.676,4.325c-1.117,0.981-2.713,1.473-4.787,1.473
			c-2.049,0-3.64-0.497-4.773-1.492c-1.133-0.994-1.699-2.423-1.699-4.288V35.5h3.231v7.485c0,0.907,0.295,1.634,0.884,2.181
			s1.362,0.82,2.319,0.82c0.994,0,1.788-0.28,2.384-0.839c0.595-0.56,0.893-1.354,0.893-2.386V35.5z"/>
		<path fill="#FFFFFF" d="M109.907,35.5h5.777c1.253,0,2.271,0.365,3.055,1.095c0.784,0.729,1.176,1.613,1.176,2.65
			c0,1.435-0.741,2.497-2.222,3.186c0.649,0.297,1.266,1.098,1.852,2.402c0.585,1.304,1.149,2.534,1.694,3.689h-3.536
			c-0.211-0.429-0.579-1.246-1.103-2.451c-0.525-1.206-0.974-1.979-1.347-2.321c-0.374-0.341-0.773-0.513-1.199-0.513h-0.926v5.285
			h-3.222V35.5z M113.129,37.886v2.964h1.704c0.543,0,0.974-0.129,1.292-0.387c0.318-0.258,0.477-0.626,0.477-1.104
			c0-0.981-0.614-1.473-1.842-1.473H113.129z"/>
		<path fill="#FFFFFF" d="M127.188,35.5h5.769c1.308,0,2.348,0.382,3.12,1.146c0.771,0.765,1.157,1.668,1.157,2.712
			c0,1.082-0.381,2.007-1.144,2.778s-1.801,1.156-3.115,1.156h-2.565v5.229h-3.222V35.5z M130.411,37.886v3.02h1.5
			c1.339,0,2.009-0.503,2.009-1.51c0-0.565-0.179-0.958-0.537-1.179s-0.969-0.331-1.833-0.331H130.411z"/>
		<path fill="#FFFFFF" d="M139.02,35.5h5.777c1.253,0,2.271,0.365,3.056,1.095c0.783,0.729,1.176,1.613,1.176,2.65
			c0,1.435-0.741,2.497-2.223,3.186c0.649,0.297,1.267,1.098,1.852,2.402s1.15,2.534,1.695,3.689h-3.536
			c-0.211-0.429-0.579-1.246-1.104-2.451s-0.973-1.979-1.347-2.321c-0.373-0.341-0.772-0.513-1.199-0.513h-0.926v5.285h-3.222V35.5z
			 M142.241,37.886v2.964h1.704c0.543,0,0.974-0.129,1.291-0.387c0.318-0.258,0.478-0.626,0.478-1.104
			c0-0.981-0.614-1.473-1.843-1.473H142.241z"/>
		<path fill="#FFFFFF" d="M157.951,35.333c2.204,0,3.987,0.669,5.352,2.009c1.364,1.339,2.047,2.897,2.047,4.674
			c0,1.802-0.691,3.365-2.074,4.688c-1.383,1.323-3.157,1.985-5.324,1.985c-2.191,0-3.975-0.659-5.352-1.976
			c-1.376-1.317-2.064-2.883-2.064-4.698c0-1.784,0.684-3.343,2.051-4.679S155.742,35.333,157.951,35.333z M157.951,45.986
			c1.223,0,2.207-0.365,2.954-1.095c0.746-0.73,1.12-1.688,1.12-2.875c0-1.193-0.374-2.153-1.12-2.88
			c-0.747-0.727-1.731-1.09-2.954-1.09c-1.229,0-2.217,0.363-2.967,1.09s-1.125,1.687-1.125,2.88c0,1.187,0.375,2.146,1.125,2.875
			S156.723,45.986,157.951,45.986z"/>
		<path fill="#FFFFFF" d="M167.189,35.5h5.703c2.204,0,3.946,0.607,5.227,1.822c1.281,1.215,1.921,2.786,1.921,4.712
			c0,2.02-0.649,3.605-1.948,4.758c-1.3,1.153-3.152,1.729-5.561,1.729h-5.342V35.5z M170.411,37.886v8.249h2.103
			c1.363,0,2.407-0.377,3.129-1.132c0.723-0.755,1.083-1.751,1.083-2.987c0-1.28-0.365-2.289-1.097-3.025s-1.782-1.104-3.152-1.104
			H170.411z"/>
		<path fill="#FFFFFF" d="M191.529,35.5h3.222v7.392c0,1.901-0.559,3.343-1.676,4.325c-1.117,0.981-2.712,1.473-4.786,1.473
			c-2.05,0-3.641-0.497-4.773-1.492c-1.132-0.994-1.698-2.423-1.698-4.288V35.5h3.231v7.485c0,0.907,0.294,1.634,0.884,2.181
			s1.362,0.82,2.319,0.82c0.994,0,1.788-0.28,2.384-0.839c0.596-0.56,0.894-1.354,0.894-2.386V35.5z"/>
		<path fill="#FFFFFF" d="M209.128,44.551v2.843c-1.617,0.864-3.312,1.296-5.083,1.296c-2.296,0-4.125-0.639-5.485-1.916
			c-1.361-1.277-2.042-2.851-2.042-4.721c0-1.87,0.718-3.458,2.152-4.763c1.436-1.305,3.311-1.958,5.625-1.958
			c1.846,0,3.407,0.382,4.685,1.146v2.899c-1.567-0.889-3.052-1.333-4.453-1.333c-1.376,0-2.501,0.371-3.375,1.114
			c-0.873,0.743-1.31,1.688-1.31,2.838c0,1.156,0.431,2.109,1.291,2.861c0.861,0.752,1.965,1.128,3.311,1.128
			c0.666,0,1.309-0.089,1.926-0.266C206.986,45.543,207.906,45.154,209.128,44.551z"/>
		<path fill="#FFFFFF" d="M222.894,35.5v2.386h-4.685v10.635h-3.222V37.886h-4.686V35.5H222.894z"/>
		<path fill="#FFFFFF" d="M233.159,36.339v2.545c-1.716-0.777-3.083-1.165-4.102-1.165c-0.58,0-1.042,0.098-1.385,0.293
			c-0.342,0.196-0.514,0.455-0.514,0.778c0,0.249,0.124,0.485,0.37,0.708c0.247,0.224,0.849,0.513,1.806,0.867
			s1.723,0.684,2.297,0.988c0.573,0.305,1.069,0.733,1.485,1.287c0.417,0.553,0.625,1.252,0.625,2.097
			c0,1.206-0.455,2.166-1.365,2.88c-0.911,0.715-2.109,1.072-3.598,1.072c-1.604,0-3.16-0.419-4.666-1.258v-2.806
			c0.864,0.584,1.63,1.01,2.296,1.277c0.667,0.267,1.374,0.401,2.12,0.401c1.266,0,1.898-0.4,1.898-1.202
			c0-0.273-0.127-0.531-0.38-0.773s-0.863-0.537-1.829-0.885s-1.731-0.671-2.296-0.969s-1.052-0.724-1.463-1.277
			c-0.41-0.553-0.615-1.262-0.615-2.125c0-1.119,0.447-2.022,1.343-2.708c0.895-0.687,2.093-1.03,3.592-1.03
			C230.162,35.333,231.622,35.668,233.159,36.339z"/>
	</g>
</g>
</svg>
