<?xml version="1.0" encoding="utf-8"?>
<!-- Generator: Adobe Illustrator 16.0.0, SVG Export Plug-In . SVG Version: 6.00 Build 0)  -->
<!DOCTYPE svg PUBLIC "-//W3C//DTD SVG 1.1//EN" "http://www.w3.org/Graphics/SVG/1.1/DTD/svg11.dtd">
<svg version="1.1" id="plane_1_" xmlns="http://www.w3.org/2000/svg" xmlns:xlink="http://www.w3.org/1999/xlink" x="0px" y="0px"
	 width="302px" height="505px" viewBox="0 0 302 505" enable-background="new 0 0 302 505" xml:space="preserve">
<g id="Shape_56_copy_6" opacity="0.102">
	<g>
		<path d="M265.198,317.953L266,311l-21,17c0,0-1.592,37.613,4,33c11.076-9.138,14-24,14-24l0.608-5.273
			c4.034,0.324,8.433,0.418,12.64-0.026c13.018-1.375,14.912-2.302,17.583-4.745C296.239,324.751,270.32,319.053,265.198,317.953z
			 M265,457l-38-16c0,0-0.213-0.482-2.548,0.013l-68.585-28.605c17.511-22.188,49.021-53.557,107.151-99.005
			C272.223,306.207,261,304,261,304s-8.882,6.948-22.725,17.921L250,312l-20.322-8.663c0,0-4.42-2.637-1.896,6.796
			c2.417,9.036,8.647,12.559,9.168,12.84c-25.35,20.104-66.231,52.836-100.196,81.462L58.845,371.94C61.499,371.306,63,372,63,372
			s-26.646-12.471-39-15c-9.193-1.882-21.43,0.158-12,8c5.647,4.695,18.152,10.578,27.281,14.544L39,380l84.301,35.873
			c-20.918,17.968-37.482,33.147-43.198,40.699c-11.568,15.287-14.93,22.759-14.18,27.047C65.338,483.235,65,483,65,483l1.273,1.818
			c0.314,0.756,0.786,1.397,1.375,1.965L72,493l10,4c0,0,1.734,0.217,6-1s32.227-14.637,36-19s8.262-15.5,9-19
			c0.203-0.964-0.035-0.865-0.688-0.035c1.7-6.939,3.812-16.724,13.975-32.311L227,460l1.101-0.579L244,466c0,0,29.055,6.933,31,1
			S265,457,265,457z M84.113,491.485c0.789-0.073,1.602-0.179,2.438-0.316C85.829,491.416,85.007,491.514,84.113,491.485z"/>
	</g>
</g>
<g id="Shape_52_copy">
	<g>
		<path fill="#ED1C24" d="M261,6c0,0-160.371,125.448-180.897,152.572S64.882,188.221,73.165,192
			c9.659,4.408,27.635,0.485,52.835-20c17.07-13.877-19.717-34.058,137.019-156.598C272.223,8.207,261,6,261,6z"/>
	</g>
</g>
<g id="Shape_56">
	<g>
		<path fill="#BF1A20" d="M132.961,121.982L133,122C133,122,133.04,121.795,132.961,121.982z M163.204,78.352l-27.017,23.793
			c-4.421,3.893-2.608,7.749,1.812,3.855l28-24C169.674,79.482,168.372,76.576,163.204,78.352z M123,121c1.57,5.88-7,9-7,9l9,4
			c0,0,5.562-4.223,7-9c0.63-2.095,0.872-2.807,0.961-3.018L122,117C122,117,122.481,119.056,123,121z M175.204,85.352
			l-27.017,23.793c-2.072,1.825-2.273,4.984-0.448,7.057s4.984,2.272,7.058,0.447l27.016-23.793
			c2.072-1.825,2.273-4.984,0.448-7.057S177.276,83.526,175.204,85.352z M246,54c-0.628-8.549-1-24-1-24l-5,3c0,0,0.999,17.355,2,22
			s5,9,5,9S246.384,59.227,246,54z"/>
	</g>
</g>
<g id="Shape_54">
	<g>
		<path fill="#FFFFFF" d="M119,176c-6.233,5.834-27.089,14.737-32,17c-6.32,2.912-22-8-22-8l7,10l10,4c0,0,1.734,0.217,6-1
			s32.227-14.637,36-19s8.262-15.5,9-19S128.675,166.946,119,176z M39,82l188,80l19-10L47,69L39,82z M123,141l-15-6
			c0,0-16.15,11.094-24,20c-7.85,8.906-12,23-12,23l11,4c0,0,14.235-7.224,21-12S123,141,123,141z M245,30c0,0-1.592,37.613,4,33
			c11.076-9.138,14-24,14-24l3-26L245,30z"/>
	</g>
</g>
<g id="Shape_56_copy_5">
	<g>
		<path fill="#ED1C24" d="M237,26l13-11l-20.322-8.663c0,0-4.42-2.637-1.896,6.796C230.304,22.565,237,26,237,26z M12,68
			c9.431,7.842,38,19,38,19s1.283-8.636,6-11c4.408-2.208,7-1,7-1S36.354,62.529,24,60C14.807,58.118,2.57,60.158,12,68z M265,160
			l-38-16c0,0-0.378-0.902-6,1s-6,12-6,12l29,12c0,0,29.055,6.933,31,1S265,160,265,160z M264.318,20.766L248.334,32.34
			c0,0,14.897,3.734,27.914,2.36c13.018-1.375,14.912-2.302,17.583-4.745C296.502,27.511,264.318,20.766,264.318,20.766z"/>
	</g>
</g>
<g id="Shape_63">
	<g>
		<path fill="#6DCFF6" d="M97,160c-6.639,8.804-14,22-14,22s17.658-8.603,24-15c6.343-6.397,16-26,16-26S103.64,151.196,97,160z"/>
	</g>
</g>
<g id="Shape_64">
	<g>
		<path fill="#98D9F3" d="M85,154c0,0-3.402,2.931-8,11c-2.536,4.45-5,13-5,13l11,4c0,0,12.392-21.094,14-22S85,154,85,154z"/>
	</g>
</g>
<g id="Ellipse_17_copy_3">
	<g>
		<path fill="#FF0000" d="M132,107c-4.418,0-8,2.463-8,5.5s3.582,5.5,8,5.5s8-2.463,8-5.5S136.418,107,132,107z M256.672,35.301
			c-2.924-0.825-6.266,1.954-7.465,6.206c-1.2,4.252,0.197,8.368,3.121,9.192c2.924,0.825,6.266-1.953,7.466-6.206
			C260.993,40.241,259.596,36.125,256.672,35.301z"/>
	</g>
</g>
<g id="Ellipse_17_copy_4">
	<g>
		<path fill="#FFFFFF" d="M257.092,37.497c-1.86-0.525-3.977,1.204-4.727,3.861c-0.749,2.658,0.151,5.238,2.012,5.763
			c1.86,0.525,3.976-1.204,4.726-3.861C259.853,40.602,258.952,38.021,257.092,37.497z M133,108c-2.762,0-5,1.567-5,3.5
			s2.238,3.5,5,3.5s5-1.567,5-3.5S135.762,108,133,108z"/>
	</g>
</g>
<g id="Ellipse_17_copy_5">
	<g>
		<path fill="#FF0000" d="M134,109c-1.657,0-3,0.896-3,2s1.343,2,3,2s3-0.896,3-2S135.657,109,134,109z M257.301,38.595
			c-1.062-0.3-2.289,0.75-2.739,2.345c-0.449,1.595,0.048,3.13,1.11,3.431c1.063,0.3,2.29-0.75,2.74-2.345
			C258.861,40.431,258.364,38.895,257.301,38.595z"/>
	</g>
</g>
<g id="Shape_65_copy">
	<g>
		<path fill="#FFFFFF" d="M44,74c-2.739,3.815-4,9-4,9l4,2c0.035,0.301,1.312-6.768,4-10c2.118-2.546,8-3,8-3l-4-2
			C52,70,46.74,70.185,44,74z M232,146c0,0-3.05-0.654-6,3c-3.109,3.852-4.954,12.191-3,12l3,1c0.035,0.301,1.312-7.768,4-11
			c2.118-2.547,7-3,7-3L232,146z"/>
	</g>
</g>
<g id="Shape_66" opacity="0.102">
	<g>
		<path d="M236,25l13-10c0,0-20.938-8.93-22-9s0.53,4.761,1,9S236,25,236,25z M123,141l-17,28l-22,13c0,0-0.674,1.202-2,6
			c-1.261,4.565,1,7,1,7s2.608,4.502,6,3c9.933-4.396,29.54-12.561,34-18c4.346-5.3,7.764-11.005,10-21c3.248-14.518,13-32,13-32
			l-7-2L123,141z M265.139,160.625c-8.2-3.609-228.296-95.295-228.296-95.295s-2.285-1.807-13.012-3.96
			c-11.459-2.302-12,0.037-12,0.037l262.342,110.189C274.173,171.597,280.036,167.183,265.139,160.625z"/>
	</g>
</g>
</svg>
