<?xml version="1.0" encoding="utf-8"?>
<!-- Generator: Adobe Illustrator 16.0.0, SVG Export Plug-In . SVG Version: 6.00 Build 0)  -->
<!DOCTYPE svg PUBLIC "-//W3C//DTD SVG 1.1//EN" "http://www.w3.org/Graphics/SVG/1.1/DTD/svg11.dtd">
<svg version="1.1" xmlns="http://www.w3.org/2000/svg" xmlns:xlink="http://www.w3.org/1999/xlink" x="0px" y="0px" width="128px"
	 height="51px" viewBox="0 0 128 51" enable-background="new 0 0 128 51" xml:space="preserve">
<g id="Shape_306_1_" enable-background="new    ">
	<g id="Shape_306">
		<g>
			<path fill="#FFF200" d="M112.766,20.504h-3.73l0.533,11.149h3.197c0,0,2.135-1.639,2.131-5.84
				C114.892,21.611,112.766,20.504,112.766,20.504z"/>
		</g>
	</g>
</g>
<g id="Shape_301_copy_1_" enable-background="new    ">
	<g id="Shape_301_copy">
		<g>
			<path d="M114.94,7.238c0,0-17.59,1.935-21.221,2.991c-3.631,1.056-3.335,6.355-3.335,6.355s1.477,1.787,3.335,2.616
				s4.244-0.747,4.244-0.747s0.075-2.683,0.606-4.486s16.73-5.854,16.977-6.355C115.792,7.112,114.94,7.238,114.94,7.238z"/>
		</g>
	</g>
</g>
<g id="Shape_297_1_" enable-background="new    ">
	<g id="Shape_297">
		<g>
			<path fill="#ED1C24" d="M112.193,26.344c-0.369-4.793-2.106-7.434-2.106-7.434l-64.45-5.84l1.264,29.202l62.765-9.557
				C109.666,32.716,112.562,31.137,112.193,26.344z"/>
		</g>
	</g>
</g>
<g id="Shape_304_1_" enable-background="new    ">
	<g id="Shape_304">
		<g>
			<path fill="#FF8085" d="M95.717,19.973c-1.15-1.356-1.598-1.593-1.598-1.593l-44.22-3.187c0,0,0.882,1.055,1.065,3.187
				c0.184,2.131,0.533,3.717,0.533,3.717l44.219,1.593C95.717,23.689,96.867,21.329,95.717,19.973z"/>
		</g>
	</g>
</g>
<g id="Shape_305_1_" enable-background="new    ">
	<g id="Shape_305">
		<g>
			<path fill="#FFFFFF" d="M105.84,16.787H86.66c0,0,4.137,0.423,4.262,9.557c0.117,8.553-2.664,9.558-2.664,9.558h17.582
				c0,0,3.357-4.532,3.195-10.619C108.874,19.195,105.84,16.787,105.84,16.787z"/>
		</g>
	</g>
</g>
<g id="Ellipse_102_copy_2_1_" enable-background="new    ">
	<g id="Ellipse_102_copy_2">
		<g>
			<path fill="#B4B4B4" d="M97.443,26.875c-0.66,0-1.193,0.595-1.193,1.327c0,0.733,0.533,1.328,1.193,1.328
				c0.658,0,1.193-0.595,1.193-1.328C98.637,27.47,98.102,26.875,97.443,26.875z M100.512,26.875c-0.659,0-1.193,0.595-1.193,1.327
				c0,0.733,0.534,1.328,1.193,1.328s1.193-0.595,1.193-1.328C101.705,27.47,101.171,26.875,100.512,26.875z M103.58,26.875
				c-0.658,0-1.193,0.595-1.193,1.327c0,0.733,0.535,1.328,1.193,1.328c0.659,0,1.193-0.595,1.193-1.328
				C104.773,27.47,104.239,26.875,103.58,26.875z"/>
		</g>
	</g>
</g>
<g id="Shape_307_1_" enable-background="new    ">
	<g id="Shape_307">
	</g>
</g>
<g id="Shape_299_1_" enable-background="new    ">
	<g id="Shape_299">
		<g>
			<path fill="#4B4B4B" d="M50.406,26.244c-0.284-14.476-4.565-13.705-4.565-13.705s-16.702-1.916-16.187,15.814
				c0.449,15.424,17.432,13.705,17.432,13.705S50.781,45.342,50.406,26.244z"/>
		</g>
	</g>
</g>
<g id="Shape_300_1_" enable-background="new    ">
	<g id="Shape_300">
		<g>
			<path fill="#4B4B4B" d="M31.119,25.282l-27.57,3.54l27.171,1.77c0,0,1.646-0.357,1.598-2.655
				C32.27,25.64,31.119,25.282,31.119,25.282z"/>
		</g>
	</g>
</g>
<g id="Ellipse_97_1_" enable-background="new    ">
	<g id="Ellipse_97">
		<g>
			<path fill="#818181" d="M41.588,14.895c-0.99-0.747-4.035,0.445-6.801,2.664c-2.766,2.218-4.205,4.621-3.215,5.367
				c0.991,0.747,4.036-0.445,6.801-2.663C41.139,18.045,42.579,15.642,41.588,14.895z"/>
		</g>
	</g>
</g>
<g id="Ellipse_98_1_" enable-background="new    ">
	<g id="Ellipse_98">
		<g>
			<ellipse fill="#B4B4B4" cx="43.239" cy="35.105" rx="3.463" ry="3.452"/>
		</g>
	</g>
</g>
<g id="Ellipse_99_1_" enable-background="new    ">
	<g id="Ellipse_99">
		<g>
			<ellipse fill="#9E0B0F" cx="65.35" cy="26.344" rx="9.058" ry="9.026"/>
		</g>
	</g>
</g>
<g id="Ellipse_100_1_" enable-background="new    ">
	<g id="Ellipse_100">
		<g>
			<ellipse fill="#FFFFFF" cx="64.305" cy="25.302" rx="5.922" ry="5.902"/>
		</g>
	</g>
</g>
<g id="Ellipse_101_1_" enable-background="new    ">
	<g id="Ellipse_101">
		<g>
			<circle fill="#9E0B0F" cx="63.488" cy="24.469" r="4.266"/>
		</g>
	</g>
</g>
<g id="Shape_301_1_" enable-background="new    ">
	<g id="Shape_301">
		<g>
			<path fill="#4B4B4B" d="M123.365,45.01c-0.288-0.587-19.281-5.337-19.904-7.452c-0.622-2.115-0.711-5.261-0.711-5.261
				s-2.797-1.849-4.975-0.876c-2.18,0.972-3.91,3.068-3.91,3.068s-0.348,6.214,3.91,7.452c4.256,1.238,24.879,3.507,24.879,3.507
				S123.652,45.597,123.365,45.01z"/>
		</g>
	</g>
</g>
<g id="Shape_302_1_" enable-background="new    ">
	<g id="Shape_302">
		<g>
			<path fill="#3D3D3D" d="M98.022,13.713c-4.526,2.1-4.437,6.26-4.437,6.26s1.475,1.968,4.262,2.654
				c2.787,0.688,4.992-1.929,4.992-1.929s-0.909-0.738,0-4.191c0.91-3.452,19.711-6.287,19.711-6.287V8.823
				C122.551,8.823,102.548,11.613,98.022,13.713z"/>
		</g>
	</g>
</g>
<g id="Shape_303_1_" enable-background="new    ">
	<g id="Shape_303">
	</g>
</g>
<g id="Shape_308_1_" enable-background="new    ">
	<g id="Shape_308">
		<g>
			<path fill="#818181" d="M97.807,38.291c-0.35-1.458-0.683-5.462-0.683-5.462l-2.05,1.707c0,0-0.309,3.464,1.367,4.778
				c1.675,1.314,6.146,1.707,6.146,1.707S98.156,39.748,97.807,38.291z"/>
		</g>
	</g>
</g>
<g id="Shape_309_1_" enable-background="new    ">
	<g id="Shape_309">
		<g>
			<path fill="#818181" d="M100.881,14.056c0,0-3.717,0.721-4.203,1.655c-0.488,0.936-1.262,2.069-1.262,2.069
				s0.81,0.996,1.262,1.035c0.451,0.039,0.84,0,0.84,0s-0.324-1.728,0.631-2.69S100.881,14.056,100.881,14.056z"/>
		</g>
	</g>
</g>
</svg>
