<?xml version="1.0" encoding="utf-8"?>
<!-- Generator: Adobe Illustrator 16.0.0, SVG Export Plug-In . SVG Version: 6.00 Build 0)  -->
<!DOCTYPE svg PUBLIC "-//W3C//DTD SVG 1.1//EN" "http://www.w3.org/Graphics/SVG/1.1/DTD/svg11.dtd">
<svg version="1.1" xmlns="http://www.w3.org/2000/svg" xmlns:xlink="http://www.w3.org/1999/xlink" x="0px" y="0px" width="51px"
	 height="128px" viewBox="0 0 51 128" enable-background="new 0 0 51 128" xml:space="preserve">
<g id="Shape_306_1_" enable-background="new    ">
	<g id="Shape_306">
		<g>
			<path fill="#FFF200" d="M19.346,109.568v3.197c0,0,1.639,2.136,5.841,2.131c4.202-0.005,5.309-2.131,5.309-2.131v-3.729
				L19.346,109.568z"/>
		</g>
	</g>
</g>
<g id="Shape_301_copy_1_" enable-background="new    ">
	<g id="Shape_301_copy">
		<g>
			<path d="M43.762,114.94c0,0-1.935-17.59-2.991-21.221c-1.056-3.631-6.354-3.335-6.354-3.335s-1.788,1.477-2.617,3.335
				s0.748,4.244,0.748,4.244s2.682,0.075,4.485,0.606c1.804,0.53,5.854,16.731,6.355,16.977S43.762,114.94,43.762,114.94z"/>
		</g>
	</g>
</g>
<g id="Shape_297_1_" enable-background="new    ">
	<g id="Shape_297">
		<g>
			<path fill="#ED1C24" d="M8.727,46.9l9.558,62.766c0,0,1.578,2.896,6.372,2.527c4.793-0.369,7.434-2.106,7.434-2.106l5.84-64.45
				L8.727,46.9z"/>
		</g>
	</g>
</g>
<g id="Shape_304_1_" enable-background="new    ">
	<g id="Shape_304">
		<g>
			<path fill="#FF8085" d="M32.621,50.965c-2.132,0.183-3.717,0.532-3.717,0.532l-1.594,44.22c0,0,2.36,1.15,3.717,0
				s1.594-1.599,1.594-1.599l3.186-44.219C35.807,49.899,34.752,50.781,32.621,50.965z"/>
		</g>
	</g>
</g>
<g id="Shape_305_1_" enable-background="new    ">
	<g id="Shape_305">
		<g>
			<path fill="#FFFFFF" d="M24.656,90.922c-8.553,0.118-9.558-2.664-9.558-2.664v17.581c0,0,4.533,3.358,10.619,3.197
				c6.087-0.162,8.495-3.197,8.495-3.197V86.66C34.213,86.66,33.79,90.796,24.656,90.922z"/>
		</g>
	</g>
</g>
<g id="Ellipse_102_copy_2_1_" enable-background="new    ">
	<g id="Ellipse_102_copy_2">
		<g>
			<path fill="#B4B4B4" d="M22.798,98.637c0.733,0,1.327-0.535,1.327-1.193c0-0.659-0.594-1.193-1.327-1.193
				c-0.733,0-1.328,0.534-1.328,1.193C21.47,98.102,22.064,98.637,22.798,98.637z M22.798,102.387c-0.733,0-1.328,0.534-1.328,1.193
				s0.594,1.193,1.328,1.193c0.733,0,1.327-0.534,1.327-1.193S23.531,102.387,22.798,102.387z M22.798,99.318
				c-0.733,0-1.328,0.534-1.328,1.193s0.594,1.193,1.328,1.193c0.733,0,1.327-0.534,1.327-1.193S23.531,99.318,22.798,99.318z"/>
		</g>
	</g>
</g>
<g id="Shape_307_1_" enable-background="new    ">
	<g id="Shape_307">
	</g>
</g>
<g id="Shape_299_1_" enable-background="new    ">
	<g id="Shape_299">
		<g>
			<path fill="#4B4B4B" d="M22.647,29.654C7.223,30.103,8.941,47.086,8.941,47.086s-3.283,3.694,15.814,3.32
				c14.476-0.284,13.706-4.565,13.706-4.565S40.377,29.138,22.647,29.654z"/>
		</g>
	</g>
</g>
<g id="Shape_300_1_" enable-background="new    ">
	<g id="Shape_300">
		<g>
			<path fill="#4B4B4B" d="M22.178,3.549l-1.77,27.171c0,0,0.357,1.646,2.655,1.598c2.298-0.048,2.655-1.198,2.655-1.198
				L22.178,3.549z"/>
		</g>
	</g>
</g>
<g id="Ellipse_97_1_" enable-background="new    ">
	<g id="Ellipse_97">
		<g>
			<path fill="#818181" d="M33.441,34.786c-2.217-2.766-4.621-4.205-5.367-3.214c-0.748,0.99,0.445,4.035,2.663,6.801
				s4.621,4.205,5.368,3.215C36.852,40.598,35.66,37.553,33.441,34.786z"/>
		</g>
	</g>
</g>
<g id="Ellipse_98_1_" enable-background="new    ">
	<g id="Ellipse_98">
		<g>
			<ellipse fill="#B4B4B4" cx="15.895" cy="43.239" rx="3.451" ry="3.463"/>
		</g>
	</g>
</g>
<g id="Ellipse_99_1_" enable-background="new    ">
	<g id="Ellipse_99">
		<g>
			<ellipse fill="#9E0B0F" cx="24.656" cy="65.349" rx="9.026" ry="9.057"/>
		</g>
	</g>
</g>
<g id="Ellipse_100_1_" enable-background="new    ">
	<g id="Ellipse_100">
		<g>
			<ellipse fill="#FFFFFF" cx="25.697" cy="64.304" rx="5.901" ry="5.922"/>
		</g>
	</g>
</g>
<g id="Ellipse_101_1_" enable-background="new    ">
	<g id="Ellipse_101">
		<g>
			<circle fill="#9E0B0F" cx="26.531" cy="63.488" r="4.266"/>
		</g>
	</g>
</g>
<g id="Shape_301_1_" enable-background="new    ">
	<g id="Shape_301">
		<g>
			<path fill="#4B4B4B" d="M19.579,97.774c-0.972-2.178-3.068-3.909-3.068-3.909s-6.213-0.348-7.452,3.909
				c-1.239,4.258-3.507,24.88-3.507,24.88s-0.148,0.998,0.438,0.711c0.586-0.288,5.336-19.281,7.452-19.904
				c2.115-0.622,5.26-0.71,5.26-0.71S20.551,99.953,19.579,97.774z"/>
		</g>
	</g>
</g>
<g id="Shape_302_1_" enable-background="new    ">
	<g id="Shape_302">
		<g>
			<path fill="#3D3D3D" d="M37.287,98.022c-2.1-4.525-6.26-4.437-6.26-4.437s-1.968,1.475-2.654,4.262
				c-0.688,2.787,1.929,4.993,1.929,4.993s0.738-0.91,4.191,0c3.452,0.909,6.286,19.71,6.286,19.71h1.398
				C42.178,122.551,39.387,102.548,37.287,98.022z"/>
		</g>
	</g>
</g>
<g id="Shape_303_1_" enable-background="new    ">
	<g id="Shape_303">
	</g>
</g>
<g id="Shape_308_1_" enable-background="new    ">
	<g id="Shape_308">
		<g>
			<path fill="#818181" d="M16.464,95.075c0,0-3.464-0.31-4.778,1.365c-1.315,1.676-1.707,6.147-1.707,6.147
				s1.273-4.432,2.731-4.781c1.457-0.35,5.461-0.683,5.461-0.683L16.464,95.075z"/>
		</g>
	</g>
</g>
<g id="Shape_309_1_" enable-background="new    ">
	<g id="Shape_309">
		<g>
			<path fill="#818181" d="M35.289,96.677c-0.936-0.486-2.07-1.261-2.07-1.261s-0.994,0.81-1.034,1.261
				c-0.039,0.452,0,0.841,0,0.841s1.728-0.324,2.69,0.631s2.068,2.732,2.068,2.732S36.224,97.164,35.289,96.677z"/>
		</g>
	</g>
</g>
</svg>
