<?xml version="1.0" encoding="utf-8"?>
<!-- Generator: Adobe Illustrator 16.0.0, SVG Export Plug-In . SVG Version: 6.00 Build 0)  -->
<!DOCTYPE svg PUBLIC "-//W3C//DTD SVG 1.1//EN" "http://www.w3.org/Graphics/SVG/1.1/DTD/svg11.dtd">
<svg version="1.1" xmlns="http://www.w3.org/2000/svg" xmlns:xlink="http://www.w3.org/1999/xlink" x="0px" y="0px" width="358px"
	 height="378px" viewBox="0 0 358 378" enable-background="new 0 0 358 378" xml:space="preserve">
<g id="ship_1_">
	<g id="Rounded_Rectangle_1_copy_3" opacity="0.502">
		<g>
			<path fill="#739FB0" d="M355,199l-21.242-0.121L316,190H22l-6,7l115.635,0.728L4,197c0,0,17.79,16.408,28.365,15.327
				c1.16-0.118,2.479-0.236,3.89-0.354c2.87,2.787,14.431,13.417,25.02,14.629c3.24,0.371,19.941,0.545,42.724,0.601v11.286
				l-0.162-8.444c0,0-12.755,12.477-33.729,12.08c-20.974-0.396-36.94-7.248-36.94-7.248s38.779,51.106,37.744,66.036
				c-1.035,14.929-12.046,31.406-12.046,31.406s-7.836-1.057,21.683,17.717c7.017,4.463,18.615,5.391,23.451,5.584V373h4v-17.465
				c7.079-10.392,33.822-50.433,46.432-80.394c8.466-20.118,15.477-33.137,19.879-40.536c1.713,2.418,2.213,5.868,1.927,9.924
				c-0.073,0.007-0.123,0.011-0.123,0.011s0.048,0.011,0.12,0.027c-0.69,9.641-5.818,22.705-9.757,33.574
				c-5.785,15.962-40.153,70.062-40.153,70.062s3.015,2.961,33.729,13.69c4.73,1.653,8.761,2.812,12.202,3.597
				c-3.821,6.457-5.777,9.51-5.777,9.51s3.306-3.356,8.455-8.955c10.158,1.905,14.354,0.147,16.067-1.457V373h4v-30.032
				c16.654-20.324,35.127-46.296,38.935-65.41c5.665-28.438,6.89-44.921,7.154-50.739c8.141-0.046,15.235-0.088,20.911-0.123v4.414
				c-5.387-1.011-21.832-3.673-16.02,2.74c2.198,2.426,2.849,6.177,2.533,10.673c-0.073,0.011-0.124,0.018-0.124,0.018
				s0.047,0.03,0.116,0.076c-0.704,9.636-5.82,22.674-9.753,33.525c-5.784,15.962-40.153,70.062-40.153,70.062
				s3.015,2.961,33.729,13.69c1.97,0.688,3.815,1.289,5.551,1.815c-0.962,1.524-1.535,2.433-1.535,2.433s0.874-0.771,2.411-2.177
				c13.914,4.099,20.319,3.136,23.245,1.53V373h4v-36.361c16.112-17.729,33.333-40.135,36.195-57.471
				c4.978-30.158,2.358-50.69,1.73-54.796c0.241,2.505-0.37,10.465-16.989,13.726c-7.45,1.462-14.738,2.733-20.937,3.753V226.67
				c6.646-0.042,10.497-0.068,10.497-0.068s6.534,0.005,9.263-5.188c6.542,0.889,12.599,1.825,18.141,2.788
				c0.008,0.051,0.018,0.115,0.025,0.171c-0.006-0.06-0.012-0.115-0.019-0.169C319.218,226.864,355,199,355,199z M53.466,210.944
				c11.431-0.481,26.233-0.788,44.531-0.687C80.124,210.48,64.58,210.739,53.466,210.944z M108,344.261v-98.48
				c1.671,11.523,3.594,27.63,3.869,42.246C112.19,305.105,109.767,329.239,108,344.261z M139.977,233.266
				c-15.75-0.573-27.154-2.073-31.977-2.806v-3.249c20.792,0.037,46.026-0.016,70.568-0.103
				C174.939,228.434,158.631,233.944,139.977,233.266z M191,231.357c-1.665-0.337-8.733-1.701-13.645-1.658
				c0.876-1.342,1.474-2.191,1.764-2.594c3.988-0.014,7.953-0.029,11.881-0.045V231.357z M195,315.905v-59.338
				c2.462,2.453,5.029,5.39,7.615,8.91C208.259,273.164,202.62,295.07,195,315.905z M209.04,242.93
				c-4.656,0.027-9.52,0.188-14.04,0.396v-16.282c15.912-0.066,30.996-0.143,43.772-0.213
				C233.604,231.834,220.881,242.858,209.04,242.93z M277.3,275.947c1.646,10.347-5.742,29.63-11.3,41.536v-58.812
				C271.509,264.063,276.397,270.275,277.3,275.947z"/>
		</g>
	</g>
	<g id="Shape_39">
		<g>
			<path fill="#D2F0FC" d="M245.98,149.15c-6.914,7.629,17.667,2.416,17.667,2.416l0.804-131.266c0,0-1.409-9.925-32.123,0.806
				S198.6,34.797,198.6,34.797s34.369,54.101,40.153,70.062C244.537,120.82,252.895,141.522,245.98,149.15z M173.705,149.15
				c-6.914,7.629,17.667,2.416,17.667,2.416l0.803-131.266c0,0-1.408-9.925-32.122,0.806s-33.729,13.69-33.729,13.69
				s34.368,54.101,40.153,70.062C172.262,120.82,180.619,141.522,173.705,149.15z M276.497,156.398c0,0-203.021-1.396-215.221,0
				s-25.698,15.301-25.698,15.301s251.358,5.653,251.358-4.832C286.937,156.383,276.497,156.398,276.497,156.398z"/>
		</g>
	</g>
	<g id="Shape_41_copy_3">
		<g>
			<path fill="#94C6DA" d="M85,156c0,0,1.094-0.93-10,0c-11.093,0.93-13,13-13,13h20c0,0-2.598-0.809,0-6s13-7,13-7H85z M106,156
				c-11.094,0.93-13,13-13,13h20c0,0-2.597-0.809,0-6c2.598-5.191,13-7,13-7h-10C116,156,117.094,155.07,106,156z M185,135
				c-6.079,14.344-8,17-8,17h14l-1-134c0,0-11.57-4.832-21-1s-15,6-15,6s-0.629,32.321,18,50C184.637,84.992,191.08,120.656,185,135
				z M140,156c-11.094,0.93-13,13-13,13h20c0,0-2.598-0.809,0-6s13-7,13-7h-10C150,156,151.094,155.07,140,156z M175,156
				c-11.094,0.93-13,12-13,12h19.93c-0.396-0.016-2.269-0.326,0.07-5c2.598-5.191,13-7,13-7h-10C185,156,186.094,155.07,175,156z
				 M248,152h14l-1-134c0,0-11.57-4.832-21-1s-15,6-15,6s57.438,49.806,25,64c-15.96,6.983,12.079,33.656,6,48S248,152,248,152z"/>
		</g>
	</g>
	<g id="Rectangle_2_copy_2">
		<g>
			<path fill="#739FB0" d="M106,157h3V7h-3V157z M193,157h3V7h-3V157z M264,7v150h3V7H264z"/>
		</g>
	</g>
	<g id="Shape_36">
		<g>
			<path fill="#FFFFFF" d="M191,53.666v73.426c-8.48,7.098-14.886,8.368-14.886,8.368s6.431,0.554,14.886,1.012V157h4v-20.326
				c4.521,0.209,9.384,0.369,14.04,0.397c15.317,0.091,32.122,18.521,32.122,18.521s0.01-16.82-7.228-53.15
				c-3.808-19.114-22.28-45.086-38.935-65.41V7h-4v25.214C177.68,16.371,166.478,5,166.478,5s3.266,5.093,9.637,16.106
				C178.617,25.435,184.925,38.501,191,53.666z M195,64.095c7.62,20.835,13.259,42.741,7.615,50.428
				c-2.586,3.521-5.153,6.457-7.615,8.911V64.095z M70.109,137.876c20.974-0.396,33.729,12.08,33.729,12.08l0.162-8.444V157h4v-7.46
				c4.822-0.732,16.227-2.232,31.977-2.806c21.184-0.771,39.35,6.442,39.35,6.442s-10.289-13.611-24.895-48.318
				C141.822,74.897,115.079,34.856,108,24.465V7h-4v17.381c-4.835,0.193-16.434,1.121-23.451,5.584
				C51.03,48.738,58.867,47.682,58.867,47.682s11.011,16.478,12.046,31.407s-37.744,66.035-37.744,66.035
				S49.136,138.272,70.109,137.876z M108,35.739c1.767,15.022,4.19,39.155,3.869,56.234c-0.274,14.616-2.197,30.723-3.869,42.246
				V35.739z M302.195,100.832C299.333,83.496,282.112,61.091,266,43.361V7h-4v32.028c-13.731-14.651-25.656-25.17-25.656-25.17
				s21.012,33.291,24.895,39.46c0.221,0.351,0.479,0.788,0.762,1.287v70.424c-6.945,6.093-13.61,10.431-13.61,10.431
				s5.463,0.745,13.61,2.043V157h4v-18.85c6.198,1.019,13.486,2.291,20.937,3.752c16.619,3.262,17.23,11.221,16.989,13.726
				C304.554,151.523,307.173,130.99,302.195,100.832z M277.3,104.053c-0.902,5.672-5.791,11.884-11.3,17.275V62.517
				C271.558,74.423,278.945,93.707,277.3,104.053z M303.907,155.797c0.007-0.054,0.013-0.108,0.019-0.169
				c-0.008,0.057-0.018,0.12-0.025,0.171c-13.577,2.359-30.075,4.58-49.89,6.236c-126.034,10.54-198.582,7.993-221.645,5.638
				C21.791,166.592,4,183,4,183l351-2C355,181,319.218,153.136,303.907,155.797z"/>
		</g>
	</g>
	<g id="Rounded_Rectangle_1_copy_2">
		<g>
			<path fill="#739FB0" d="M126.237,177h14.526c2.34,0,4.236-0.896,4.236-2s-1.896-2-4.236-2h-14.526c-2.34,0-4.237,0.896-4.237,2
				S123.897,177,126.237,177z M93.237,177h14.526c2.34,0,4.237-0.896,4.237-2s-1.897-2-4.237-2H93.237c-2.34,0-4.237,0.896-4.237,2
				S90.897,177,93.237,177z M306.5,174c9.113,0,16.5-2.687,16.5-6s-7.387-6-16.5-6c-9.112,0-16.5,2.687-16.5,6
				S297.388,174,306.5,174z M16,183l6,7h294l18-9L16,183z M60.237,177h14.526c2.34,0,4.237-0.896,4.237-2s-1.896-2-4.237-2H60.237
				c-2.34,0-4.237,0.896-4.237,2S57.897,177,60.237,177z"/>
		</g>
	</g>
	<g id="Ellipse_1_copy_7">
		<g>
			<path fill="#ED1C24" d="M125.473,64.086c-4.742-1-6.784,7.106-4.56,18.106c2.224,11,7.871,20.728,12.612,21.729
				c4.742,1,6.784-7.106,4.56-18.106C135.861,74.814,130.215,65.087,125.473,64.086z M217.473,77.084
				c-4.742-0.976-6.783,6.929-4.56,17.653s7.871,20.21,12.612,21.186c4.742,0.975,6.784-6.929,4.561-17.653
				C227.861,87.544,222.215,78.06,217.473,77.084z M300.085,98.27c-2.224-10.726-7.87-20.21-12.612-21.186s-6.783,6.929-4.56,17.653
				s7.871,20.21,12.612,21.186C300.268,116.897,302.31,108.994,300.085,98.27z"/>
		</g>
	</g>
	<g id="Ellipse_1_copy_7_1_">
		<g>
			<path fill="#FFFFFF" d="M220.297,82.442c-2.767-0.568-4.025,3.712-2.812,9.562c1.213,5.85,4.438,11.054,7.205,11.622
				c2.767,0.569,4.025-3.712,2.812-9.562C226.289,88.215,223.063,83.012,220.297,82.442z M128.297,69.582
				c-2.767-0.583-4.025,3.808-2.812,9.808s4.439,11.337,7.205,11.92c2.767,0.584,4.025-3.807,2.812-9.807
				S131.062,70.166,128.297,69.582z M297.502,94.065c-1.213-5.851-4.439-11.054-7.205-11.623c-2.767-0.568-4.025,3.712-2.812,9.562
				c1.213,5.85,4.438,11.054,7.205,11.622C297.455,104.196,298.715,99.915,297.502,94.065z"/>
		</g>
	</g>
	<g id="Ellipse_1_copy_7_2_">
		<g>
			<path fill="#ED1C24" d="M129.596,71.813c-1.581-0.333-2.316,2.099-1.643,5.433c0.674,3.333,2.502,6.306,4.082,6.639
				c1.581,0.334,2.316-2.099,1.643-5.432S131.176,72.147,129.596,71.813z M221.595,84.618c-1.58-0.325-2.315,2.046-1.642,5.296
				s2.502,6.148,4.082,6.474c1.581,0.325,2.316-2.046,1.643-5.296S223.176,84.943,221.595,84.618z M295.678,91.092
				c-0.674-3.25-2.502-6.148-4.083-6.474c-1.58-0.325-2.315,2.046-1.642,5.296s2.502,6.148,4.082,6.474
				C295.616,96.713,296.352,94.342,295.678,91.092z"/>
		</g>
	</g>
</g>
<g id="Shape_40_1_" enable-background="new    ">
	<g id="Shape_40">
		<g>
			<path fill="#E6E6E6" d="M87,29c-8.596,4.16-15,8-15,8s31.382,35.936,23,41c-21.58,13.037,6.234,28.051-11,36s-26,23-26,23
				s17.312-4.482,31,2s14,11,14,11V25C103,25,95.596,24.84,87,29z"/>
		</g>
	</g>
</g>
<g id="Rectangle_1_1_" enable-background="new    ">
	<g id="Rectangle_1">
		<g>
			<polygon fill="#666666" points="17,183.8 20,188 326,185.2 332,181 			"/>
		</g>
	</g>
</g>
</svg>
