<?xml version="1.0" encoding="utf-8"?>
<!-- Generator: Adobe Illustrator 16.0.0, SVG Export Plug-In . SVG Version: 6.00 Build 0)  -->
<!DOCTYPE svg PUBLIC "-//W3C//DTD SVG 1.1//EN" "http://www.w3.org/Graphics/SVG/1.1/DTD/svg11.dtd">
<svg version="1.1" xmlns="http://www.w3.org/2000/svg" xmlns:xlink="http://www.w3.org/1999/xlink" x="0px" y="0px" width="346px"
	 height="316px" viewBox="0 0 346 316" enable-background="new 0 0 346 316" xml:space="preserve">
<g id="Ellipse_21_copy_4_1_" opacity="0.302" enable-background="new    ">
	<g id="Ellipse_21_copy_4">
		<g>
			<path d="M175,237c-79.529,0-144,5.828-144,13.019c0,2.538,8.064,4.905,21.96,6.907c-1.912,1.277-2.96,2.64-2.96,4.056
				C50,268.172,76.639,274,109.5,274c18.969,0,35.853-1.944,46.746-4.97c6.602,0.553,13.763,0.858,21.254,0.858
				c11.811,0,22.812-0.754,32.066-2.053c5.25,2.125,12.248,3.423,19.934,3.423c9.757,0,18.398-2.092,23.766-5.313
				c2.615,0.335,5.375,0.518,8.234,0.518c12.708,0,23.537-3.546,27.688-8.519c18.684-2.194,29.812-4.941,29.812-7.926
				C319,242.828,254.529,237,175,237z"/>
		</g>
	</g>
</g>
<g id="Ellipse_14_copy_1_" enable-background="new    ">
	<g id="Ellipse_14_copy">
		<g>
			<ellipse fill="#FFFFFF" cx="205" cy="203" rx="48" ry="46"/>
		</g>
	</g>
</g>
<g id="Ellipse_13_1_" enable-background="new    ">
	<g id="Ellipse_13">
		<g>
			<ellipse fill="#FFFFFF" cx="272" cy="115.5" rx="42" ry="38.5"/>
		</g>
	</g>
</g>
<g id="Ellipse_12_1_" enable-background="new    ">
	<g id="Ellipse_12">
		<g>
			<ellipse fill="#FFFFFF" cx="175.5" cy="80" rx="23.5" ry="25"/>
		</g>
	</g>
</g>
<g id="Ellipse_9_1_" enable-background="new    ">
	<g id="Ellipse_9">
		<g>
			<path fill="#F4F2F2" d="M321.401,165.874c1.672-3.528,2.599-7.361,2.599-11.374c0-17.18-16.812-31.138-37.708-31.483
				c1.721-2.551,2.708-5.442,2.708-8.517c0-7.06-5.133-13.191-12.676-16.31C278.043,93.718,279,88.956,279,84
				c0-25.405-24.4-46-54.5-46c-29.951,0-54.25,20.395-54.489,45.627c-8.083,0.895-15.727,2.737-22.666,5.399
				C141.589,69.452,121.457,55,97.5,55C69.057,55,46,75.371,46,100.5S69.057,146,97.5,146c4.902,0,9.637-0.618,14.129-1.748
				c0.089,0.293,0.197,0.581,0.294,0.873c-2.19,2.507-4.165,5.256-5.896,8.205C98.013,149.3,88.803,147,79,147
				c-30.928,0-56,22.834-56,51c0,28.167,25.072,51,56,51c17.272,0,32.712-7.125,42.984-18.319C129.05,235.327,137.248,238,146,238
				c13.352,0,25.425-6.193,34.127-16.184C189.014,228.671,202.01,233,216.5,233c1.451,0,2.885-0.052,4.305-0.137
				C232.354,243.422,248.551,250,266.5,250c35.07,0,63.5-25.072,63.5-56C330,183.744,326.859,174.142,321.401,165.874z
				 M251.621,139.562c-0.055,0.012-0.11,0.021-0.165,0.033c0.341-2,0.544-4.029,0.544-6.095c0-1.197-0.08-2.381-0.199-3.557
				c1.967,1.001,4.138,1.78,6.45,2.305C255.628,134.398,253.399,136.866,251.621,139.562z"/>
		</g>
	</g>
</g>
<g id="Ellipse_10_1_" enable-background="new    ">
	<g id="Ellipse_10">
		<g>
			<circle fill="#FFFFFF" cx="117" cy="105" r="44"/>
		</g>
	</g>
</g>
<g id="Ellipse_11_1_" enable-background="new    ">
	<g id="Ellipse_11">
		<g>
			<ellipse fill="#FFFFFF" cx="132.5" cy="168.5" rx="51.5" ry="39.5"/>
		</g>
	</g>
</g>
<g id="Ellipse_18_1_" enable-background="new    ">
	<g id="Ellipse_18">
		<g>
			<circle fill="#FFFFFF" cx="42" cy="116" r="20"/>
		</g>
	</g>
</g>
<g id="Ellipse_19_1_" enable-background="new    ">
	<g id="Ellipse_19">
		<g>
			<path fill="#FFFFFF" d="M304.5,64c-5.247,0-9.5,4.253-9.5,9.5s4.253,9.5,9.5,9.5s9.5-4.253,9.5-9.5S309.747,64,304.5,64z M256,90
				c-7.18,0-13,5.82-13,13s5.82,13,13,13s13-5.82,13-13S263.18,90,256,90z"/>
		</g>
	</g>
</g>
<g id="Ellipse_20_1_" enable-background="new    ">
	<g id="Ellipse_20">
		<g>
			<circle fill="#FFFFFF" cx="285" cy="152" r="18"/>
		</g>
	</g>
</g>
<g id="Ellipse_14_1_" enable-background="new    ">
	<g id="Ellipse_14">
		<g>
			<ellipse fill="#FFFFFF" cx="211" cy="152" rx="48" ry="46"/>
		</g>
	</g>
</g>
<g id="Ellipse_15_1_" enable-background="new    ">
	<g id="Ellipse_15">
		<g>
			<circle fill="#FFFFFF" cx="99" cy="212" r="39"/>
		</g>
	</g>
</g>
<g id="Ellipse_16_1_" enable-background="new    ">
	<g id="Ellipse_16">
		<g>
			<ellipse fill="#FFFFFF" cx="169.5" cy="199" rx="26.5" ry="22"/>
		</g>
	</g>
</g>
<g id="Ellipse_17_1_" enable-background="new    ">
	<g id="Ellipse_17">
		<g>
			<ellipse fill="#FFFFFF" cx="258.5" cy="211.5" rx="43.5" ry="39.5"/>
		</g>
	</g>
</g>
</svg>
