<?xml version="1.0" encoding="utf-8"?>
<!-- Generator: Adobe Illustrator 16.0.0, SVG Export Plug-In . SVG Version: 6.00 Build 0)  -->
<!DOCTYPE svg PUBLIC "-//W3C//DTD SVG 1.1//EN" "http://www.w3.org/Graphics/SVG/1.1/DTD/svg11.dtd">
<svg version="1.1" id="Layer_1" xmlns="http://www.w3.org/2000/svg" xmlns:xlink="http://www.w3.org/1999/xlink" x="0px" y="0px"
	 width="150px" height="171px" viewBox="0 0 150 171" enable-background="new 0 0 150 171" xml:space="preserve">
<g id="Shape_1_1_" opacity="0.302" enable-background="new    ">
	<g id="Shape_1">
		<g>
			<path d="M102.279,67.535C92.904,42.268,64.931,29.426,39.8,38.853C14.669,48.28,1.897,76.406,11.273,101.674
				c8.604,23.188,32.866,35.895,56.223,30.551l13.875,16.123l0.324-21.837C101.453,114.664,110.607,89.979,102.279,67.535z"/>
		</g>
	</g>
</g>
<g id="Shape_1_copy_1_" enable-background="new    ">
	<g id="Shape_1_copy_3_">
		<g>
			<path fill="#ED1C24" d="M82.594,7.167c-32.701,0-59.21,26.564-59.21,59.333c0,30.068,22.327,54.896,51.271,58.786l9.015,24.278
				l9.627-24.717c27.588-5.052,48.508-29.244,48.508-58.349C141.805,33.731,115.295,7.167,82.594,7.167z"/>
		</g>
		<g>
			<path fill="none" stroke="#FFFFFF" stroke-width="3" stroke-miterlimit="10" d="M82.594,7.167
				c-32.701,0-59.21,26.564-59.21,59.333c0,30.068,22.327,54.896,51.271,58.786l9.015,24.278l9.627-24.717
				c27.588-5.052,48.508-29.244,48.508-58.349C141.805,33.731,115.295,7.167,82.594,7.167z"/>
		</g>
	</g>
</g>
<g id="Ellipse_2_1_" enable-background="new    ">
	<g id="Ellipse_2">
		<g>
			<circle fill="#9E0B0F" cx="85.271" cy="65.5" r="46.5"/>
		</g>
	</g>
</g>
<g id="Rectangle_4_copy_2_1_" enable-background="new    ">
	<g id="Rectangle_4_copy_2_3_">
		<g>
			<path fill="#8DC63F" d="M131.771,41.612c0-3.217-9.345-13.814-9.345-13.814l0.076-1.553h0.81v-2.018
				c0.153-0.306,0.242-0.647,0.242-1.01v-4.89c0-1.286-1.082-2.328-2.416-2.328h-8.218c-1.334,0-2.416,1.042-2.416,2.328v4.89
				c0,0.362,0.088,0.704,0.24,1.01v2.018h1.086l0.006,1.553c0,0-9.065,10.598-9.065,13.814c0,0,2.176,22.068,2.176,35.856
				c0,6.049-1.209,10.707-1.209,10.707c0,3.218,3.1,5.824,6.922,5.824h14.189c3.821,0,6.922-2.606,6.922-5.824
				c0,0-1.449-4.331-1.449-10.475C130.322,63.962,131.771,41.612,131.771,41.612z"/>
		</g>
	</g>
</g>
<g id="coming_soon">
	<rect x="41.004" y="49.232" fill="none" width="90.076" height="87.741"/>
	<g enable-background="new    ">
		<path fill="#FFFFFF" d="M55.36,68.312c-0.576,0.264-1.776,0.504-3.097,0.504c-4.032,0-6.601-2.521-6.601-6.841
			c0-4.08,2.641-7.152,7.177-7.152c1.056,0,2.064,0.216,2.665,0.432l-0.6,3.192c-0.432-0.144-1.008-0.312-1.848-0.312
			c-1.92,0-3.145,1.487-3.121,3.672c0,2.353,1.344,3.672,3.145,3.672c0.744,0,1.368-0.119,1.896-0.336L55.36,68.312z"/>
		<path fill="#FFFFFF" d="M69.352,61.735c0,5.257-3.384,7.104-6.336,7.104c-3.744,0-6.312-2.592-6.312-6.937
			c0-4.536,2.736-7.104,6.457-7.104C67.024,54.799,69.352,57.68,69.352,61.735z M63.063,57.871c-1.584,0-2.088,2.064-2.088,3.937
			c0,2.256,0.648,3.96,2.088,3.96c1.368,0,2.016-1.8,2.016-3.96C65.08,59.815,64.504,57.871,63.063,57.871z"/>
		<path fill="#FFFFFF" d="M90.592,68.576h-4.152v-7.537c0-1.704-0.383-2.808-1.535-2.808c-0.984,0-1.681,0.84-1.681,2.208v8.137
			h-4.152v-7.873c0-1.319-0.336-2.472-1.512-2.472c-0.624,0-1.704,0.504-1.704,2.232v8.112h-4.153v-9.192
			c0-1.608-0.048-3.049-0.096-4.32h3.6l0.192,1.68h0.072c0.625-0.84,1.8-1.944,3.72-1.944c1.656,0,2.856,0.792,3.385,2.064h0.047
			c0.529-0.769,1.753-2.064,3.841-2.064c2.641,0,4.128,1.969,4.128,5.568V68.576z"/>
		<path fill="#FFFFFF" d="M95.535,53.551c-1.271,0-2.16-0.912-2.16-2.136c0-1.272,0.912-2.16,2.16-2.16
			c1.271,0,2.16,0.888,2.16,2.16C97.695,52.687,96.76,53.551,95.535,53.551z M97.647,68.576h-4.225V55.063h4.225V68.576z"/>
		<path fill="#FFFFFF" d="M112.432,68.576h-4.225v-7.849c0-1.416-0.432-2.448-1.632-2.448c-0.888,0-1.824,0.648-1.824,2.376v7.921
			h-4.225v-9.192c0-1.608-0.048-3.049-0.096-4.32h3.624l0.217,1.704h0.071c0.601-0.912,1.872-1.969,3.745-1.969
			c2.832,0,4.344,2.04,4.344,5.545V68.576z"/>
		<path fill="#FFFFFF" d="M127.168,55.063c-0.049,1.056-0.121,2.328-0.121,4.176v7.585c0,3.384-0.791,7.393-7.008,7.393
			c-1.584,0-3.145-0.288-4.272-0.84l0.768-3.217c0.792,0.408,2.017,0.792,3.36,0.792c1.848,0,2.977-1.104,2.977-3.24v-0.744h-0.049
			c-0.672,0.96-1.799,1.488-3.047,1.488c-3.241,0-5.09-3-5.09-6.553c0-4.344,2.449-7.104,5.473-7.104
			c1.44,0,2.496,0.648,3.121,1.729h0.048l0.192-1.464H127.168z M122.822,60.367c0-1.512-0.815-2.231-1.703-2.231
			c-1.32,0-2.185,1.487-2.185,3.696c0,2.111,0.815,3.456,2.136,3.456c0.912,0,1.752-0.601,1.752-2.305V60.367z"/>
	</g>
	<g enable-background="new    ">
		<path fill="#FFFFFF" d="M68.176,76.472c-0.576-0.312-1.536-0.673-2.497-0.673c-0.936,0-1.416,0.408-1.416,1.009
			c0,0.552,0.408,0.888,1.896,1.512c2.352,0.984,3.24,2.376,3.264,4.104c0,2.784-2.112,4.393-5.521,4.393
			c-1.512,0-3.024-0.36-3.888-0.889l0.72-3.023c0.672,0.407,2.064,0.888,3.145,0.888c1.056,0,1.56-0.36,1.56-1.008
			c0-0.648-0.384-0.984-1.752-1.536c-2.592-1.08-3.384-2.593-3.384-3.984c0-2.545,2.017-4.465,5.185-4.465
			c1.392,0,2.592,0.336,3.408,0.721L68.176,76.472z"/>
		<path fill="#FFFFFF" d="M83.512,79.735c0,5.257-3.384,7.104-6.336,7.104c-3.744,0-6.312-2.592-6.312-6.937
			c0-4.536,2.736-7.104,6.457-7.104C81.184,72.799,83.512,75.68,83.512,79.735z M77.224,75.871c-1.584,0-2.088,2.064-2.088,3.937
			c0,2.256,0.647,3.96,2.088,3.96c1.368,0,2.017-1.8,2.017-3.96C79.24,77.815,78.664,75.871,77.224,75.871z"/>
		<path fill="#FFFFFF" d="M97.816,79.735c0,5.257-3.385,7.104-6.337,7.104c-3.744,0-6.312-2.592-6.312-6.937
			c0-4.536,2.736-7.104,6.456-7.104C95.488,72.799,97.816,75.68,97.816,79.735z M91.527,75.871c-1.584,0-2.088,2.064-2.088,3.937
			c0,2.256,0.648,3.96,2.088,3.96c1.368,0,2.016-1.8,2.016-3.96C93.543,77.815,92.968,75.871,91.527,75.871z"/>
		<path fill="#FFFFFF" d="M112.072,86.576h-4.225v-7.849c0-1.416-0.432-2.448-1.632-2.448c-0.888,0-1.824,0.648-1.824,2.376v7.921
			h-4.225v-9.192c0-1.608-0.048-3.049-0.096-4.32h3.624l0.217,1.704h0.071c0.601-0.912,1.872-1.969,3.745-1.969
			c2.832,0,4.344,2.04,4.344,5.545V86.576z"/>
	</g>
</g>
</svg>
