<?xml version="1.0" encoding="utf-8"?>
<!-- Generator: Adobe Illustrator 16.0.0, SVG Export Plug-In . SVG Version: 6.00 Build 0)  -->
<!DOCTYPE svg PUBLIC "-//W3C//DTD SVG 1.1//EN" "http://www.w3.org/Graphics/SVG/1.1/DTD/svg11.dtd">
<svg version="1.1" id="submarine_1_" xmlns="http://www.w3.org/2000/svg" xmlns:xlink="http://www.w3.org/1999/xlink" x="0px"
	 y="0px" width="448px" height="133px" viewBox="0 0 448 133" enable-background="new 0 0 448 133" xml:space="preserve">
<g id="Rounded_Rectangle_20_copy" opacity="0.8">
	<g>
		<path fill="#6B9CB5" d="M49,105.224h38.262c0.618,1.17,2.28,2.009,4.238,2.009h7c1.958,0,3.62-0.839,4.238-2.009h25.815
			c1.168,4.388,4.566,12.635,13.635,12.723H149v8.705c0,0.74,0.896,1.34,2,1.34s2-0.6,2-1.34v-8.705h12v10.715
			c0,0.739,0.896,1.339,2,1.339s2-0.6,2-1.339v-10.715h8v4.688c0,1.109,1.343,2.009,3,2.009s3-0.899,3-2.009v-4.688h6v7.701
			c0,0.555,0.672,1.004,1.5,1.004s1.5-0.449,1.5-1.004v-7.701h3.925c22.422,0,35.773-8.411,41.216-12.802
			C330.561,103.731,371,81,371,81H2C2,81,8.052,105.051,49,105.224z M418,79l-37,2c2.132,0.532,4.979,4.558,9,10.161
			c7.008,9.768,7,14.062,7,14.062h26L418,79z"/>
	</g>
</g>
<g id="Rounded_Rectangle_20">
	<g>
		<path fill="#FFF200" d="M195.925,29H192V17.5c0-0.828-0.672-1.5-1.5-1.5s-1.5,0.672-1.5,1.5V29h-6v-7c0-1.657-1.343-3-3-3
			s-3,1.343-3,3v7h-8V13c0-1.104-0.896-2-2-2s-2,0.896-2,2v16h-12V16c0-1.104-0.896-2-2-2s-2,0.896-2,2v13h-6.812
			c-9.068,0.132-12.467,12.447-13.635,19h-25.815c-0.618-1.747-2.28-3-4.238-3h-7c-1.958,0-3.62,1.253-4.238,3H49
			C8.052,48.258,2,81,2,81s51.958,11.459,197,10c76.555-0.771,174-10,174-10s-42.439-30.771-135.859-32.883
			C231.698,41.561,218.347,29,195.925,29z M380.491,80.879L378,81C378,81,378.907,81.469,380.491,80.879z M397,48
			c0,0,0.008,6.414-7,21c-4.021,8.368-7.377,11.084-9.509,11.879L419,79l4-31H397z"/>
	</g>
</g>
<g id="Ellipse_85">
	<g>
		<path fill="#DD3D3F" d="M407,34c-15.464,0-22,3.582-22,8s6.536,8,22,8s38-3.582,38-8S422.464,34,407,34z"/>
	</g>
</g>
<g id="Shape_284">
	<g>
		<path fill="#9E0B0F" d="M415,45c-13.35,1.011-29-2-29-2s2.077,7.768,27,7c13.808-0.425,31-8,31-8S428.35,43.989,415,45z"/>
	</g>
</g>
<g id="Shape_283">
	<g>
		<path fill="#E3D703" d="M126,51H45c-2.209,0-21,3.791-21,6s18.791,2,21,2h81c2.209,0,4-1.791,4-4S128.209,51,126,51z M233,50
			c0,0-14.144-15.881-22-17c-6.88-0.98-68.305-1.232-71,0s-2.964,0.491,0,3s29.414,3.418,41,3s12.985-2.886,26,0
			c11.866,2.631,17.79,11.202,17,13c-12.661,2.07-39.799,5.807-56,5c-30.602-1.523-35-8-35-8l1,7c0,0,36.207,5.453,46,5s56-4,56-4
			s19.426-0.184,35,1s27,11,27,11h43c0,0-42.074-13.184-55-15S233,50,233,50z M411,52l-16,26h20l4-28L411,52z"/>
	</g>
</g>
<g id="Ellipse_177_copy_2">
	<g>
		<path fill="#0076A3" d="M174.5,43c-2.485,0-4.5,2.015-4.5,4.5s2.015,4.5,4.5,4.5s4.5-2.015,4.5-4.5S176.985,43,174.5,43z
			 M201.5,42c-2.485,0-4.5,2.015-4.5,4.5s2.015,4.5,4.5,4.5s4.5-2.015,4.5-4.5S203.985,42,201.5,42z M188.5,43
			c-2.485,0-4.5,2.015-4.5,4.5s2.015,4.5,4.5,4.5s4.5-2.015,4.5-4.5S190.985,43,188.5,43z"/>
	</g>
</g>
<g id="Ellipse_177_copy_3">
	<g>
		<path fill="#6DCFF6" d="M175.5,44c-2.485,0-4.5,2.015-4.5,4.5s2.015,4.5,4.5,4.5s4.5-2.015,4.5-4.5S177.985,44,175.5,44z
			 M189.5,44c-2.485,0-4.5,2.015-4.5,4.5s2.015,4.5,4.5,4.5s4.5-2.015,4.5-4.5S191.985,44,189.5,44z M202.5,43
			c-2.485,0-4.5,2.015-4.5,4.5s2.015,4.5,4.5,4.5s4.5-2.015,4.5-4.5S204.985,43,202.5,43z"/>
	</g>
</g>
<g id="Rounded_Rectangle_44">
	<g>
		<path fill="#DD3D3F" d="M97,5.5C97,3.567,95.433,2,93.5,2h-5C86.567,2,85,3.567,85,5.5S86.567,9,88.5,9H92v38.5
			c0,1.381,1.119,2.5,2.5,2.5s2.5-1.119,2.5-2.5v-41c0-0.157-0.019-0.309-0.046-0.458C96.981,5.865,97,5.685,97,5.5z"/>
	</g>
</g>
<g id="Rounded_Rectangle_45">
	<g>
		<path fill="#9E0B0F" d="M87.5,3C86.672,3,86,3.672,86,4.5v2C86,7.328,86.672,8,87.5,8C88.329,8,89,7.328,89,6.5v-2
			C89,3.672,88.329,3,87.5,3z"/>
	</g>
</g>
<g id="Ellipse_87">
	<g>
		<ellipse fill="#FB6268" cx="407.5" cy="40.5" rx="10.5" ry="3.5"/>
	</g>
</g>
<g id="Ellipse_86">
	<g>
		<circle fill="#ED1C24" cx="408.5" cy="63.5" r="10.5"/>
	</g>
</g>
<g id="Ellipse_86_copy">
	<g>
		<circle fill="#FFFFFF" cx="410" cy="62" r="7"/>
	</g>
</g>
<g id="Ellipse_86_copy_2">
	<g>
		<circle fill="#ED1C24" cx="411" cy="60" r="4"/>
	</g>
</g>
<g id="Rectangle_64_copy_2">
	<g>
		<path fill="#ED1C24" d="M346.306,69.215c-2.851-1.19-5.876-2.429-9.139-3.753C233.065,74.497,125.262,74.062,12.92,64
			c-1.316,1.014-2.559,2.192-3.691,3.467C125.18,80.39,233.793,75.012,346.306,69.215z M358.175,74.385
			c-2.473-1.136-5.023-2.261-7.716-3.414c-116.61,6.065-225.396,11.505-342.842-1.532c-1.013,1.351-1.898,2.759-2.618,4.153
			C124.763,85.213,233.497,82.889,358.175,74.385z M361.835,76.103C233.153,86.026,124.612,86.15,4.048,75.665
			C3.503,77.028,3.141,78.342,3,79.534C124.393,87.882,232.28,91,369,79.704C366.614,78.447,364.247,77.26,361.835,76.103z"/>
	</g>
</g>
<g id="Shape_476">
	<g>
		<polygon fill="#FFF200" points="83,66 76,86 193,89 200,67 		"/>
	</g>
</g>
<g id="DRK">
	<g>
		<path fill="#ED1C24" d="M99.93,72.436l6.286,0.152c2.895,0.07,4.447,0.78,4.654,2.13l7.75,0.188
			c-0.037-0.465-0.146-0.916-0.328-1.353c-0.97-2.248-3.806-3.429-8.509-3.543l-22.505-0.545L85.366,74.1l13.748,0.333L99.93,72.436
			z M109,79.569c-0.612,1.474-2.943,2.218-6.992,2.231l-5.878-0.143l2.219-5.396L84.601,75.93l-3.291,8.011l22.673,0.549
			c5.166,0.125,8.842-0.642,11.027-2.302c0.962-0.729,1.694-1.567,2.197-2.516l1.148-2.78c0.001-0.064,0.01-0.112,0.027-0.144
			l-8.134-0.197L109,79.569z M155.404,77.645l-33.494-0.812l-3.291,8.011l13.748,0.333l2.475-6.038l0.912,0.022l2.825,6.263
			l13.748,0.332l-2.609-6.257l0.6,0.015C152.557,79.568,154.252,78.945,155.404,77.645z M137.239,73.34l6.286,0.151
			c3.071,0.075,4.729,0.644,4.977,1.705l-0.179,0.428l8.134,0.197c0.061-1.183-0.246-2.103-0.918-2.759
			c-0.944-1.304-3.76-2.027-8.445-2.173l-22.506-0.545l-1.913,4.658l13.748,0.333L137.239,73.34z M159.171,77.735l-3.291,8.011
			l13.748,0.333l2.475-6.038l0.912,0.022l2.825,6.263l13.748,0.332l-2.945-8.257L159.171,77.735z M185.947,76.392l9.66-4.327
			l-8.11-0.197l-11.03,4.438l9.525,0.23L185.947,76.392z M175.597,71.579l-13.748-0.333l-1.913,4.659l13.748,0.333L175.597,71.579z"
			/>
	</g>
</g>
</svg>
