<?xml version="1.0" encoding="utf-8"?>
<!-- Generator: Adobe Illustrator 16.0.0, SVG Export Plug-In . SVG Version: 6.00 Build 0)  -->
<!DOCTYPE svg PUBLIC "-//W3C//DTD SVG 1.1//EN" "http://www.w3.org/Graphics/SVG/1.1/DTD/svg11.dtd">
<svg version="1.1" id="train1-1_1_" xmlns="http://www.w3.org/2000/svg" xmlns:xlink="http://www.w3.org/1999/xlink" x="0px"
	 y="0px" width="102px" height="37px" viewBox="0 0 102 37" enable-background="new 0 0 102 37" xml:space="preserve">
<g id="Rounded_Rectangle_52">
	<g>
		<path fill="#FFFFFF" d="M66,2H0.5v35h82c9.665,0,17.5-7.835,17.5-17.5S75.665,2,66,2z"/>
	</g>
</g>
<g id="Rectangle_17_copy_4">
	<g>
		<path fill="#00BFF3" d="M94,7C83.131-3.869,71,2,71,2s1,3.778,1,8c0,6.337,0,14,0,14h28l1-1C101,23,104.031,17.032,94,7z M57,24h8
			v-8h-8V24z M45,24h8v-8h-8V24z M33,24h8v-8h-8V24z M21,24h8v-8h-8V24z M9,24h8v-8H9V24z"/>
	</g>
</g>
<g id="Ellipse_94">
	<g>
		<path fill="#C8EFFE" d="M91.125,8.318c-4.182-3.345-9.646-5.083-12.205-3.882c-2.559,1.202-1.244,4.889,2.938,8.233
			c4.182,3.346,9.646,5.084,12.205,3.883C96.621,15.351,95.306,11.664,91.125,8.318z"/>
	</g>
</g>
<g id="Rectangle_16">
	<g>
		<rect y="3" fill="#DADADA" width="72" height="7"/>
	</g>
</g>
<g id="Rounded_Rectangle_53_copy">
	<g>
		<path fill="#448CCB" d="M98,29H0v8h86c1.104,0,7.791-1.791,10-4C97.562,31.438,99.104,29,98,29z"/>
	</g>
</g>
<g id="Rounded_Rectangle_53">
	<g>
		<path fill="#ED1C24" d="M99,27H0v6h95c1.104,0,3.43-5.018,3-4C95.651,34.568,100.104,27,99,27z"/>
	</g>
</g>
</svg>
