<?xml version="1.0" encoding="utf-8"?>
<!-- Generator: Adobe Illustrator 16.0.0, SVG Export Plug-In . SVG Version: 6.00 Build 0)  -->
<!DOCTYPE svg PUBLIC "-//W3C//DTD SVG 1.1//EN" "http://www.w3.org/Graphics/SVG/1.1/DTD/svg11.dtd">
<svg version="1.1" id="train2_copy_1_" xmlns="http://www.w3.org/2000/svg" xmlns:xlink="http://www.w3.org/1999/xlink" x="0px"
	 y="0px" width="34px" height="99px" viewBox="0 0 34 99" enable-background="new 0 0 34 99" xml:space="preserve">
<g id="Rounded_Rectangle_55">
	<g>
		<path fill="#FFFFFF" d="M17.552,0.374C8.715,0.374,1-2.125,1,5.853v77.706c0,7.978,7.164,14.445,16,14.445
			c8.836,0,16-6.468,16-14.445V5.853C33-2.125,26.389,0.374,17.552,0.374z"/>
	</g>
</g>
<g id="Rectangle_18_copy">
	<g>
		<rect x="7" y="2" fill="#C1C1C1" width="21" height="77"/>
	</g>
</g>
<g id="Ellipse_95">
	<g>
		<path fill="#00BFF3" d="M17.552,77.719c-7.035,0.117-14.345-0.647-14.345,5.552C3.207,89.402,4.131,99,17.552,99
			c13.259,0,14.345-9.598,14.345-15.729C31.896,76.834,24.855,77.599,17.552,77.719z"/>
	</g>
</g>
<g id="Ellipse_96">
	<g>
		<path fill="#C8EFFE" d="M29.314,85.485c-0.98-1.17-3.582,0.149-5.812,2.945s-3.244,6.011-2.264,7.18
			c0.979,1.17,3.581-0.148,5.811-2.945C29.279,89.869,30.293,86.654,29.314,85.485z"/>
	</g>
</g>
<g id="Shape_297_copy_3">
	<g>
		<path fill="#DADADA" d="M33,21.849V18.86c0,0-2.451-4.88-9.932-6.472V2.921H12.035v9.663C5.157,14.159,1,17.864,1,17.864v2.988
			c0,0,3.903-4.334,11.035-6.165v12.841C5.157,29.103,1,32.808,1,32.808v2.988c0,0,3.903-4.334,11.035-6.165v11.844
			C5.157,43.05,1,46.755,1,46.755v2.988c0,0,3.903-4.334,11.035-6.165v13.837C5.157,58.989,1,62.694,1,62.694v2.988
			c0,0,3.903-4.334,11.035-6.165v19.116h11.034V59.218C30.736,60.96,33,66.68,33,66.68V63.69c0,0-2.451-4.88-9.932-6.472v-13.94
			C30.736,45.02,33,50.739,33,50.739v-2.988c0,0-2.451-4.88-9.932-6.472V29.331C30.736,31.072,33,36.793,33,36.793v-2.989
			c0,0-2.451-4.88-9.932-6.472V14.388C30.736,16.129,33,21.849,33,21.849z"/>
	</g>
</g>
<g id="Rectangle_17">
	<g>
		<rect x="16.448" y="2.366" fill="#ED1C24" width="3.311" height="76.709"/>
	</g>
</g>
</svg>
