<?xml version="1.0" encoding="utf-8"?>
<!-- Generator: Adobe Illustrator 16.0.0, SVG Export Plug-In . SVG Version: 6.00 Build 0)  -->
<!DOCTYPE svg PUBLIC "-//W3C//DTD SVG 1.1//EN" "http://www.w3.org/Graphics/SVG/1.1/DTD/svg11.dtd">
<svg version="1.1" id="train2_1_" xmlns="http://www.w3.org/2000/svg" xmlns:xlink="http://www.w3.org/1999/xlink" x="0px" y="0px"
	 width="34px" height="104px" viewBox="0 0 34 104" enable-background="new 0 0 34 104" xml:space="preserve">
<g id="Rounded_Rectangle_56">
	<g>
		<path fill="#737373" d="M29.5,99h-24c-1.381,0-2.5,1.119-2.5,2.5s1.119,2.5,2.5,2.5h24c1.381,0,2.5-1.119,2.5-2.5
			S30.881,99,29.5,99z"/>
	</g>
</g>
<g id="Rounded_Rectangle_55">
	<g>
		<path fill="#FFFFFF" d="M17,0.996c-8.836,0-16,6.468-16,14.445v77.706c0,7.978,7.715,5.479,16.552,5.479
			c8.837,0,15.448,2.499,15.448-5.479V15.441C33,7.464,25.836,0.996,17,0.996z"/>
	</g>
</g>
<g id="Rectangle_18">
	<g>
		<rect x="7" y="20" fill="#C1C1C1" width="21" height="77"/>
	</g>
</g>
<g id="Ellipse_95">
	<g>
		<path fill="#00BFF3" d="M17.552,0C4.131,0,3.207,9.598,3.207,15.729c0,6.199,7.31,5.436,14.345,5.552
			c7.304,0.12,14.345,0.885,14.345-5.552C31.896,9.598,30.811,0,17.552,0z"/>
	</g>
</g>
<g id="Ellipse_96">
	<g>
		<path fill="#C8EFFE" d="M27.049,6.335c-2.229-2.797-4.832-4.115-5.811-2.945c-0.98,1.169,0.033,4.384,2.264,7.18
			c2.23,2.797,4.832,4.115,5.812,2.945C30.293,12.346,29.279,9.131,27.049,6.335z"/>
	</g>
</g>
<g id="Shape_297_copy_3">
	<g>
		<path fill="#DADADA" d="M33,39.849V36.86c0,0-2.451-4.88-9.932-6.472v-9.468H12.035v9.663C5.157,32.159,1,35.864,1,35.864v2.988
			c0,0,3.903-4.334,11.035-6.165v12.84C5.157,47.103,1,50.808,1,50.808v2.988c0,0,3.903-4.334,11.035-6.165v11.844
			C5.157,61.05,1,64.755,1,64.755v2.988c0,0,3.903-4.334,11.035-6.165v13.837C5.157,76.989,1,80.694,1,80.694v2.988
			c0,0,3.903-4.334,11.035-6.165v19.116h11.034V77.218C30.736,78.96,33,84.68,33,84.68V81.69c0,0-2.451-4.88-9.932-6.472v-13.94
			C30.736,63.02,33,68.739,33,68.739v-2.988c0,0-2.451-4.88-9.932-6.472V47.331C30.736,49.072,33,54.793,33,54.793v-2.989
			c0,0-2.451-4.88-9.932-6.472V32.388C30.736,34.129,33,39.849,33,39.849z"/>
	</g>
</g>
<g id="Rectangle_17">
	<g>
		<rect x="16.448" y="19.925" fill="#ED1C24" width="3.311" height="76.709"/>
	</g>
</g>
</svg>
