<?xml version="1.0" encoding="utf-8"?>
<!-- Generator: Adobe Illustrator 16.0.0, SVG Export Plug-In . SVG Version: 6.00 Build 0)  -->
<!DOCTYPE svg PUBLIC "-//W3C//DTD SVG 1.1//EN" "http://www.w3.org/Graphics/SVG/1.1/DTD/svg11.dtd">
<svg version="1.1" id="train1-1_1_" xmlns="http://www.w3.org/2000/svg" xmlns:xlink="http://www.w3.org/1999/xlink" x="0px"
	 y="0px" width="107px" height="37px" viewBox="0 0 107 37" enable-background="new 0 0 107 37" xml:space="preserve">
<g id="Rounded_Rectangle_54">
	<g>
		<path fill="#737373" d="M104.5,5c-1.381,0-2.5,1.119-2.5,2.5v23c0,1.381,1.119,2.5,2.5,2.5s2.5-1.119,2.5-2.5v-23
			C107,6.119,105.881,5,104.5,5z"/>
	</g>
</g>
<g id="Rounded_Rectangle_52">
	<g>
		<path fill="#FFFFFF" d="M36,2C26.335,2,2,9.835,2,19.5S9.835,37,19.5,37h82V2H36z"/>
	</g>
</g>
<g id="Rectangle_17_copy_4">
	<g>
		<path fill="#00BFF3" d="M8,7C-2.031,17.032,1,23,1,23l1,1h28c0,0,0-7.663,0-14c0-4.222,1-8,1-8S18.869-3.869,8,7z M37,24h8v-8h-8
			V24z M49,24h8v-8h-8V24z M61,24h8v-8h-8V24z M73,24h8v-8h-8V24z M85,16v8h8v-8H85z"/>
	</g>
</g>
<g id="Ellipse_94">
	<g>
		<path fill="#C8EFFE" d="M23.08,4.437c-2.559-1.201-8.023,0.537-12.205,3.882c-4.181,3.346-5.497,7.032-2.938,8.234
			c2.559,1.201,8.023-0.537,12.205-3.883C24.324,9.325,25.639,5.639,23.08,4.437z"/>
	</g>
</g>
<g id="Rectangle_16">
	<g>
		<rect x="30" y="3" fill="#DADADA" width="72" height="7"/>
	</g>
</g>
<g id="Rounded_Rectangle_53_copy">
	<g>
		<path fill="#448CCB" d="M4,29c-1.104,0,0.438,2.438,2,4c2.209,2.209,8.896,4,10,4h86v-8H4z"/>
	</g>
</g>
<g id="Rounded_Rectangle_53">
	<g>
		<path fill="#ED1C24" d="M3,27c-1.104,0,3.349,7.568,1,2c-0.429-1.018,1.896,4,3,4h95v-6H3z"/>
	</g>
</g>
</svg>
