<?xml version="1.0" encoding="utf-8"?>
<!-- Generator: Adobe Illustrator 16.0.0, SVG Export Plug-In . SVG Version: 6.00 Build 0)  -->
<!DOCTYPE svg PUBLIC "-//W3C//DTD SVG 1.1//EN" "http://www.w3.org/Graphics/SVG/1.1/DTD/svg11.dtd">
<svg version="1.1" id="truck_top_copy_1_" xmlns="http://www.w3.org/2000/svg" xmlns:xlink="http://www.w3.org/1999/xlink" x="0px"
	 y="0px" width="37px" height="112px" viewBox="0 0 37 112" enable-background="new 0 0 37 112" xml:space="preserve">
<g id="Rectangle_48" opacity="0.2">
	<g>
		<rect x="1" y="19" width="34.326" height="91"/>
	</g>
</g>
<g id="Rectangle_46_copy_3">
	<g>
		<path fill="#737373" d="M1.673,35h8.75V2h-8.75V35z M1.673,89h8.75V56h-8.75V89z M27.25,89H36V56h-8.75V89z M27.25,2v33H36V2
			H27.25z"/>
	</g>
</g>
<g id="Rounded_Rectangle_73">
	<g>
		<path fill="#FFFFFF" d="M33.308,88c-1.408-41.031-2.039-7-5.384-7H11.769c-6.173-30.073-6.058,4.029-6.058,9s2.712,9,6.058,9
			h16.155C31.269,99,33.553,95.134,33.308,88z"/>
	</g>
</g>
<g id="Rectangle_43">
	<g>
		<rect x="3.692" y="13" fill="#8E8E8E" width="30.288" height="54"/>
	</g>
</g>
<g id="Rectangle_46">
	<g>
		<rect x="6.385" y="17" fill="#FFFFFF" width="24.904" height="47"/>
	</g>
</g>
<g id="Rectangle_45">
	<g>
		<rect x="16.481" y="10" fill="#8E8E8E" width="4.711" height="57"/>
	</g>
</g>
<g id="Rectangle_47">
	<g>
		<rect x="15.808" y="2" fill="#666666" width="6.058" height="4"/>
	</g>
</g>
<g id="Ellipse_137">
	<g>
		<ellipse fill="#FFFFFF" cx="11.096" cy="71" rx="1.346" ry="2"/>
	</g>
</g>
<g id="Rounded_Rectangle_74">
	<g>
		<path fill="#FF0000" d="M27.586,6H9.414C8.112,6,7.058,7.567,7.058,9.5S8.112,13,9.414,13h18.172c1.302,0,2.356-1.567,2.356-3.5
			S28.888,6,27.586,6z"/>
	</g>
</g>
<g id="Rectangle_44">
	<g>
		<rect x="13.115" y="12" fill="#FF0000" width="3.366" height="55"/>
	</g>
</g>
<g id="Rectangle_44_copy">
	<g>
		<rect x="21.192" y="12" fill="#FF0000" width="3.365" height="55"/>
	</g>
</g>
<g id="Rectangle_42">
	<g>
		<rect x="7.731" y="69" fill="#FF0000" width="23.558" height="21"/>
	</g>
</g>
<g id="Rounded_Rectangle_72">
	<g>
		<path fill="#00BFF3" d="M27.25,82H11.769c-3.717,0-2.692,4.478-2.692,10c0,5.523,3.013,9,6.73,9h7.403
			c3.718,0,6.731-3.477,6.731-9C29.942,86.478,30.967,82,27.25,82z"/>
	</g>
</g>
<g id="Ellipse_138">
	<g>
		<ellipse fill="#57D6F9" cx="20.52" cy="96" rx="5.385" ry="3"/>
	</g>
</g>
<g id="Ellipse_139">
	<g>
		<ellipse fill="#FFFFFF" cx="23.5" cy="94.5" rx="2.513" ry="2.5"/>
	</g>
</g>
<g id="Ellipse_140">
	<g>
		<circle fill="#FFFFFF" cx="13.002" cy="77" r="2"/>
	</g>
</g>
<g id="Ellipse_140_copy">
	<g>
		<circle fill="#FFFFFF" cx="19.001" cy="77" r="2"/>
	</g>
</g>
<g id="Ellipse_140_copy_2">
	<g>
		<circle fill="#FFFFFF" cx="25" cy="77" r="2"/>
	</g>
</g>
</svg>
