<?xml version="1.0" encoding="utf-8"?>
<!-- Generator: Adobe Illustrator 16.0.0, SVG Export Plug-In . SVG Version: 6.00 Build 0)  -->
<!DOCTYPE svg PUBLIC "-//W3C//DTD SVG 1.1//EN" "http://www.w3.org/Graphics/SVG/1.1/DTD/svg11.dtd">
<svg version="1.1" id="truck_copy_1_" xmlns="http://www.w3.org/2000/svg" xmlns:xlink="http://www.w3.org/1999/xlink" x="0px"
	 y="0px" width="112px" height="65px" viewBox="0 0 112 65" enable-background="new 0 0 112 65" xml:space="preserve">
<g id="Shape_337">
	<g>
		<path fill="#FF0000" d="M101.488,9.879C99.734,6.5,97.841,5.03,97.841,5.03v41.818h7.296V20.182
			C105.137,20.182,103.242,13.258,101.488,9.879z"/>
	</g>
</g>
<g id="Rounded_Rectangle_71" opacity="0.2314">
	<g>
		<path d="M105.5,58h-97C7.119,58,6,59.119,6,60.5S7.119,63,8.5,63h97c1.381,0,2.5-1.119,2.5-2.5S106.881,58,105.5,58z"/>
	</g>
</g>
<g id="Rounded_Rectangle_66">
	<g>
		<path fill="#C1C1C1" d="M90.545,52.303H25.494c-1.007,0-1.824,0.814-1.824,1.818s0.816,1.818,1.824,1.818h65.051
			c1.008,0,1.824-0.814,1.824-1.818S91.553,52.303,90.545,52.303z"/>
	</g>
</g>
<g id="Rectangle_40">
	<g>
		<path fill="#737373" d="M72.914,53.516H62.58v-3.637H47.989v3.637H32.79c-0.335,0-0.608,0.813-0.608,1.817
			c0,1.005,0.272,1.818,0.608,1.818h40.125c0.336,0,0.608-0.813,0.608-1.818C73.522,54.329,73.25,53.516,72.914,53.516z"/>
	</g>
</g>
<g id="Rectangle_41">
	<g>
		<rect x="105.137" y="24.424" fill="#737373" width="3.039" height="14.546"/>
	</g>
</g>
<g id="Shape_335">
	<g>
		<polygon fill="#ED1C24" points="30.966,10.485 26.102,14.121 27.318,20.182 24.278,31.697 23.67,50.485 38.261,50.485 
			38.261,10.485 		"/>
	</g>
</g>
<g id="Shape_332">
	<g>
		<path fill="#00BFF3" d="M26.71,14.121c0,0-14.332,3.939-17.022,13.939c-2.691,10-2.432,11.516-2.432,11.516h10.335l7.903-10.909
			l2.432-9.091L26.71,14.121z"/>
	</g>
</g>
<g id="Rectangle_36">
	<g>
		<rect x="38.261" y="25.03" fill="#9E0B0F" width="3.647" height="24.849"/>
	</g>
</g>
<g id="Rectangle_37">
	<g>
		<polygon fill="#666666" points="46.772,4.424 40.693,50.485 97.232,50.485 97.232,4.424 		"/>
	</g>
</g>
<g id="Rectangle_38">
	<g>
		<polygon fill="#FFFFFF" points="52.244,6.242 47.989,38.97 58.932,38.97 88.113,23.818 91.153,23.818 91.153,6.242 		"/>
	</g>
</g>
<g id="Shape_338">
	<g>
		<path fill="#FF0000" d="M89.938,25.637c-2.927-0.006-3.04,1.212-3.04,1.212S65.85,37.227,61.971,38.97
			c-3.877,1.743-4.863,1.212-4.863,1.212H41.909l-0.607,2.425c0,0,14.598,0.057,16.415,0C59.533,42.549,61.363,42,61.363,42
			l28.574-13.939h7.903v-2.424C97.841,25.637,92.863,25.642,89.938,25.637z"/>
	</g>
</g>
<g id="Shape_338_copy">
	<g>
		<path fill="#FF0000" d="M89.938,30.484c-2.927-0.003-3.04,1.213-3.04,1.213S65.85,42.075,61.971,43.818
			c-3.877,1.743-4.863,1.212-4.863,1.212H41.909l-0.607,2.425c0,0,14.598,0.057,16.415,0c1.817-0.058,3.647-0.606,3.647-0.606
			l28.574-13.939h7.903v-2.425C97.841,30.484,94.869,30.49,89.938,30.484z"/>
	</g>
</g>
<g id="Shape_336">
	<g>
		<path fill="#FFFFFF" d="M101.488,39.576c-3.436-1.714-12.667-0.638-18.238,0c-5.572,0.637-12.768,4.242-12.768,4.242l-3.647,7.879
			h42.557L110,50.485v-2.425C110,48.061,104.924,41.289,101.488,39.576z"/>
	</g>
</g>
<g id="Shape_334">
	<g>
		<polygon fill="#9E0B0F" points="21.847,29.879 16.375,39.576 15.767,48.667 35.221,48.667 35.221,29.879 		"/>
	</g>
</g>
<g id="Shape_333">
	<g>
		<path fill="#FFFFFF" d="M17.591,38.97L7.255,38.363c0,0-3.413,0.272-3.647,4.243c-0.234,3.97,1.824,13.939,1.824,13.939
			l28.574-4.849l3.04-6.061L17.591,38.97z"/>
	</g>
</g>
<g id="Rounded_Rectangle_64">
	<g>
		<path fill="#FFFFFF" d="M24.886,26.849c-0.671,0-1.216,0.543-1.216,1.212v6.667c0,0.669,0.544,1.212,1.216,1.212
			s1.216-0.543,1.216-1.212v-6.667C26.102,27.392,25.558,26.849,24.886,26.849z"/>
	</g>
</g>
<g id="Rounded_Rectangle_65">
	<g>
		<path fill="#FFFFFF" d="M39.173,4.424c-0.504,0-0.912,0.407-0.912,0.909v15.151c0,0.503,0.408,0.909,0.912,0.909
			c0.503,0,0.912-0.406,0.912-0.909V5.333C40.085,4.831,39.677,4.424,39.173,4.424z"/>
	</g>
</g>
<g id="Ellipse_136">
	<g>
		<ellipse fill="#737373" cx="19.111" cy="53.818" rx="8.208" ry="8.182"/>
	</g>
</g>
<g id="Ellipse_136_copy">
	<g>
		<ellipse fill="#FFFFFF" cx="19.111" cy="53.818" rx="5.168" ry="5.151"/>
	</g>
</g>
<g id="Ellipse_136_copy_2">
	<g>
		<ellipse fill="#A7A7A7" cx="18.807" cy="54.121" rx="1.824" ry="1.818"/>
	</g>
</g>
<g id="Ellipse_136_copy_3">
	<g>
		<ellipse fill="#737373" cx="82.338" cy="53.818" rx="8.207" ry="8.182"/>
	</g>
</g>
<g id="Ellipse_136_copy_3_1_">
	<g>
		<ellipse fill="#FFFFFF" cx="82.338" cy="53.818" rx="5.168" ry="5.151"/>
	</g>
</g>
<g id="Ellipse_136_copy_3_2_">
	<g>
		<ellipse fill="#A7A7A7" cx="82.034" cy="54.121" rx="1.824" ry="1.818"/>
	</g>
</g>
<g id="Ellipse_136_copy_4">
	<g>
		<ellipse fill="#737373" cx="99.361" cy="53.818" rx="8.208" ry="8.182"/>
	</g>
</g>
<g id="Ellipse_136_copy_4_1_">
	<g>
		<ellipse fill="#FFFFFF" cx="99.361" cy="53.818" rx="5.168" ry="5.151"/>
	</g>
</g>
<g id="Ellipse_136_copy_4_2_">
	<g>
		<ellipse fill="#A7A7A7" cx="99.057" cy="54.121" rx="1.824" ry="1.818"/>
	</g>
</g>
<g id="Ellipse_133">
	<g>
		<path fill="#57D6F9" d="M19.978,19.842c-1.3-0.927-4.292,1.024-6.683,4.357s-3.274,6.786-1.974,7.713s4.292-1.023,6.683-4.356
			C20.395,24.222,21.278,20.769,19.978,19.842z"/>
	</g>
</g>
<g id="Ellipse_134">
	<g>
		<ellipse fill="#FFFFFF" cx="17.591" cy="25.636" rx="2.432" ry="2.424"/>
	</g>
</g>
<g id="Ellipse_135">
	<g>
		<ellipse fill="#FF0000" cx="68.963" cy="19.273" rx="9.423" ry="9.394"/>
	</g>
</g>
<g id="Ellipse_135_copy">
	<g>
		<ellipse fill="#FFFFFF" cx="70.18" cy="18.061" rx="6.385" ry="6.363"/>
	</g>
</g>
<g id="Ellipse_135_copy_2">
	<g>
		<ellipse fill="#FF0000" cx="72.003" cy="16.849" rx="3.344" ry="3.333"/>
	</g>
</g>
<g id="Rounded_Rectangle_68">
	<g>
		<path fill="#ED1C24" d="M38.869,2c-1.007,0-1.824,0.814-1.824,1.818v2.424c0,1.005,0.816,1.818,1.824,1.818
			s1.824-0.813,1.824-1.818V3.818C40.693,2.814,39.876,2,38.869,2z"/>
	</g>
</g>
<g id="Rounded_Rectangle_69">
	<g>
		<path fill="#ED1C24" d="M32.486,31.697c-0.84,0-1.52,0.678-1.52,1.515v1.818c0,0.837,0.68,1.516,1.52,1.516
			c0.839,0,1.52-0.679,1.52-1.516v-1.818C34.005,32.375,33.325,31.697,32.486,31.697z"/>
	</g>
</g>
<g id="Rounded_Rectangle_70">
	<g>
		<path fill="#FFF200" d="M4.824,42C3.816,42,3,42.814,3,43.818v3.03c0,1.004,0.816,1.818,1.824,1.818s1.824-0.814,1.824-1.818
			v-3.03C6.647,42.814,5.831,42,4.824,42z"/>
	</g>
</g>
<g id="Rectangle_39">
	<g>
		<rect x="18.807" y="31.697" fill="#FFFFFF" width="5.472" height="1.212"/>
	</g>
</g>
</svg>
