<?xml version="1.0" encoding="utf-8"?>
<!-- Generator: Adobe Illustrator 16.0.0, SVG Export Plug-In . SVG Version: 6.00 Build 0)  -->
<!DOCTYPE svg PUBLIC "-//W3C//DTD SVG 1.1//EN" "http://www.w3.org/Graphics/SVG/1.1/DTD/svg11.dtd">
<svg version="1.1" id="truck_copy_1_" xmlns="http://www.w3.org/2000/svg" xmlns:xlink="http://www.w3.org/1999/xlink" x="0px"
	 y="0px" width="112px" height="65px" viewBox="0 0 112 65" enable-background="new 0 0 112 65" xml:space="preserve">
<g id="Shape_337">
	<g>
		<path fill="#FF0000" d="M11.512,9.879c-1.754,3.379-3.648,10.303-3.648,10.303v26.667h7.295V5.03
			C15.159,5.03,13.266,6.5,11.512,9.879z"/>
	</g>
</g>
<g id="Rounded_Rectangle_71" opacity="0.2314">
	<g>
		<path d="M104.5,58h-97C6.12,58,5,59.119,5,60.5S6.12,63,7.5,63h97c1.381,0,2.5-1.119,2.5-2.5S105.881,58,104.5,58z"/>
	</g>
</g>
<g id="Rounded_Rectangle_66">
	<g>
		<path fill="#C1C1C1" d="M87.506,52.303H22.455c-1.007,0-1.824,0.814-1.824,1.818s0.816,1.818,1.824,1.818h65.051
			c1.008,0,1.824-0.814,1.824-1.818S88.514,52.303,87.506,52.303z"/>
	</g>
</g>
<g id="Rectangle_40">
	<g>
		<path fill="#737373" d="M80.211,53.516H65.012v-3.637H50.42v3.637H40.085c-0.336,0-0.608,0.813-0.608,1.817
			c0,1.005,0.272,1.818,0.608,1.818h40.125c0.335,0,0.607-0.813,0.607-1.818C80.818,54.329,80.546,53.516,80.211,53.516z"/>
	</g>
</g>
<g id="Rectangle_41">
	<g>
		<rect x="4.824" y="24.424" fill="#737373" width="3.04" height="14.546"/>
	</g>
</g>
<g id="Shape_335">
	<g>
		<polygon fill="#ED1C24" points="88.722,31.697 85.682,20.182 86.898,14.121 82.034,10.485 74.738,10.485 74.738,50.485 
			89.33,50.485 		"/>
	</g>
</g>
<g id="Shape_332">
	<g>
		<path fill="#00BFF3" d="M103.312,28.061c-2.69-10-17.022-13.939-17.022-13.939l-1.216,5.455l2.432,9.091l7.903,10.909h10.335
			C105.744,39.576,106.004,38.061,103.312,28.061z"/>
	</g>
</g>
<g id="Rectangle_36">
	<g>
		<rect x="71.092" y="25.03" fill="#9E0B0F" width="3.646" height="24.849"/>
	</g>
</g>
<g id="Rectangle_37">
	<g>
		<polygon fill="#666666" points="66.228,4.424 15.767,4.424 15.767,50.485 72.307,50.485 		"/>
	</g>
</g>
<g id="Rectangle_38">
	<g>
		<polygon fill="#FFFFFF" points="60.756,6.242 21.847,6.242 21.847,23.818 24.887,23.818 54.068,38.97 65.012,38.97 		"/>
	</g>
</g>
<g id="Shape_338">
	<g>
		<path fill="#FF0000" d="M71.092,40.182h-15.2c0,0-0.985,0.531-4.863-1.212c-3.878-1.743-24.926-12.121-24.926-12.121
			s-0.113-1.218-3.04-1.212c-2.926,0.005-7.903,0-7.903,0v2.424h7.903L51.637,42c0,0,1.831,0.549,3.647,0.606
			c1.817,0.057,16.415,0,16.415,0L71.092,40.182z"/>
	</g>
</g>
<g id="Shape_338_copy">
	<g>
		<path fill="#FF0000" d="M71.092,45.03h-15.2c0,0-0.985,0.531-4.863-1.212c-3.878-1.743-24.926-12.121-24.926-12.121
			s-0.113-1.216-3.04-1.213c-4.932,0.006-7.903,0-7.903,0v2.425h7.903l28.574,13.939c0,0,1.831,0.549,3.647,0.606
			c1.817,0.057,16.415,0,16.415,0L71.092,45.03z"/>
	</g>
</g>
<g id="Shape_336">
	<g>
		<path fill="#FFFFFF" d="M42.517,43.818c0,0-7.195-3.605-12.767-4.242c-5.571-0.638-14.803-1.714-18.238,0
			C8.076,41.289,3,48.061,3,48.061v2.425l0.608,1.212h42.557L42.517,43.818z"/>
	</g>
</g>
<g id="Shape_334">
	<g>
		<polygon fill="#9E0B0F" points="96.625,39.576 91.153,29.879 77.779,29.879 77.779,48.667 97.232,48.667 		"/>
	</g>
</g>
<g id="Shape_333">
	<g>
		<path fill="#FFFFFF" d="M109.393,42.606c-0.234-3.971-3.648-4.243-3.648-4.243L95.409,38.97l-19.454,6.667l3.039,6.061
			l28.574,4.849C107.568,56.546,109.627,46.576,109.393,42.606z"/>
	</g>
</g>
<g id="Rounded_Rectangle_64">
	<g>
		<path fill="#FFFFFF" d="M88.113,26.849c-0.671,0-1.215,0.543-1.215,1.212v6.667c0,0.669,0.544,1.212,1.215,1.212
			c0.672,0,1.217-0.543,1.217-1.212v-6.667C89.33,27.392,88.785,26.849,88.113,26.849z"/>
	</g>
</g>
<g id="Rounded_Rectangle_65">
	<g>
		<path fill="#FFFFFF" d="M73.826,4.424c-0.503,0-0.911,0.407-0.911,0.909v15.151c0,0.503,0.408,0.909,0.911,0.909
			c0.504,0,0.912-0.406,0.912-0.909V5.333C74.738,4.831,74.33,4.424,73.826,4.424z"/>
	</g>
</g>
<g id="Ellipse_136">
	<g>
		<ellipse fill="#737373" cx="93.889" cy="53.818" rx="8.207" ry="8.182"/>
	</g>
</g>
<g id="Ellipse_136_copy">
	<g>
		<ellipse fill="#FFFFFF" cx="93.889" cy="53.818" rx="5.167" ry="5.151"/>
	</g>
</g>
<g id="Ellipse_136_copy_2">
	<g>
		<ellipse fill="#A7A7A7" cx="94.193" cy="54.121" rx="1.824" ry="1.818"/>
	</g>
</g>
<g id="Ellipse_136_copy_3">
	<g>
		<ellipse fill="#737373" cx="30.662" cy="53.818" rx="8.208" ry="8.182"/>
	</g>
</g>
<g id="Ellipse_136_copy_3_1_">
	<g>
		<ellipse fill="#FFFFFF" cx="30.662" cy="53.818" rx="5.167" ry="5.151"/>
	</g>
</g>
<g id="Ellipse_136_copy_3_2_">
	<g>
		<ellipse fill="#A7A7A7" cx="30.966" cy="54.121" rx="1.824" ry="1.818"/>
	</g>
</g>
<g id="Ellipse_136_copy_4">
	<g>
		<ellipse fill="#737373" cx="13.639" cy="53.818" rx="8.207" ry="8.182"/>
	</g>
</g>
<g id="Ellipse_136_copy_4_1_">
	<g>
		<ellipse fill="#FFFFFF" cx="13.639" cy="53.818" rx="5.167" ry="5.151"/>
	</g>
</g>
<g id="Ellipse_136_copy_4_2_">
	<g>
		<ellipse fill="#A7A7A7" cx="13.943" cy="54.121" rx="1.824" ry="1.818"/>
	</g>
</g>
<g id="Ellipse_133">
	<g>
		<path fill="#57D6F9" d="M99.705,24.199c-2.391-3.333-5.383-5.284-6.684-4.357c-1.3,0.927-0.416,4.38,1.975,7.714
			c2.391,3.333,5.383,5.283,6.683,4.356S102.096,27.532,99.705,24.199z"/>
	</g>
</g>
<g id="Ellipse_134">
	<g>
		<ellipse fill="#FFFFFF" cx="95.409" cy="25.636" rx="2.432" ry="2.424"/>
	</g>
</g>
<g id="Ellipse_135">
	<g>
		<ellipse fill="#FF0000" cx="43.963" cy="19.273" rx="9.423" ry="9.394"/>
	</g>
</g>
<g id="Ellipse_135_copy">
	<g>
		<ellipse fill="#FFFFFF" cx="45.179" cy="18.061" rx="6.384" ry="6.363"/>
	</g>
</g>
<g id="Ellipse_135_copy_2">
	<g>
		<ellipse fill="#FF0000" cx="47.003" cy="16.849" rx="3.344" ry="3.333"/>
	</g>
</g>
<g id="Rounded_Rectangle_68">
	<g>
		<path fill="#ED1C24" d="M74.131,2c-1.008,0-1.824,0.814-1.824,1.818v2.424c0,1.005,0.816,1.818,1.824,1.818
			s1.824-0.813,1.824-1.818V3.818C75.955,2.814,75.139,2,74.131,2z"/>
	</g>
</g>
<g id="Rounded_Rectangle_69">
	<g>
		<path fill="#ED1C24" d="M80.514,31.697c-0.839,0-1.52,0.678-1.52,1.515v1.818c0,0.837,0.681,1.516,1.52,1.516
			c0.84,0,1.521-0.679,1.521-1.516v-1.818C82.034,32.375,81.354,31.697,80.514,31.697z"/>
	</g>
</g>
<g id="Rounded_Rectangle_70">
	<g>
		<path fill="#FFF200" d="M108.176,42c-1.007,0-1.823,0.814-1.823,1.818v3.03c0,1.004,0.816,1.818,1.823,1.818
			c1.008,0,1.824-0.814,1.824-1.818v-3.03C110,42.814,109.184,42,108.176,42z"/>
	</g>
</g>
<g id="Rectangle_39">
	<g>
		<rect x="88.722" y="31.697" fill="#FFFFFF" width="5.472" height="1.212"/>
	</g>
</g>
</svg>
