<?xml version="1.0" encoding="utf-8"?>
<!-- Generator: Adobe Illustrator 16.0.0, SVG Export Plug-In . SVG Version: 6.00 Build 0)  -->
<!DOCTYPE svg PUBLIC "-//W3C//DTD SVG 1.1//EN" "http://www.w3.org/Graphics/SVG/1.1/DTD/svg11.dtd">
<svg version="1.1" id="truck_top_1_" xmlns="http://www.w3.org/2000/svg" xmlns:xlink="http://www.w3.org/1999/xlink" x="0px"
	 y="0px" width="39px" height="112px" viewBox="0 0 39 112" enable-background="new 0 0 39 112" xml:space="preserve">
<g id="Rectangle_48" opacity="0.2">
	<g>
		<rect x="2" y="19" width="34.327" height="91"/>
	</g>
</g>
<g id="Rectangle_46_copy_3">
	<g>
		<path fill="#737373" d="M2.673,47h8.75V14h-8.75V47z M2.673,101h8.75V68h-8.75V101z M28.25,14v33H37V14H28.25z M28.25,101H37V68
			h-8.75V101z"/>
	</g>
</g>
<g id="Rounded_Rectangle_73">
	<g>
		<path fill="#FFFFFF" d="M28.924,4H12.77c-3.346,0-6.058,4.029-6.058,9s-0.115,39.073,6.058,9h16.154c3.345,0,3.976,34.031,5.384-7
			C34.553,7.866,32.269,4,28.924,4z"/>
	</g>
</g>
<g id="Rectangle_43">
	<g>
		<rect x="4.692" y="36" fill="#8E8E8E" width="30.288" height="54"/>
	</g>
</g>
<g id="Rectangle_46">
	<g>
		<rect x="7.385" y="39" fill="#FFFFFF" width="24.904" height="47"/>
	</g>
</g>
<g id="Rectangle_45">
	<g>
		<rect x="17.481" y="36" fill="#8E8E8E" width="4.711" height="57"/>
	</g>
</g>
<g id="Rectangle_47">
	<g>
		<rect x="16.808" y="97" fill="#666666" width="6.058" height="4"/>
	</g>
</g>
<g id="Ellipse_137">
	<g>
		<ellipse fill="#FFFFFF" cx="12.096" cy="32" rx="1.346" ry="2"/>
	</g>
</g>
<g id="Rounded_Rectangle_74">
	<g>
		<path fill="#FF0000" d="M28.586,90H10.414c-1.301,0-2.356,1.567-2.356,3.5S9.112,97,10.414,97h18.172
			c1.302,0,2.356-1.567,2.356-3.5S29.888,90,28.586,90z"/>
	</g>
</g>
<g id="Rectangle_44">
	<g>
		<rect x="14.115" y="36" fill="#FF0000" width="3.366" height="55"/>
	</g>
</g>
<g id="Rectangle_44_copy">
	<g>
		<rect x="22.192" y="36" fill="#FF0000" width="3.365" height="55"/>
	</g>
</g>
<g id="Rectangle_42">
	<g>
		<rect x="8.731" y="13" fill="#FF0000" width="23.558" height="21"/>
	</g>
</g>
<g id="Rounded_Rectangle_72">
	<g>
		<path fill="#00BFF3" d="M30.942,11c0-5.522-3.014-9-6.731-9h-7.403c-3.717,0-6.73,3.478-6.73,9S9.052,21,12.77,21h15.48
			C31.967,21,30.942,16.522,30.942,11z"/>
	</g>
</g>
<g id="Ellipse_138">
	<g>
		<ellipse fill="#57D6F9" cx="21.52" cy="7" rx="5.385" ry="3"/>
	</g>
</g>
<g id="Ellipse_139">
	<g>
		<ellipse fill="#FFFFFF" cx="24.5" cy="8.5" rx="2.513" ry="2.5"/>
	</g>
</g>
<g id="Ellipse_140">
	<g>
		<circle fill="#FFFFFF" cx="14.002" cy="26" r="2"/>
	</g>
</g>
<g id="Ellipse_140_copy">
	<g>
		<circle fill="#FFFFFF" cx="20.002" cy="26" r="2"/>
	</g>
</g>
<g id="Ellipse_140_copy_2">
	<g>
		<circle fill="#FFFFFF" cx="26" cy="26" r="2"/>
	</g>
</g>
</svg>
