<?xml version="1.0" encoding="utf-8"?>
<!-- Generator: Adobe Illustrator 16.0.0, SVG Export Plug-In . SVG Version: 6.00 Build 0)  -->
<!DOCTYPE svg PUBLIC "-//W3C//DTD SVG 1.1//EN" "http://www.w3.org/Graphics/SVG/1.1/DTD/svg11.dtd">
<svg version="1.1" id="tunnel_1_" xmlns="http://www.w3.org/2000/svg" xmlns:xlink="http://www.w3.org/1999/xlink" x="0px" y="0px"
	 width="1024px" height="640px" viewBox="0 0 3000 1874" enable-background="new 0 0 3000 1874" xml:space="preserve">
<g id="Rounded_Rectangle_47">
	<g>
		<path fill="#ED1C24" d="M1511,740c-19.33,0-35,15.67-35,35v30c0,19.33,15.67,35,35,35s35-15.67,35-35v-30
			C1546,755.67,1530.33,740,1511,740z"/>
	</g>
</g>
<g id="Ellipse_92">
	<g>
		<ellipse fill="#C11D23" cx="1487.5" cy="789.5" rx="9.5" ry="36.5"/>
	</g>
</g>
<g id="Ellipse_93">
	<g>
		<ellipse fill="#EF5359" cx="1532" cy="812.5" rx="7" ry="10.5"/>
	</g>
</g>
<g id="Shape_295_copy">
	<g>
		<path fill="#FFFFFF" d="M1546,774v-7c0,0-6.554-12.015-27.002-14.54c-0.021-3.601-2.921-10.46-6.498-10.46
			c-3.484,0-6.32,6.501-6.484,10.166C1480.715,753.855,1475,768,1475,768l1,4c0,0,6.407-14.051,30-15.833v13
			c-25.287,1.694-31,15.833-31,15.833l1,4c0,0,6.407-14.051,30-15.833v14c-25.287,1.694-31,15.833-31,15.833l1,4
			c0,0,6.407-14.051,30-15.833V802.5c0,3.59,3.41,8.5,7,8.5s6-4.91,6-8.5v-11.055c23.125,2.817,27,17.555,27,17.555v-7
			c0,0-6.554-12.014-27-14.54v-14.015c23.125,2.817,27,17.555,27,17.555v-7c0,0-6.554-12.014-27-14.54v-13.015
			C1542.125,759.263,1546,774,1546,774z"/>
	</g>
</g>
<g id="Rounded_Rectangle_47_copy_3">
	<g>
		<path fill="#ED1C24" d="M819,815c-19.33,0-35,15.67-35,35v30c0,19.33,15.67,35,35,35s35-15.67,35-35v-30
			C854,830.67,838.33,815,819,815z"/>
	</g>
</g>
<g id="Ellipse_92_copy">
	<g>
		<ellipse fill="#C11D23" cx="795.5" cy="864.5" rx="9.5" ry="36.5"/>
	</g>
</g>
<g id="Ellipse_93_copy">
	<g>
		<ellipse fill="#EF5359" cx="840" cy="887.5" rx="7" ry="10.5"/>
	</g>
</g>
<g id="Shape_295_copy_2">
	<g>
		<path fill="#FFFFFF" d="M854,849v-7c0,0-6.554-12.015-27.002-14.54c-0.021-3.601-2.921-10.46-6.498-10.46
			c-3.484,0-6.32,6.501-6.484,10.166C788.715,828.855,783,843,783,843l1,4c0,0,6.406-14.051,30-15.833v13
			C788.713,845.861,783,860,783,860l1,4c0,0,6.406-14.051,30-15.833v14C788.713,863.861,783,878,783,878l1,4
			c0,0,6.406-14.051,30-15.833V877.5c0,3.59,3.41,8.5,7,8.5s6-4.91,6-8.5v-11.055C850.125,869.263,854,884,854,884v-7
			c0,0-6.554-12.014-27-14.54v-14.015C850.125,851.263,854,866,854,866v-7c0,0-6.554-12.014-27-14.54v-13.015
			C850.125,834.263,854,849,854,849z"/>
	</g>
</g>
<g id="Shape_296">
	<g>
		<path fill="#FFFFFF" d="M1544,1286l-117,15c0,0-2.396,35.631,8,36s82,0,82,0s12.293,0.459,21-7
			C1546.482,1322.734,1544,1286,1544,1286z"/>
	</g>
</g>
<g id="Rounded_Rectangle_50">
	<g>
		<path fill="#6DCFF6" d="M1499.074,1317.667h-34.148c-2.721,0-4.926,2.238-4.926,5c0,2.761,2.205,5,4.926,5h34.148
			c2.721,0,4.926-2.239,4.926-5C1504,1319.905,1501.795,1317.667,1499.074,1317.667z"/>
	</g>
</g>
<g id="Rectangle_13_copy_2">
	<g>
		<path fill="#FFFFFF" d="M1470.508,1329h1.97v-12h-1.97V1329z M1481.015,1329h1.971v-12h-1.971V1329z M1491.522,1317v12h1.97v-12
			H1491.522z"/>
	</g>
</g>
<g id="Rounded_Rectangle_47_copy">
	<g>
		<path fill="#ED1C24" d="M1545,1256c0-19.33-15.67-35-35-35s-35,15.67-35,35v15h-41.5c-10.77,0-26.5,0.23-26.5,11s15.73,28,26.5,28
			h81.5c10.77,0,30-8.73,30-19.5c0-1.552-0.2-3.053-0.543-4.5H1545V1256z"/>
	</g>
</g>
<g id="Rounded_Rectangle_51">
	<g>
		<path fill="#C11D23" d="M1535,1245c-3.313,0-6,1.557-6,3.478v44.045c0,1.921,2.687,3.478,6,3.478s6-1.557,6-3.478v-44.045
			C1541,1246.557,1538.313,1245,1535,1245z"/>
	</g>
</g>
<g id="Rounded_Rectangle_48_copy_2">
	<g>
		<path fill="#FFFFFF" d="M1545,1255v-7c0,0-6.554-12.015-27.002-14.54c-0.021-3.601-2.921-10.46-6.498-10.46
			c-3.484,0-6.32,6.501-6.484,10.166C1479.715,1234.855,1474,1249,1474,1249l1,4c0,0,6.406-14.051,30-15.833v26.076
			c-13.668-0.612-30,2.757-30,2.757v3c-1.104,0-2,0.896-2,2v4h-17v-4c0-1.104-0.896-2-2-2s-2,0.896-2,2v4h-16v-4
			c0-1.104-0.896-2-2-2s-2,0.896-2,2v4h-3.869c-5.516,0-16.131,2.91-16.131,6.5s10.615,6.5,16.131,6.5H1432v22c0,1.104,0.896,2,2,2
			s2-0.896,2-2v-22h16v22c0,1.104,0.896,2,2,2s2-0.896,2-2v-22h17v22c0,1.104,0.896,2,2,2s2-0.896,2-2v-22h27.942
			c5.031,0,11.733-2.84,12.872-6.064L1518,1282v-11.339c19.149,7.452,20,31.339,20,31.339l4-3c0,0-3.869-25.301-24-33.259v-28.296
			C1541.125,1240.263,1545,1255,1545,1255z M1505,1275.002c-0.019,0-0.039-0.002-0.058-0.002H1477v-4c0-0.221-0.044-0.43-0.11-0.628
			c3.977-1.202,14.095-3.594,28.11-2.288V1275.002z"/>
	</g>
</g>
<g id="Shape_296_copy">
	<g>
		<path fill="#FFFFFF" d="M902,1308l-114-22c0,0-2.482,36.734,6,44c8.707,7.459,21,7,21,7s64.432-0.433,74,0
			C905.43,1337.742,902,1308,902,1308z"/>
	</g>
</g>
<g id="Rounded_Rectangle_50_copy">
	<g>
		<path fill="#6DCFF6" d="M867.074,1317.667h-34.148c-2.721,0-4.926,2.238-4.926,5c0,2.761,2.205,5,4.926,5h34.148
			c2.721,0,4.926-2.239,4.926-5C872,1319.905,869.795,1317.667,867.074,1317.667z"/>
	</g>
</g>
<g id="Rectangle_13_copy_3">
	<g>
		<path fill="#FFFFFF" d="M859.522,1317v12h1.97v-12H859.522z M849.015,1329h1.971v-12h-1.971V1329z M838.508,1329h1.97v-12h-1.97
			V1329z"/>
	</g>
</g>
<g id="Rounded_Rectangle_47_copy_2">
	<g>
		<path fill="#ED1C24" d="M898.5,1271H857v-15c0-19.33-15.67-35-35-35s-35,15.67-35,35v30h0.543c-0.343,1.447-0.543,2.948-0.543,4.5
			c0,10.77,19.23,19.5,30,19.5h81.5c10.77,0,26.5-17.23,26.5-28S909.27,1271,898.5,1271z"/>
	</g>
</g>
<g id="Rounded_Rectangle_51_copy">
	<g>
		<path fill="#C11D23" d="M797,1245c-3.313,0-6,1.557-6,3.478v44.045c0,1.921,2.687,3.478,6,3.478s6-1.557,6-3.478v-44.045
			C803,1246.557,800.313,1245,797,1245z"/>
	</g>
</g>
<g id="Rounded_Rectangle_48_copy_3">
	<g>
		<path fill="#FFFFFF" d="M903.869,1275H900v-4c0-1.104-0.896-2-2-2s-2,0.896-2,2v4h-16v-4c0-1.104-0.896-2-2-2s-2,0.896-2,2v4h-17
			v-4c0-1.104-0.896-2-2-2v-3c0,0-16.332-3.369-30-2.757v-26.076c23.593,1.782,30,15.833,30,15.833l1-4
			c0,0-5.715-14.145-31.016-15.834c-0.164-3.665-3-10.166-6.484-10.166c-3.577,0-6.478,6.859-6.498,10.46
			C793.554,1235.985,787,1248,787,1248v7c0,0,3.875-14.737,27-17.555v28.296c-20.131,7.958-24,33.259-24,33.259l4,3
			c0,0,0.851-23.887,20-31.339V1282l0.186-0.064c1.139,3.225,7.841,6.064,12.873,6.064H855v22c0,1.104,0.896,2,2,2s2-0.896,2-2v-22
			h17v22c0,1.104,0.896,2,2,2s2-0.896,2-2v-22h16v22c0,1.104,0.896,2,2,2s2-0.896,2-2v-22h3.869c5.516,0,16.131-2.91,16.131-6.5
			S909.385,1275,903.869,1275z M855,1271v4h-27.941c-0.02,0-0.039,0.002-0.059,0.002v-6.918c14.015-1.306,24.134,1.086,28.11,2.288
			C855.045,1270.57,855,1270.779,855,1271z"/>
	</g>
</g>
</svg>
