<?xml version="1.0" encoding="utf-8"?>
<!-- Generator: Adobe Illustrator 16.0.0, SVG Export Plug-In . SVG Version: 6.00 Build 0)  -->
<!DOCTYPE svg PUBLIC "-//W3C//DTD SVG 1.1//EN" "http://www.w3.org/Graphics/SVG/1.1/DTD/svg11.dtd">
<svg version="1.1" xmlns="http://www.w3.org/2000/svg" xmlns:xlink="http://www.w3.org/1999/xlink" x="0px" y="0px" width="88px"
	 height="88px" viewBox="0 0 88 88" enable-background="new 0 0 88 88" xml:space="preserve">
<g id="Shape_1_1_" enable-background="new    ">
	<g id="Shape_1">
		<g>
			<path fill="#FFFFFF" d="M46,22c-0.271-5.142-2-21-2-21s-2.396,11.05-3,21s2,22,2,22h1C44,44,46.373,29.078,46,22z"/>
		</g>
	</g>
</g>
<g id="Shape_1_copy_1_" enable-background="new    ">
	<g id="Shape_1_copy">
		<g>
			<path fill="#FFFFFF" d="M65.055,52.619c-8.438-5.308-20.258-8.811-20.258-8.811l-0.48,0.878c0,0,11.949,9.246,18.338,12.318
				c4.64,2.23,19.381,8.329,19.381,8.329S73.494,57.927,65.055,52.619z"/>
		</g>
	</g>
</g>
<g id="Shape_1_copy_2_1_" enable-background="new    ">
	<g id="Shape_1_copy_2">
		<g>
			<path fill="#FFFFFF" d="M42.349,44.079c0,0-14.298,5.456-20.302,9.357C17.686,56.271,4.698,65.794,4.698,65.794
				s10.919-3.48,19.945-7.977s18.224-12.862,18.224-12.862L42.349,44.079z"/>
		</g>
	</g>
</g>
<g id="Ellipse_1_1_" enable-background="new    ">
	<g id="Ellipse_1">
		<g>
			<circle fill="#ED1C24" cx="43.5" cy="43.5" r="5.5"/>
		</g>
	</g>
</g>
</svg>
